<svg xmlns="http://www.w3.org/2000/svg" xmlns:xlink="http://www.w3.org/1999/xlink" width="500" zoomAndPan="magnify" viewBox="0 0 375 374.999991" height="500" preserveAspectRatio="xMidYMid meet" version="1.0"><defs><clipPath id="cc9170c38c"><path d="M 0.304688 48.515625 L 374.695312 48.515625 L 374.695312 326.742188 L 0.304688 326.742188 Z M 0.304688 48.515625 " clip-rule="nonzero"/></clipPath></defs><g clip-path="url(#cc9170c38c)"><path fill="#000000" d="M 23.917969 160.183594 C 17.5 182.40625 11.976562 191.535156 11.875 218.871094 C 11.816406 242.75 11.929688 266.640625 11.890625 290.558594 C 11.84375 322.507812 14.109375 326.640625 46.792969 326.742188 C 80.621094 326.863281 76.542969 314.1875 76.652344 284.304688 L 298.03125 284.101562 C 298.277344 312.902344 294.339844 326.863281 326.484375 326.742188 C 372.390625 326.640625 362.78125 318.167969 362.824219 220.488281 C 362.835938 194.136719 358.109375 181.90625 350.683594 160.171875 C 372.394531 159.425781 398.640625 109.371094 333.144531 119.605469 C 329.679688 108.792969 324.96875 98.605469 320.425781 87.980469 C 314.738281 74.558594 314.320312 70.113281 305.132812 60.769531 C 297.34375 52.828125 286.222656 49.519531 273.707031 48.839844 L 268.050781 48.511719 L 99.363281 49.046875 C 68.109375 49.320312 61.523438 70.945312 53.375 90.128906 C 50.179688 97.585938 44.667969 114.238281 40.179688 119.289062 C -22.859375 109.78125 2.550781 159.363281 23.917969 160.183594 Z M 99.054688 240.734375 L 99.054688 207.671875 L 275.957031 207.671875 L 275.957031 240.734375 Z M 74.777344 229.46875 C 74.777344 240.367188 65.847656 249.230469 54.804688 249.238281 C 43.78125 249.238281 34.839844 240.375 34.839844 229.46875 C 34.839844 218.5625 43.78125 209.644531 54.804688 209.644531 C 65.851562 209.644531 74.777344 218.5625 74.777344 229.46875 Z M 340.183594 229.46875 C 340.183594 240.367188 331.214844 249.230469 320.210938 249.238281 C 309.140625 249.238281 300.214844 240.375 300.214844 229.46875 C 300.214844 218.5625 309.140625 209.644531 320.210938 209.644531 C 331.214844 209.644531 340.183594 218.5625 340.183594 229.46875 Z M 101.523438 65.34375 C 113.765625 62.195312 173.984375 64.296875 191.597656 64.292969 C 281.140625 64.292969 280.472656 55.160156 297.4375 96.121094 C 301.867188 106.882812 306.539062 117.878906 310.859375 128.476562 C 314.386719 137.28125 325.804688 155.589844 316.910156 162.144531 C 310.304688 166.996094 108.414062 164.367188 89.566406 164.367188 C 46.429688 164.367188 48.1875 166.132812 66.292969 122.421875 C 76.746094 97.074219 82.921875 70.132812 101.523438 65.34375 " fill-opacity="1" fill-rule="evenodd"/></g></svg>