<svg xmlns="http://www.w3.org/2000/svg" xmlns:xlink="http://www.w3.org/1999/xlink" width="428" zoomAndPan="magnify" viewBox="0 0 321 374.999991" height="500" preserveAspectRatio="xMidYMid meet" version="1.0"><path fill="#000000" d="M 200.046875 342.894531 L 252.644531 342.894531 C 253.664062 342.894531 254.671875 342.996094 255.671875 343.195312 C 256.667969 343.390625 257.640625 343.6875 258.582031 344.078125 C 259.523438 344.464844 260.414062 344.945312 261.261719 345.511719 C 262.109375 346.078125 262.894531 346.71875 263.613281 347.441406 C 264.332031 348.160156 264.976562 348.945312 265.542969 349.792969 C 266.109375 350.640625 266.585938 351.535156 266.976562 352.476562 C 267.367188 353.417969 267.660156 354.386719 267.859375 355.386719 C 268.058594 356.386719 268.15625 357.394531 268.15625 358.414062 L 268.15625 359.480469 C 268.15625 360.5 268.058594 361.507812 267.859375 362.507812 C 267.660156 363.507812 267.367188 364.476562 266.976562 365.417969 C 266.585938 366.359375 266.109375 367.253906 265.542969 368.101562 C 264.976562 368.949219 264.332031 369.734375 263.613281 370.453125 C 262.894531 371.175781 262.109375 371.816406 261.261719 372.382812 C 260.414062 372.949219 259.523438 373.429688 258.582031 373.820312 C 257.640625 374.207031 256.667969 374.503906 255.671875 374.703125 C 254.671875 374.902344 253.664062 375 252.644531 375 L 200.046875 375 C 199.027344 375 198.019531 374.902344 197.019531 374.703125 C 196.023438 374.503906 195.050781 374.207031 194.109375 373.820312 C 193.171875 373.429688 192.277344 372.949219 191.429688 372.382812 C 190.582031 371.816406 189.796875 371.175781 189.078125 370.453125 C 188.359375 369.734375 187.714844 368.949219 187.148438 368.101562 C 186.582031 367.253906 186.105469 366.359375 185.714844 365.417969 C 185.324219 364.476562 185.03125 363.507812 184.832031 362.507812 C 184.632812 361.507812 184.535156 360.5 184.535156 359.480469 L 184.535156 358.414062 C 184.535156 357.394531 184.632812 356.386719 184.832031 355.386719 C 185.03125 354.386719 185.324219 353.417969 185.714844 352.476562 C 186.105469 351.535156 186.582031 350.640625 187.148438 349.792969 C 187.714844 348.945312 188.359375 348.160156 189.078125 347.441406 C 189.796875 346.71875 190.582031 346.078125 191.429688 345.511719 C 192.277344 344.945312 193.171875 344.464844 194.109375 344.078125 C 195.050781 343.6875 196.023438 343.390625 197.019531 343.195312 C 198.019531 342.996094 199.027344 342.894531 200.046875 342.894531 Z M 200.046875 342.894531 " fill-opacity="1" fill-rule="nonzero"/><path fill="#000000" d="M 309.367188 113.433594 C 305.042969 113.433594 293.789062 115.695312 293.523438 126.019531 L 294.253906 193.496094 C 294.277344 196.777344 294.007812 200.03125 293.441406 203.265625 C 292.875 206.496094 292.023438 209.652344 290.886719 212.726562 C 289.75 215.804688 288.34375 218.757812 286.671875 221.578125 C 285.003906 224.402344 283.089844 227.050781 280.941406 229.527344 L 253.710938 261.300781 C 253.445312 261.652344 253.152344 261.972656 252.828125 262.261719 C 252.503906 262.554688 252.152344 262.8125 251.773438 263.035156 C 251.398438 263.257812 251.003906 263.441406 250.59375 263.585938 C 250.179688 263.730469 249.757812 263.832031 249.324219 263.894531 C 248.894531 263.957031 248.457031 263.976562 248.023438 263.949219 C 247.585938 263.925781 247.15625 263.859375 246.734375 263.753906 C 246.308594 263.644531 245.902344 263.496094 245.507812 263.304688 C 245.113281 263.117188 244.742188 262.890625 244.390625 262.628906 C 244.042969 262.367188 243.722656 262.074219 243.429688 261.746094 C 243.136719 261.421875 242.882812 261.070312 242.660156 260.695312 C 242.4375 260.320312 242.253906 259.925781 242.105469 259.511719 C 241.960938 259.101562 241.859375 258.675781 241.796875 258.246094 C 241.734375 257.8125 241.714844 257.378906 241.738281 256.941406 C 241.761719 256.503906 241.828125 256.074219 241.9375 255.652344 C 242.042969 255.226562 242.191406 254.820312 242.382812 254.425781 C 242.570312 254.03125 242.796875 253.65625 243.058594 253.308594 L 256.371094 232.859375 C 256.628906 232.359375 256.835938 231.839844 257 231.304688 C 257.167969 230.765625 257.285156 230.21875 257.355469 229.664062 C 257.425781 229.105469 257.449219 228.546875 257.425781 227.988281 C 257.398438 227.425781 257.328125 226.871094 257.207031 226.320312 C 257.085938 225.773438 256.917969 225.238281 256.707031 224.71875 C 256.496094 224.199219 256.238281 223.703125 255.941406 223.226562 C 255.644531 222.75 255.308594 222.304688 254.933594 221.886719 C 254.558594 221.46875 254.148438 221.085938 253.710938 220.738281 C 248.25 216.875 239.328125 221.871094 236.796875 223.402344 L 220.820312 243.382812 C 216.902344 248.230469 213.429688 253.371094 210.394531 258.8125 C 207.359375 264.253906 204.8125 269.914062 202.746094 275.792969 C 200.683594 281.671875 199.132812 287.683594 198.097656 293.828125 C 197.0625 299.972656 196.558594 306.160156 196.585938 312.390625 L 196.585938 329.574219 L 256.507812 329.574219 L 256.507812 310.65625 C 256.503906 309.050781 257.011719 307.628906 258.039062 306.394531 L 297.984375 258.835938 C 301.546875 254.578125 304.714844 250.039062 307.488281 245.230469 C 310.261719 240.417969 312.597656 235.402344 314.5 230.1875 C 316.398438 224.96875 317.835938 219.625 318.808594 214.15625 C 319.78125 208.6875 320.273438 203.179688 320.289062 197.625 L 320.289062 123.488281 C 320.316406 122.785156 320.269531 122.082031 320.148438 121.386719 C 320.023438 120.691406 319.828125 120.015625 319.558594 119.363281 C 319.289062 118.710938 318.949219 118.09375 318.546875 117.515625 C 318.140625 116.9375 317.679688 116.40625 317.160156 115.929688 C 316.640625 115.449219 316.074219 115.03125 315.464844 114.675781 C 314.855469 114.320312 314.210938 114.035156 313.539062 113.820312 C 312.867188 113.605469 312.179688 113.464844 311.476562 113.398438 C 310.773438 113.332031 310.070312 113.34375 309.367188 113.433594 Z M 309.367188 113.433594 " fill-opacity="1" fill-rule="nonzero"/><path fill="#000000" d="M 68.355469 342.894531 L 120.953125 342.894531 C 121.972656 342.894531 122.980469 342.996094 123.980469 343.195312 C 124.976562 343.390625 125.949219 343.6875 126.890625 344.078125 C 127.828125 344.464844 128.722656 344.945312 129.570312 345.511719 C 130.417969 346.078125 131.203125 346.71875 131.921875 347.441406 C 132.640625 348.160156 133.285156 348.945312 133.851562 349.792969 C 134.417969 350.640625 134.894531 351.535156 135.285156 352.476562 C 135.675781 353.417969 135.96875 354.386719 136.167969 355.386719 C 136.367188 356.386719 136.464844 357.394531 136.464844 358.414062 L 136.464844 359.480469 C 136.464844 360.5 136.367188 361.507812 136.167969 362.507812 C 135.96875 363.507812 135.675781 364.476562 135.285156 365.417969 C 134.894531 366.359375 134.417969 367.253906 133.851562 368.101562 C 133.285156 368.949219 132.640625 369.734375 131.921875 370.453125 C 131.203125 371.175781 130.417969 371.816406 129.570312 372.382812 C 128.722656 372.949219 127.828125 373.429688 126.890625 373.820312 C 125.949219 374.207031 124.976562 374.503906 123.980469 374.703125 C 122.980469 374.902344 121.972656 375 120.953125 375 L 68.355469 375 C 67.335938 375 66.328125 374.902344 65.328125 374.703125 C 64.332031 374.503906 63.359375 374.207031 62.417969 373.820312 C 61.476562 373.429688 60.585938 372.949219 59.738281 372.382812 C 58.890625 371.816406 58.105469 371.175781 57.386719 370.453125 C 56.667969 369.734375 56.023438 368.949219 55.457031 368.101562 C 54.890625 367.253906 54.414062 366.359375 54.023438 365.417969 C 53.632812 364.476562 53.339844 363.507812 53.140625 362.507812 C 52.941406 361.507812 52.84375 360.5 52.84375 359.480469 L 52.84375 358.414062 C 52.84375 357.394531 52.941406 356.386719 53.140625 355.386719 C 53.339844 354.386719 53.632812 353.417969 54.023438 352.476562 C 54.414062 351.535156 54.890625 350.640625 55.457031 349.792969 C 56.023438 348.945312 56.667969 348.160156 57.386719 347.441406 C 58.105469 346.71875 58.890625 346.078125 59.738281 345.511719 C 60.585938 344.945312 61.476562 344.464844 62.417969 344.078125 C 63.359375 343.6875 64.332031 343.390625 65.328125 343.195312 C 66.328125 342.996094 67.335938 342.894531 68.355469 342.894531 Z M 68.355469 342.894531 " fill-opacity="1" fill-rule="nonzero"/><path fill="#000000" d="M 64.359375 310.65625 L 64.359375 329.574219 L 124.28125 329.574219 L 124.28125 312.390625 C 124.351562 306.164062 123.894531 299.976562 122.90625 293.828125 C 121.917969 287.683594 120.414062 281.664062 118.394531 275.773438 C 116.375 269.882812 113.871094 264.210938 110.878906 258.75 C 107.886719 253.289062 104.453125 248.121094 100.578125 243.25 L 84.601562 223.269531 C 82.136719 221.734375 73.214844 216.609375 67.691406 220.605469 C 67.253906 220.957031 66.851562 221.34375 66.484375 221.761719 C 66.113281 222.183594 65.78125 222.632812 65.488281 223.109375 C 65.195312 223.585938 64.945312 224.085938 64.738281 224.605469 C 64.527344 225.125 64.367188 225.65625 64.25 226.207031 C 64.132812 226.753906 64.0625 227.308594 64.039062 227.867188 C 64.015625 228.425781 64.039062 228.984375 64.113281 229.539062 C 64.183594 230.09375 64.300781 230.640625 64.464844 231.175781 C 64.632812 231.710938 64.839844 232.226562 65.09375 232.726562 L 78.410156 253.175781 C 78.671875 253.523438 78.894531 253.898438 79.085938 254.292969 C 79.273438 254.683594 79.421875 255.09375 79.53125 255.519531 C 79.636719 255.941406 79.703125 256.371094 79.726562 256.808594 C 79.75 257.246094 79.730469 257.679688 79.667969 258.113281 C 79.609375 258.542969 79.503906 258.964844 79.359375 259.378906 C 79.214844 259.792969 79.03125 260.183594 78.808594 260.5625 C 78.585938 260.9375 78.328125 261.289062 78.035156 261.613281 C 77.746094 261.9375 77.421875 262.234375 77.074219 262.496094 C 76.722656 262.757812 76.351562 262.984375 75.957031 263.171875 C 75.566406 263.363281 75.15625 263.511719 74.734375 263.617188 C 74.308594 263.726562 73.878906 263.792969 73.445312 263.816406 C 73.007812 263.839844 72.574219 263.824219 72.140625 263.761719 C 71.707031 263.699219 71.285156 263.597656 70.875 263.453125 C 70.460938 263.304688 70.066406 263.121094 69.691406 262.902344 C 69.316406 262.679688 68.964844 262.421875 68.636719 262.128906 C 68.3125 261.835938 68.019531 261.515625 67.757812 261.167969 L 40.394531 229.394531 C 38.242188 226.917969 36.332031 224.269531 34.660156 221.445312 C 32.988281 218.621094 31.582031 215.671875 30.445312 212.59375 C 29.308594 209.515625 28.457031 206.363281 27.890625 203.128906 C 27.324219 199.898438 27.054688 196.640625 27.078125 193.363281 L 27.34375 125.753906 C 27.34375 115.695312 15.824219 113.433594 11.496094 113.433594 C 10.800781 113.355469 10.101562 113.351562 9.402344 113.425781 C 8.703125 113.5 8.019531 113.648438 7.351562 113.871094 C 6.683594 114.09375 6.050781 114.382812 5.445312 114.742188 C 4.839844 115.105469 4.28125 115.523438 3.769531 116.003906 C 3.257812 116.488281 2.800781 117.015625 2.40625 117.597656 C 2.007812 118.175781 1.675781 118.792969 1.414062 119.445312 C 1.148438 120.097656 0.957031 120.769531 0.839844 121.464844 C 0.722656 122.15625 0.679688 122.855469 0.710938 123.558594 L 0.710938 197.625 C 0.722656 203.175781 1.210938 208.683594 2.175781 214.152344 C 3.144531 219.617188 4.574219 224.960938 6.46875 230.179688 C 8.367188 235.398438 10.699219 240.414062 13.464844 245.226562 C 16.230469 250.035156 19.394531 254.574219 22.949219 258.835938 L 62.894531 306.394531 C 63.894531 307.640625 64.382812 309.0625 64.359375 310.65625 Z M 64.359375 310.65625 " fill-opacity="1" fill-rule="nonzero"/><path fill="#000000" d="M 240.394531 10.191406 C 237.582031 8.234375 234.589844 6.605469 231.417969 5.304688 C 228.25 4.007812 224.972656 3.070312 221.597656 2.496094 C 218.21875 1.921875 214.820312 1.71875 211.398438 1.894531 C 207.976562 2.070312 204.613281 2.613281 201.3125 3.53125 C 197.824219 4.261719 194.4375 5.324219 191.152344 6.707031 C 187.871094 8.09375 184.746094 9.777344 181.785156 11.765625 C 178.824219 13.75 176.082031 16 173.554688 18.515625 C 171.027344 21.027344 168.761719 23.761719 166.757812 26.710938 C 166.480469 27.253906 166.132812 27.753906 165.714844 28.203125 C 165.296875 28.652344 164.828125 29.035156 164.304688 29.355469 C 163.78125 29.675781 163.226562 29.917969 162.636719 30.085938 C 162.046875 30.25 161.445312 30.332031 160.832031 30.332031 C 160.21875 30.332031 159.617188 30.25 159.027344 30.085938 C 158.441406 29.917969 157.882812 29.675781 157.359375 29.355469 C 156.835938 29.035156 156.367188 28.652344 155.953125 28.203125 C 155.535156 27.753906 155.1875 27.253906 154.90625 26.710938 C 152.90625 23.761719 150.640625 21.027344 148.113281 18.515625 C 145.582031 16 142.839844 13.75 139.878906 11.765625 C 136.917969 9.777344 133.796875 8.09375 130.511719 6.707031 C 127.226562 5.324219 123.839844 4.261719 120.351562 3.53125 C 115.980469 2.445312 111.542969 1.890625 107.039062 1.863281 C 102.402344 1.800781 97.875 2.46875 93.457031 3.871094 C 89.039062 5.269531 84.957031 7.332031 81.207031 10.058594 C 79.445312 11.363281 77.777344 12.78125 76.207031 14.3125 C 74.632812 15.839844 73.171875 17.46875 71.816406 19.191406 C 70.460938 20.917969 69.226562 22.722656 68.113281 24.613281 C 66.996094 26.5 66.015625 28.457031 65.160156 30.476562 C 64.304688 32.496094 63.589844 34.5625 63.011719 36.679688 C 62.433594 38.796875 62 40.941406 61.707031 43.113281 C 61.414062 45.289062 61.265625 47.472656 61.265625 49.664062 C 61.265625 51.859375 61.40625 54.042969 61.699219 56.214844 C 65.027344 99.777344 107.238281 152.464844 160.5 180.039062 C 213.761719 152.464844 255.972656 100.109375 259.570312 56.351562 C 259.867188 54.183594 260.023438 52.007812 260.03125 49.820312 C 260.039062 47.632812 259.90625 45.453125 259.625 43.285156 C 259.34375 41.117188 258.921875 38.972656 258.359375 36.863281 C 257.792969 34.75 257.09375 32.683594 256.253906 30.664062 C 255.414062 28.644531 254.445312 26.6875 253.347656 24.796875 C 252.25 22.90625 251.03125 21.097656 249.691406 19.367188 C 248.351562 17.636719 246.902344 16.007812 245.347656 14.46875 C 243.789062 12.933594 242.140625 11.507812 240.394531 10.191406 Z M 240.394531 10.191406 " fill-opacity="1" fill-rule="nonzero"/></svg>