<?xml version="1.0" standalone="no"?>
<!DOCTYPE svg PUBLIC "-//W3C//DTD SVG 20010904//EN"
 "http://www.w3.org/TR/2001/REC-SVG-20010904/DTD/svg10.dtd">
<svg version="1.0" xmlns="http://www.w3.org/2000/svg"
 width="1110.000000pt" height="173.000000pt" viewBox="0 0 1110.000000 173.000000"
 preserveAspectRatio="xMidYMid meet">

<g transform="translate(0.000000,173.000000) scale(0.100000,-0.100000)"
fill="#000000" stroke="none">
<path d="M7823 1484 c-71 -82 -71 -81 1 -79 62 2 65 3 140 64 42 34 76 64 76
67 0 2 -38 4 -84 4 l-85 0 -48 -56z"/>
<path d="M2891 1349 c-116 -46 -185 -154 -183 -286 4 -201 198 -334 410 -279
63 16 149 65 159 92 3 8 -19 36 -54 68 l-58 54 -25 -23 c-105 -99 -256 -20
-234 123 5 34 16 56 40 80 28 28 38 32 88 32 48 0 60 -4 91 -31 l35 -31 48 41
c77 64 79 67 51 97 -13 14 -46 38 -74 52 -71 37 -215 42 -294 11z"/>
<path d="M3980 1361 c-133 -41 -220 -156 -220 -290 0 -86 25 -147 85 -207 101
-101 275 -121 433 -49 l52 24 0 125 0 126 -85 0 -85 0 0 -74 c0 -68 -2 -74
-22 -80 -66 -17 -138 11 -165 64 -17 34 -16 115 2 150 38 74 159 84 230 20 20
-18 22 -17 84 39 l65 58 -50 36 c-27 21 -71 44 -98 52 -52 16 -183 19 -226 6z"/>
<path d="M7714 1349 c-121 -46 -188 -146 -188 -279 -1 -125 57 -215 173 -269
47 -22 70 -26 146 -26 76 0 99 4 145 26 74 35 110 67 144 129 37 68 45 154 22
234 -23 78 -97 155 -179 185 -76 28 -191 28 -263 0z m188 -151 c47 -17 71 -69
66 -139 -6 -77 -42 -119 -109 -126 -87 -8 -145 57 -137 154 5 61 41 108 93
122 31 8 39 7 87 -11z"/>
<path d="M3411 1076 c2 -328 -11 -296 122 -296 l77 0 0 290 0 290 -101 0 -100
0 2 -284z"/>
<path d="M4820 1073 l0 -289 95 -1 c61 0 96 4 97 11 0 6 2 37 2 69 l1 58 82 4
c128 6 206 48 244 130 47 103 3 226 -98 276 -44 21 -63 24 -235 27 l-188 4 0
-289z m318 121 c27 -18 30 -69 5 -96 -12 -13 -30 -18 -70 -18 l-53 0 -1 45
c-1 25 -2 51 -3 58 -1 6 -1 15 1 20 7 13 98 7 121 -9z"/>
<path d="M5590 1318 c-128 -290 -221 -505 -223 -518 -2 -12 14 -15 92 -17 l93
-2 21 50 21 49 92 0 c51 0 99 3 107 6 11 4 20 -9 35 -48 l20 -53 101 -1 c55
-1 101 2 100 5 0 3 -55 132 -123 286 l-123 280 -97 3 -97 3 -19 -43z m150
-288 c-6 -3 -27 -6 -48 -5 -42 2 -42 3 -10 84 l22 54 23 -63 c16 -42 20 -65
13 -70z"/>
<path d="M6120 1076 c0 -225 3 -285 13 -289 11 -4 147 -3 169 2 4 0 9 57 10
126 l3 126 107 -129 107 -130 81 0 80 0 0 289 0 289 -95 0 -94 0 -3 -127 -3
-127 -105 127 -105 127 -82 0 -83 0 0 -284z"/>
<path d="M6850 1071 l0 -289 85 0 c46 1 89 4 94 8 6 3 12 58 13 125 l3 119 99
-120 c55 -65 105 -122 110 -127 18 -12 155 -4 161 10 2 7 4 137 4 288 l0 275
-99 0 -99 0 -3 -124 -3 -125 -103 125 -103 124 -80 0 -79 0 0 -289z"/>
<path d="M8282 1073 l3 -288 90 0 90 0 5 125 5 124 100 -121 c55 -67 108 -123
117 -126 10 -3 48 -4 85 -4 l68 2 3 288 3 288 -97 -3 -98 -3 0 -122 c-1 -68
-3 -123 -6 -122 -3 0 -52 56 -109 125 l-103 124 -79 0 -79 0 2 -287z"/>
<path d="M9000 1076 c0 -222 3 -285 13 -289 16 -6 157 -6 175 1 9 3 12 70 12
288 l0 284 -100 0 -100 0 0 -284z"/>
<path d="M9512 1343 c-12 -24 -242 -550 -242 -555 0 -7 176 -8 187 0 7 4 20
27 30 50 l18 43 108 2 107 2 21 -53 22 -53 98 2 c55 1 99 5 98 8 0 3 -55 132
-123 286 l-123 280 -96 3 c-84 2 -97 0 -105 -15z m147 -308 c1 -5 -22 -10 -49
-11 -28 0 -50 1 -50 2 0 2 12 34 27 71 l27 67 22 -60 c13 -32 23 -63 23 -69z"/>
</g>
</svg>
