<svg xmlns="http://www.w3.org/2000/svg" width="500" viewBox="0 0 375 245.999995" height="328" preserveAspectRatio="xMidYMid meet" version="1.0"><path fill="#100f0d" d="M 80.402344 128.597656 L 80.402344 191.359375 C 80.414062 209.894531 124.644531 230.546875 188.101562 230.546875 C 251.558594 230.546875 295.789062 209.894531 295.800781 191.355469 L 295.800781 118.675781 L 176.503906 171.742188 L 80.402344 128.597656 " fill-opacity="1" fill-rule="nonzero"/><path fill="#100f0d" d="M 215.078125 85.847656 C 212.4375 85.847656 210.304688 83.714844 210.304688 81.078125 C 210.304688 78.441406 212.4375 76.308594 215.078125 76.308594 L 336.25 76.308594 C 335.675781 77.207031 335.332031 78.269531 335.332031 79.421875 L 335.332031 85.847656 Z M 374.953125 226.753906 C 369.808594 183.910156 353.074219 163.84375 346.972656 157.816406 L 346.972656 79.421875 C 346.972656 78.269531 346.625 77.207031 346.050781 76.308594 L 346.054688 76.308594 L 346.050781 76.304688 C 345.015625 74.683594 343.214844 73.601562 341.148438 73.601562 C 340.839844 73.601562 340.539062 73.648438 340.238281 73.695312 L 176.339844 0.113281 L 0.0078125 78.558594 L 176.527344 157.804688 L 335.332031 87.160156 L 335.332031 157.816406 C 329.226562 163.84375 312.492188 183.910156 307.347656 226.753906 C 307.328125 226.917969 307.316406 227.085938 307.3125 227.25 C 307.28125 228.128906 307.355469 232.738281 311.714844 237.242188 C 317.261719 242.980469 327.167969 245.886719 341.148438 245.886719 C 355.132812 245.886719 365.035156 242.980469 370.585938 237.246094 C 374.945312 232.738281 375.019531 228.128906 374.988281 227.25 C 374.984375 227.085938 374.96875 226.917969 374.953125 226.753906 " fill-opacity="1" fill-rule="nonzero"/></svg>