<?xml version="1.0" standalone="no"?>
<!DOCTYPE svg PUBLIC "-//W3C//DTD SVG 20010904//EN"
 "http://www.w3.org/TR/2001/REC-SVG-20010904/DTD/svg10.dtd">
<svg version="1.0" xmlns="http://www.w3.org/2000/svg"
 width="866.000000pt" height="650.000000pt" viewBox="0 0 866.000000 650.000000"
 preserveAspectRatio="xMidYMid meet">

<g transform="translate(0.000000,650.000000) scale(0.100000,-0.100000)"
fill="#000000" stroke="none">
<path d="M2965 5660 c-180 -37 -271 -119 -434 -391 -58 -96 -125 -200 -149
-233 -59 -76 -74 -120 -60 -172 5 -21 13 -73 18 -115 9 -88 26 -120 77 -144
61 -29 138 -17 216 33 68 45 119 65 143 55 16 -6 19 -55 4 -83 -14 -25 -80
-48 -180 -60 -51 -7 -106 -21 -137 -36 -50 -24 -53 -28 -53 -63 0 -26 9 -51
30 -80 l31 -42 -52 -91 c-29 -49 -58 -92 -64 -95 -7 -2 -50 19 -95 47 -46 27
-102 55 -124 61 -57 16 -167 8 -197 -14 -13 -10 -39 -29 -58 -42 -19 -14 -52
-30 -75 -35 -73 -18 -124 -50 -156 -98 -36 -55 -39 -110 -10 -203 10 -35 17
-65 15 -67 -2 -3 -71 -23 -152 -47 l-148 -42 -3 -777 -2 -776 2980 0 2980 0 0
150 0 150 -521 0 c-401 0 -520 3 -517 12 3 7 49 31 103 55 54 23 111 54 126
69 50 48 54 76 51 352 -1 138 0 252 3 252 4 0 26 -44 51 -97 145 -318 234
-418 391 -443 55 -9 254 4 280 19 8 4 -7 31 -48 81 -33 41 -78 108 -100 147
-22 40 -54 84 -70 97 -38 33 -126 50 -221 43 l-76 -5 -48 117 c-26 64 -83 204
-126 311 -89 217 -137 315 -221 440 -169 255 -364 385 -653 434 -90 16 -602
59 -839 71 -66 3 -135 8 -152 11 l-33 5 0 64 0 64 498 4 c534 4 539 4 648 58
58 29 141 111 184 183 32 53 34 54 89 61 191 23 281 75 382 221 54 78 53 77
162 89 204 23 358 144 436 343 l21 52 -1516 0 c-1693 0 -1599 4 -1712 -69 -57
-38 -103 -91 -156 -183 -16 -27 -31 -48 -35 -48 -4 0 -22 26 -41 58 -76 127
-138 197 -220 247 -137 84 -329 123 -465 95z m91 -126 c-86 -59 -140 -80 -204
-83 -73 -2 -78 8 -23 45 54 35 145 63 211 63 l55 1 -39 -26z m221 -132 c-7
-82 -37 -134 -107 -189 -66 -51 -62 -37 -45 -147 5 -32 3 -36 -28 -51 -90 -42
-112 -109 -83 -249 21 -104 20 -161 -4 -211 -43 -88 -204 -165 -348 -165 -62
0 -123 17 -137 40 -12 19 0 22 106 32 164 15 246 56 270 138 25 83 -30 210
-97 223 -41 8 -99 -10 -207 -63 -55 -28 -106 -50 -113 -50 -22 0 -16 31 12 72
l27 38 -44 38 -43 39 46 64 c25 35 60 72 77 82 l31 18 30 -33 c17 -18 30 -36
30 -40 0 -13 39 -19 59 -9 25 14 64 78 58 95 -6 14 -22 19 -104 31 -42 7 -43
7 -43 46 0 87 51 115 227 125 65 4 132 12 149 19 16 7 70 39 120 71 77 50 150
92 163 94 2 0 1 -26 -2 -58z m2653 24 c0 -29 -87 -94 -157 -118 -67 -22 -73
-23 -669 -26 l-602 -3 -21 -55 c-11 -31 -21 -58 -21 -60 0 -2 216 -4 480 -4
401 0 480 -2 480 -14 0 -22 -73 -91 -121 -114 -109 -53 -138 -56 -549 -60
l-385 -3 -17 -42 c-10 -23 -20 -50 -24 -59 -6 -17 13 -18 300 -18 243 0 306
-3 306 -13 0 -18 -78 -91 -120 -113 -70 -36 -141 -45 -373 -51 l-227 -6 -19
-31 c-11 -17 -23 -43 -26 -58 l-7 -28 190 0 c105 0 197 -3 206 -6 12 -5 16
-20 16 -59 0 -69 -29 -113 -93 -139 l-47 -20 -81 24 -81 23 -36 -37 -37 -37
24 -18 c46 -35 122 -56 207 -56 74 0 85 3 133 33 49 30 59 32 139 32 98 0 759
-47 772 -55 4 -3 40 -53 80 -111 166 -244 303 -331 575 -364 182 -22 190 -25
226 -81 17 -27 42 -75 55 -107 23 -57 24 -59 24 -474 l0 -418 -22 -14 c-40
-25 -285 -126 -400 -164 -124 -41 -113 -44 -150 43 -35 83 -14 150 56 179 18
7 77 21 132 30 54 9 120 24 147 32 l47 16 0 63 c0 156 -39 308 -92 357 -40 37
-80 47 -243 58 -77 6 -180 18 -230 26 -160 29 -386 114 -526 200 -32 19 -91
47 -131 62 -66 23 -87 26 -208 26 -152 0 -225 -14 -490 -99 -230 -73 -289 -85
-486 -100 -102 -8 -189 -17 -194 -20 -5 -3 -19 -31 -32 -63 -22 -54 -23 -70
-23 -292 -1 -203 -3 -239 -18 -267 -9 -18 -17 -38 -17 -45 0 -7 -5 -30 -11
-51 -14 -51 -57 -77 -129 -77 -90 -1 -135 -14 -179 -52 -66 -56 -181 -78 -213
-40 -22 24 -39 104 -32 144 16 80 58 110 175 123 80 9 113 32 138 99 19 51 20
75 19 313 -1 172 3 272 11 300 13 46 33 65 131 122 39 23 77 55 95 81 28 39
30 48 30 133 0 51 -3 108 -8 128 -7 34 -6 36 42 68 102 66 160 175 161 302 0
92 -29 159 -96 218 -24 21 -44 45 -44 54 0 36 104 410 166 596 59 179 130 243
289 264 17 2 436 5 933 6 759 1 902 -1 902 -13z m970 4 c0 -21 -65 -81 -114
-104 -86 -41 -156 -47 -494 -44 l-313 3 45 58 c25 32 48 67 51 78 6 18 19 19
416 19 256 0 409 -4 409 -10z m-3420 -69 c154 -154 166 -357 45 -723 -19 -59
-35 -113 -35 -120 0 -7 29 -34 64 -59 112 -82 143 -187 81 -280 -43 -66 -166
-130 -274 -145 -28 -4 -51 -10 -51 -14 0 -5 31 -31 70 -59 84 -61 104 -95 97
-165 -6 -68 -41 -99 -127 -114 -35 -7 -64 -13 -65 -14 -1 -2 -17 -39 -35 -83
-17 -44 -44 -95 -57 -114 -26 -34 -82 -64 -140 -75 l-33 -6 0 158 c0 86 -4
163 -9 171 -11 17 -32 4 -80 -51 -36 -41 -104 -78 -144 -78 -23 0 -26 5 -32
48 -4 26 -8 51 -9 56 -1 4 -76 27 -166 51 -91 23 -226 58 -300 78 -227 60
-250 63 -334 33 -39 -13 -88 -27 -109 -30 -34 -4 -40 -2 -58 27 -32 52 -42
103 -27 135 18 36 53 51 129 55 63 4 64 4 87 45 26 47 51 57 112 49 88 -12
182 -84 266 -203 21 -31 51 -70 66 -88 l27 -31 25 30 c39 47 40 61 7 125 l-31
59 29 53 c15 29 46 82 69 117 23 35 42 67 42 71 0 4 46 10 103 14 198 13 286
44 375 133 93 93 107 153 76 337 -20 120 -16 142 34 155 20 6 52 11 70 11 37
0 40 11 19 101 -16 67 -10 87 43 145 46 51 75 104 90 170 17 70 18 74 30 74 6
0 33 -22 60 -49z m2823 -210 l88 -6 -28 -38 c-36 -48 -101 -92 -167 -114 -43
-14 -108 -17 -395 -21 -308 -3 -343 -2 -338 12 3 8 31 52 62 96 l57 80 316 -1
c174 -1 357 -4 405 -8z m-403 -311 c0 -19 -74 -92 -114 -112 -90 -46 -125 -50
-473 -55 -183 -3 -333 -2 -333 2 0 5 24 45 53 91 l52 83 408 1 c264 0 407 -3
407 -10z m-63 -656 c97 -32 200 -95 278 -171 65 -63 122 -139 112 -149 -7 -7
-168 22 -232 43 -125 40 -206 102 -302 230 -29 40 -53 75 -53 78 0 13 125 -7
197 -31z m-3498 -499 c102 -29 212 -59 244 -66 l59 -13 -7 -515 c-4 -284 -9
-518 -11 -520 -2 -3 -66 13 -142 33 -225 63 -404 106 -437 106 -31 0 -148 -30
-360 -92 -66 -20 -141 -39 -167 -42 l-48 -7 0 519 0 519 53 15 c28 8 115 34
192 56 187 55 284 72 369 66 38 -3 153 -29 255 -59z m561 -207 c0 -7 -7 -53
-15 -103 -8 -49 -15 -93 -15 -97 0 -15 166 -8 243 11 l77 18 0 -212 0 -212
-73 -12 c-132 -21 -210 -73 -238 -158 -8 -25 -10 -72 -6 -150 l6 -113 -28 0
c-16 0 -43 3 -60 6 l-31 7 2 495 3 495 60 17 c77 22 75 22 75 8z m2037 -12
c112 -30 121 -40 218 -237 54 -109 89 -195 92 -222 5 -41 2 -47 -56 -120 -57
-71 -309 -345 -378 -410 l-30 -28 -236 7 -236 7 -6 39 c-10 54 11 131 43 161
49 46 96 51 246 26 125 -21 134 -21 166 -5 42 21 166 168 197 233 26 55 29
109 9 158 -8 19 -47 80 -87 136 -75 104 -152 246 -143 261 8 13 144 9 201 -6z
m-313 -63 c10 -21 67 -117 127 -214 60 -97 109 -186 109 -196 0 -26 -45 -87
-108 -145 -58 -54 -72 -57 -179 -32 -195 46 -348 -35 -381 -201 -7 -32 -12
-83 -12 -113 l0 -55 -142 6 c-79 4 -231 7 -338 7 l-195 1 40 21 c78 40 99 72
118 176 12 66 12 67 57 83 51 20 51 21 12 99 -26 52 -27 62 -27 200 0 92 5
158 13 181 l13 36 102 7 c146 10 275 38 471 100 216 69 234 74 272 75 26 1 33
-5 48 -36z m795 -152 c165 -42 258 -59 406 -76 72 -8 156 -20 189 -27 53 -10
60 -14 73 -45 8 -19 15 -73 16 -121 l2 -87 -100 -23 c-186 -43 -239 -74 -271
-159 -18 -47 -17 -66 12 -230 l6 -33 -386 0 c-345 0 -386 2 -386 16 0 9 48 66
108 127 212 220 292 326 292 385 0 19 -22 86 -49 150 -65 154 -68 167 -46 158
10 -3 70 -19 134 -35z"/>
<path d="M1915 3533 c-94 -20 -226 -57 -266 -74 l-49 -21 0 -58 0 -58 183 46
c100 25 188 49 195 55 7 5 12 32 12 63 0 53 -1 54 -27 53 -16 -1 -37 -3 -48
-6z"/>
<path d="M2120 3480 l0 -59 43 -11 c53 -14 296 -80 320 -86 15 -5 17 2 17 59
0 59 -2 65 -22 69 -13 3 -93 24 -179 47 -86 22 -162 41 -168 41 -7 0 -11 -23
-11 -60z"/>
<path d="M2120 3226 l0 -63 98 -28 c112 -32 249 -64 275 -65 16 0 18 8 15 57
l-3 57 -45 13 c-25 7 -111 31 -192 52 l-148 39 0 -62z"/>
<path d="M1805 3240 c-82 -21 -162 -41 -177 -44 -27 -5 -28 -8 -28 -67 l0 -61
43 7 c53 8 306 75 330 87 13 7 17 21 17 63 0 46 -3 55 -17 54 -10 -1 -85 -18
-168 -39z"/>
<path d="M1955 3023 c-75 -16 -240 -58 -292 -75 l-63 -19 0 -59 0 -59 33 5
c83 15 343 87 349 97 10 16 10 117 1 116 -5 -1 -17 -3 -28 -6z"/>
<path d="M2120 2962 l0 -57 168 -43 c92 -23 176 -45 188 -48 19 -5 22 0 28 47
9 63 2 70 -82 94 -114 33 -248 65 -274 65 -27 0 -28 -1 -28 -58z"/>
<path d="M1697 1860 c-198 -34 -338 -238 -339 -495 -1 -128 14 -200 62 -301
72 -151 187 -226 345 -228 70 -1 86 2 127 26 25 15 55 39 65 54 l19 26 62 -52
62 -51 2 243 3 243 63 3 c54 3 62 6 62 22 0 19 -8 20 -210 20 -203 0 -210 -1
-210 -20 0 -18 7 -20 70 -20 l70 0 0 -176 0 -176 -38 -38 c-83 -83 -207 -85
-287 -6 -72 72 -87 133 -93 372 -3 160 -1 217 12 279 30 147 100 234 196 243
139 13 253 -87 315 -275 9 -29 20 -53 24 -53 5 0 11 21 15 46 8 62 8 314 -1
314 -3 0 -30 -16 -58 -36 l-52 -35 -49 31 c-43 26 -141 53 -179 49 -5 -1 -32
-5 -58 -9z"/>
<path d="M2180 1840 c0 -16 8 -19 63 -22 l62 -3 3 -467 2 -468 -70 0 c-68 0
-70 -1 -70 -25 l0 -25 370 0 370 0 0 191 c0 171 -2 190 -16 187 -12 -2 -22
-27 -35 -91 -18 -92 -52 -162 -94 -196 -35 -26 -108 -41 -210 -41 l-85 0 0
225 0 225 56 0 c50 0 60 -4 89 -33 31 -31 65 -114 65 -159 0 -11 7 -18 20 -18
19 0 20 7 20 230 0 219 -1 230 -19 230 -14 0 -20 -10 -25 -43 -14 -90 -75
-147 -158 -147 l-48 0 0 216 0 217 103 -5 c194 -9 261 -71 296 -272 3 -22 12
-41 19 -44 9 -3 12 38 12 177 l0 181 -360 0 c-350 0 -360 -1 -360 -20z"/>
<path d="M2950 1841 c0 -22 18 -31 63 -31 42 -1 113 -33 126 -58 7 -14 11
-150 11 -410 l0 -390 -33 -29 c-19 -16 -55 -35 -80 -43 -35 -9 -47 -18 -47
-31 0 -18 11 -19 180 -19 173 0 180 1 180 20 0 14 -7 20 -22 20 -35 1 -103 35
-122 61 -14 21 -16 65 -16 361 0 186 3 338 8 338 4 0 79 -104 167 -231 344
-497 392 -564 401 -562 5 2 11 197 14 466 4 356 8 468 18 479 18 22 89 38 171
38 l71 0 0 -470 0 -470 -64 0 c-67 0 -80 -7 -70 -34 5 -14 47 -16 369 -16 322
0 364 2 369 16 3 9 6 92 6 185 0 144 -2 171 -15 176 -9 3 -18 4 -20 1 -2 -2
-11 -39 -20 -83 -41 -195 -104 -245 -310 -245 l-85 0 0 225 0 225 56 0 c89 0
132 -47 153 -165 4 -26 12 -41 24 -43 16 -3 17 12 15 229 -2 169 -6 233 -15
236 -7 3 -15 -11 -19 -34 -11 -58 -29 -95 -63 -127 -26 -25 -42 -30 -91 -34
l-60 -4 0 216 0 216 88 0 c97 0 174 -18 216 -51 43 -34 82 -124 100 -231 4
-21 11 -38 16 -38 6 0 10 72 10 180 l0 180 -525 0 c-508 0 -525 -1 -525 -19 0
-20 18 -31 51 -31 33 0 76 -28 88 -57 8 -20 11 -116 9 -318 l-3 -290 -100 147
c-55 81 -163 241 -241 355 l-141 208 -147 3 c-138 2 -146 2 -146 -17z"/>
<path d="M4710 1840 c0 -17 8 -19 68 -22 l67 -3 3 -467 2 -468 -70 0 c-68 0
-70 -1 -70 -25 l0 -25 210 0 210 0 0 25 c0 23 -3 24 -67 27 -38 2 -67 6 -65
11 1 4 2 104 2 222 l0 215 103 0 c185 0 209 -28 217 -256 6 -163 13 -186 67
-221 23 -16 52 -18 202 -18 154 0 176 2 179 16 2 12 -9 19 -42 28 -47 11 -66
33 -66 71 0 25 48 169 62 188 12 13 304 18 324 4 10 -6 104 -237 104 -255 0
-4 -25 -7 -55 -7 -52 0 -55 -1 -55 -25 l0 -25 443 2 442 3 0 178 c0 110 -4
178 -10 180 -5 1 -17 -38 -26 -88 -21 -122 -44 -170 -99 -208 -19 -13 -46 -17
-117 -17 l-93 0 0 465 0 464 73 3 c66 3 72 5 75 26 l3 22 -231 0 -231 0 3 -22
c3 -21 9 -23 71 -26 l67 -3 0 -464 0 -465 -43 0 c-42 0 -43 1 -60 48 -10 26
-92 246 -184 490 -209 558 -185 541 -298 210 -149 -441 -243 -699 -261 -720
-25 -27 -55 -38 -76 -26 -16 8 -18 25 -18 147 0 208 -28 272 -132 307 l-48 16
60 29 c33 17 76 49 95 72 89 104 82 272 -15 348 -64 51 -124 59 -437 59 -274
0 -283 -1 -283 -20z m566 -50 c45 -42 64 -96 64 -185 0 -64 -5 -90 -22 -125
-38 -74 -61 -84 -198 -90 l-119 -5 -3 35 c-2 19 -2 117 0 218 l3 184 124 -4
c116 -3 125 -5 151 -28z m678 -385 c41 -115 74 -211 72 -212 -2 -2 -68 -2
-147 -1 l-145 3 69 213 c38 118 71 212 73 210 2 -2 37 -98 78 -213z"/>
<path d="M6880 1835 c0 -24 2 -25 65 -25 l65 0 0 -465 0 -465 -25 0 c-20 0
-25 -5 -25 -25 l0 -25 173 2 c170 3 172 3 175 26 3 21 0 22 -67 22 l-71 0 0
465 0 465 65 0 c63 0 65 1 65 25 l0 25 -210 0 -210 0 0 -25z"/>
</g>
</svg>
