<svg version="1.2" xmlns="http://www.w3.org/2000/svg" viewBox="0 0 1271 618" width="1314" height="649">
	<title>Mask</title>
	<style>
		tspan { white-space:pre } 
		.s0 { fill: #ed7d31 } 
	</style>
	<path id="Path 420" class="s0" d="m50.8 518c0.2 0.3 0.3 0.6 0.7 1.3 1.1 1.8 1.3 2.1 1.8 2.6 1.4 1.1 2.9 0.2 3.4-1-0.3-0.3-0.3-0.3-2.5-0.1-0.7 0.6-0.6 1.4-0.4 3.3 0.2 2.8 0.3 3.3 0.6 4 0.3 0.8 1.2 1.3 2 1.2 1.9-0.2 2.9-1.4 3.3-3-1.3-0.3-2.2-0.6-2.7-1.1 0 3 0 3.6 0.3 4.2 1.5 1.5 2 3.6 2.7 4.2 1.2 0.8 2.4 0.3 2.9-0.6 0.5-1.5 0.5-1.8 0.6-2.4 0.2-1.4 0.2-1.6 0.2-2.1 2-1.9 2.3-2.6 2.1-2.3 0.2 0.3 0.4-0.3 0.7-1.4 0.2-2 0.2-2 0.2-2.2-1.6-0.8-1.9-1.3-2.1-1.7 0.4 3.2 0.4 3.6 0.5 4.1 0.4 0.9 0.5 1.1 0.6 2 0.4 1.6 0.6 2.1 0.9 3 0.7 2 0.7 2.2 0.8 2.5 0.3 1.6 0.5 2 1.1 2.4 1.8 0.3 1.8 0.3 2.6-0.5 0.7-2.1 0.7-2.3 0.7-2.3-3.2 1.2-3.2 1.2-3.6 0.3-0.2-0.3-0.1 0.5 0 2 0.1 2.1 0.1 2.4 0.1 2.6 1.3 1.9 1.3 1.9 2.3 2 1.9-2.2 1.9-2.4 1.9-2.7 0.1-2.6 0.2-3.2 0.3-3.6 0.7-2.4 1.2-3.7 1.1-3.6 0.6-2 1-4 0.9-3.8-1.4 1.4-2.1 1.4-2.6 1.1 1.3 1.3 2.5 0.9 3.1 0.1 0.7-1.5 0.8-1.7 1-2.3l-1.3-2.4c0.7 2.3 1.8 1.8 2.4 0.8 0.7-2.1 0.8-3 0.8-2.8l-1.6-2.7c1.9 1.6 2.9 0.7 3.3-0.5-1.8-0.2-2.3-0.5-2.6-0.9 1.4 1.4 2.7 1.3 3.4 0.4 0.8-1.1 1.3-2.1 1.4-2.2-1.1 0.6-1.7 0.6-2.3 0.3-0.1 2.9 1.2 3.5 2.3 3 1.2-0.6 1.6-1.5 1.9-2.8 1.7-1.3 1.9-1.5 2.1-1.7 0.5-0.6 1.9-2.2 2.1-2.5 0.9-2.5 1-3 1.1-3.7h-3.4c1.6 2 4.1 1.7 5.5 0.2-2.6-0.8-2.5-0.6-2.6-1 0.7 2.4 1.3 3.2 2.5 3.7-0.2 2.3 0.3 2.8 1 3 2.1 0.7 3.8 0 4.7-1.4 0.5-1.2 0.6-1.8 0.7-2.5 0.2-1.3 0.5-4.5 0.5-4.3-1 1-2 1-2.7 0.4 1.4 1.1 2.2 1 2.8 0.5 1.7-1.3 2-1.6 2.3-2-0.7 1.4-0.6 2.4-0.5 2.6 0.3 2 0.4 2.5 0.4 3.2 0.3 2.6 0.3 3.1 0.5 3.6 1.1 1.5 1.5 2.1 1.7 2.6 1.5 2.1 1.5 2.1 2.9 2 1.5-2.1 1.5-2.3 1.6-2.8l-0.2-3.5c-0.3 2 0 2.1 0.3 2.2-0.3-0.1 2.5 1.3 3.5 1.1 2.1 0.3 2.1 0.3 2.2 0 0.3-1.4 0.4-2 0.4-2.2 0.4-0.8 1-1.6 1.3-2.4l1.1-2.5c-1.2 2.2 0 4-0.6 3.1 0.4 1.1 1.1 2 2.2 2.3 1.2 0.3 2-0.2 2.6-1 0.9-1.4 1.3-2.2 1.5-3l-3.3-0.6c0.5 1.1 1.7 2.7 1.6 2.5 1.2 2.2 2 2.6 3 2.4l-0.3-2.1c1 2.3 2.2 1.5 3 0.1 0.4-0.6 0.6-1.2 0.9-2.1 0.4-1.5 0.5-1.6 0.8-2.5-2.2-0.4-2.2-0.4-3-1.1-0.4-0.7-0.3-0.2-0.3 0.7 0.1 3.3 0.2 4.3 0.4 4.9 0.3 1.1 1.3 1.7 2.4 1.4 2-0.5 2.8-1.8 3.1-3.7 0.1-0.9 0.1-1.3 0.2-2.1l-1.7-2.2c2.1 0.1 2.2-0.6 2.4-1.5 0.2-2 0.3-2.3 0.3-2.2l-3.1 0.8c2.1 1.6 3.9 1.8 5 0 0.6-1.4 0.6-1.6 0.9-3.2 0.6-1.1 1.1-2.2 1.4-3.2l-1.5-2.3c1.4 1.8 1.9 1.1 2.3 0.2 0.4-1.6 0.5-2.4 0.5-2.5-1.7 1.1-1.3 1.4-0.9 1.6-0.7-0.4 3.1 2.5 4.7 1.4 1-1.8 1-2.1 1.1-2.5l-3.2 0.3c1.2 1 2 1.3 3.2 1.4-0.6 3 1.2 3.6 2.3 2.7 1.5-2.2 1.6-2.4 1.6-2.7 1-0.1 1.8-0.5 2.2-1.2 0.2-1-0.5-0.3-1.7-0.7 0.7 0.4 2 1.3 2.4 1.4 2.2 0.5 2.7 0.6 3.3 0.3-1.6-1.1-1.3-0.4-1 0 0.6 0.7 1.6 0.9 2.5 0.4q1.5-0.8 2.3-1.8l-3-1.1c0.9 2.1 1 2.3 1.2 2.6 0.6 0.5 1.5 0.7 2.3 0.3 1.6-1.3 1.2-1.2 0.9-1.3 0 0.5 0.6 1.6 1.1 2.4 0.6 0.9 1.9 1.2 2.8 0.6 1-0.6 1.8-1.5 2.4-2.5 1-2.1 1.3-2.8 1.3-2.8-1.8-0.7-1.8-0.6-1.5 0 1.4 1.9 1.8 2.1 2.4 2.2 1 0 1.9-0.6 2.1-1.6-1.2-0.2-1.2-0.2-0.3-0.4-0.7 0 0.3 0.6 0.7 0.8 1 0.2-0.1 0-0.6-0.7 1.4 2.8 2.8 3.4 4.2 3.1 0.3 2 1.3 2.2 2.3 1.6 1.5-1.8 1.9-2.1 2.2-2.6 0.4-0.6 0.5-1.1 0.6-2.2 0.3-1.6 0.5-2.2 0.6-2.8 0.5-1.6 0.8-2.2 1-2.6l-2.6-0.8c0.8 1.3 1.6 2.3 1.5 2.1q0.1 0.3 0.9 2.7c0.8 2.3 1 2.7 1.1 3 0.2 0.7 0.6 2.2 0.6 2.1 1.2 2 2.6 2 3.5 1.2 0.8-1.6 1-1.9 1.1-2.4-1.7-1.3-1.9-1.6-2.1-1.9 3.3 2.5 4.8 2.2 5.7 1-1.2 0.7-2.2 0.1-2.4-0.4 2.2 1.8 2.9 1.6 3.4 1.2 1.5-1.2 2-2 2.3-3.1 0.5-2.2 0.6-2.7 0.7-2.9 0 0 1.4-1.7 1.6-2.1 0.4-1.2 0.6-1.7 0.8-2.7-0.7 0.8-1.9 1.3-3 0.3-0.2 1.4-0.2 1.6-0.1 2 0.2 2 0.4 2.4 0.8 2.9 0.9 0.9 2.3 0.8 3-0.1 1.8-2.3 2.3-3.3 2.5-5.2 0.1-0.5 0.1-1.1 0.2-2.5 0.1-1.3 0.2-1.9 0.2-2.4l-1.5-2.4c0.9 2.8 2.6 2.2 3.3 0.5 1.8-0.7 2.2-1 2.6-1.5 0.5-2.1 0.5-2.2 0.5-2.4l-2.6 0.9c2.9 1.3 3.4 1.5 4.2 1.3 0.7 0.5 2.1-0.3 3.1-1.7l-1.1-2.1c-0.8 2.7-0.7 2.8-0.6 3 0.7 1.2 1.4 2.3 1.9 3 0.6 0.7 1.6 1 2.5 0.5-2.4-2.2-1.5 1-0.4 1.4 1.1 0.4 2.2-0.1 2.6-1.1-1.5-0.1-1.2 0.1-0.9 0.2 0.4 0.2 3.1 1.7 4.1 1.4 2-3.1 2.1-3.4 2.3-4.1l-1.5-2.5c-1.3 1.9-0.1 3.8-0.1 3.7 2.2 2.3 3.2 1.9 3.9 1.2-1.5 0.6-1.1 0.6-0.7 0.4 1.9 0 2.5-0.3 2.9-0.7 1.2-1.3 1.3-1.4 2.3-1.9-2-1.8-1.4-0.1-0.9 0.4 1 0.8 2.6 0.5 3.1-0.7 1.7-2 1.8-2.2 1.8-2.4 0.4-1.8 0.6-2.3 0.6-2.3l-2.8 0.6c1.5 1 3 1.2 4.1 0.6 1-1 1.7-2.6 1.8-2.8-0.4 0.5-1.2 0.9-2.1 0.5 1.7 0.6 2.6 0.7 3.5 0.3l-2.5-0.9c0.6 1.5 0.9 2.3 1 2.5 2.8 1.7 3.7 1.7 4.5 1.4v-2c-0.9 2.4 0.2 2.8 1.4 2.6-1.2 1.4-1.1 1.7-0.7 2 1.1 1.1 2.9 0.6 3.3-0.9 0.4-1.6 0.8-3.9 0.8-3.8-2.1 0.9-1.7 1.2-1.5 1.3 0.6 0.4 1.2 0.6 2 0.2 1.6-3.3 2.1-6.5 2-6.2 0.9-1.5 1.4-1.9 1.8-2.3-0.2 0.4 0.8 0.2 1.8-0.4 2.2 0.6 2.6 0.7 2.9 0.6 2.8 1 3.7 0.6 4.2-0.2 0.5-0.9 1-2.5 0.8-2.2 2.8 0.3 4.3-0.7 5-2.1 0.6-2 0.5-1.8 0.4-1.7-0.7 1.5-0.4 3.4-0.3 3.6 2.6 2.1 4 2.3 5.1 1.6 1-1.6 1.5-2.9 1.5-3 3.5-0.2 3.7-0.2 4.2-0.4 1.8-2.1 2.4-3.6 2.2-3.3l-3 0.1c1.3 1.6 2.2 2.2 3.4 2-0.5 0.4 0.9 0.3 1.7-0.7 0.9-2.3 0.7-1.6 0.5-1.2l-2.9 0.3c0.9 0.7 2.1 0.7 3 0.2 1.4-1.4 1.7-2 1.6-1.9v-2.4c-0.2 2.4 0 2.8 0.1 3.8 0.3 2.3 0.4 2.6 0.5 3 0.5 1.4 2.2 1.8 3.2 0.9-0.1 2.1 1.2 2.8 2.3 2.4-1.2-1.4 0.1 0.8 1.7 0.5 1.6-1.3 1.7-1.5 1.8-2.1l-1.7-2.2c2 0.3 2.1 0.2 2 0.3-0.7 0.9-2 0.8-2.7 0.2 0.9 0.6 1.5 0.7 2 0.6 2 1.2 2 1.2 2.8 0.5 0.7-2.2 0.7-2.3 0.7-2.4-2 1.5-2 1.5-3.3 0.8 0.1 2.3 0.7 2.8 1.3 3 2 0.5 3 0.6 3.9-0.2-1.5 0.5-2.1 0.2-2.3-0.2 0.3 1.4 0.3 1.7 0.5 2 1.8 1.3 3 2.5 3.5 2.6 0.9 0.1 1.8-0.4 2.2-1.2 0.5-1.7 0.6-2 0.6-2.4h-2.4c1.8 0.9 3.4 0.3 4.1-1.3l-3.4-0.2c0.7 1.7 0.7 1.9 0.7 2.3 0.3 2.1 0.5 2.6 1.2 3.1 0.8 0.5 1.9 0.4 2.6-0.4 1.6-1.8 1.8-2 2-2.5-2.2 0.4-2.6 0.1-2.9-0.4 1.6 3 2.7 4.3 4.6 3.1 1.1-1.8 1.1-2 1.1-2-1.6 0.8-1.2 0.8-0.8 0.7 1.5-1.6 1.6-1.8 1.7-2.9l-2.5 0.4c3.9 1.4 3.2 1.2 4.3 0 0.6-1.2 0.8-1.7 1-2.2l2.1-0.8q1.1-1.7 1.8-3.1c1.5-3.2 1.6-3.6 1.8-4.3 0.3-1.6 0.4-2 0.3-1.9 2.1-0.6 2.2-0.8 2.2-1 0.4-1.6 0.8-3.8 0.8-3.9 0.2-0.3 1.4-2.6 1.6-3-1.5 0.3-2.4-0.3-2.8-1 0.9 2.1 1.4 2.5 2.3 2.5 2-1.3 1.9-1.2 1.8-1.1 1.2-0.8 0.7-0.6 1.3-0.8 0.7 0.8 1.8 0.9 2.6 0.3 1-0.7 2.9-1.9 3.1-2.2-2-0.1-2.1-0.2-2.2-0.4-0.6-1.6 0.3 1.1 1.1 1.6 1.1 0.5 2.4 0 2.8-1.1 1.1-2 1.2-2.2 1.3-2.2l-2.5-0.4c1.2 1.3 2.9 0.9 3.7-0.4 0.5-1.7 0.5-2.1 0.5-2.2l-1.5-2.5c0 2.1 1.3 2.6 1.3 2.5 1.1 0.4 2.1 0.4 2.9-0.8 0.6-2.1 0.5-2 1.5-3l-2.3 0.5c1.1 0.5 1.5 0.6 2.8 0.8 0.1 2.6 2 2.8 2.9 1.6-0.8 0.2-0.1 0.2 0.6-0.1 1.4-1.6 1.9-2.6 2.2-3.6l-1.5-2.2c-0.1 2 0.2 2.1 0.4 2.2 2.4 1 3.1 0.8 3.6 0.3 2-1.5 2.2-1.9 2.6-2.8l-1.2-2.2c1.1 1.8 3.1 1.2 3.5 1.1 1.1-0.5 1.9-1 2.5-1.6 0.7-0.7 2-2.5 1.4-1.7l-3.4-0.4c1.2 2.4 2.4 3.5 4.2 2.2l-2.1 0.1c1.8 0.5 1.8 0.5 2.5 0.6 1.5 1.7 1.7 1.9 1.9 2 2.7 0.5 3.4-0.1 3.5-0.9 0.2-0.6 0.5-2 0.6-2.2 0.4-2 0.4-2.3 0.4-2.8l-1.7-2.3c2.3 0.4 2.8-0.3 3.1-1-1.8 0.5-1.8 0.5-2.5 0.1 0 1.8 0.3 2.5 2 2.4 0.9 1.1 2 1.4 3.2 0.5l-2.8-0.4c2.1 2.8 4.2 4.1 5.8 1.7 0.4-0.6 0.4-1 0.6-2-1 0.5-1 0.5-2.2 0.5-0.8 2.6 1.2 3 2.2 1.9-0.7 2.1-0.5 3.1-0.3 4 0.2 2.1 0.3 2.3 0.3 2.7 0.1 0.9 0.2 1.4 0.3 2.3 0.4 1.6 0.7 2.6 0.7 2.7 0.4 1.6 0.5 2.3 0.6 2.9 0.2 2.4 0.3 4.1 0.3 4.2 0.7 2.3 0.7 2.3 1.6 2.7 2.3-1.1 2.3-1.1 2.4-1.4 0.2-1.9 0.2-2.3 0.3-3.5 0.1-1.4 0.1-2.6 0.1-2.5-3.1 1.1-3.1 1.1-3.5 0.5-0.1 1.7 0 2 0 2.4 1 1.8 2.3 2.4 3.6 1.7 1.6-1.7 1.8-2.1 1.8-2.1 0.7-1.3 0.8-1.6 0.9-2.1-0.4 0.9 0.1 0.2 0.4-0.8 0.4-1.9 0.4-2 0.5-2.1-1.4 1.4-2.2 1.3-2.8 0.9 2.3 2.4 3.6 2 4 0.9 0.5-1.2 1-3.3 0.8-3 0.7-1.1 2-3.5 1.9-3.5l-3 0.3c0.6 2.4 0.6 2.7 0.7 3.2 0.1 2 0.1 2 0.1 2.4 0.2 3 0.3 3.4 0.6 3.9 0.9 1.3 2.4 1.1 3.3 0.2 0.6-1.1 0.7-1.5 0.9-2-0.8-0.2-2-0.3-2.7-1.1 0.8 2.8 2.9 2.8 3.6 1.3 0.4-0.8 0.7-1.6 0.9-2.4l-1.4-2.4c0.4 2.2 0.6 2.3 0.7 2.4 2.5 1.6 3.2 1.9 4.3 1.4 1.4-2.1 1.4-2.4 1.5-2.8l-3.7-0.3c0.5 0.8 0.6 1.2 0.9 2.9 0.4 1.5 0.7 2.1 1 2.7 1.5 1.7 2.7 2.1 3.8 0.9 0.8-2.1 0.8-2.5 0.8-3.1-1.3 0-1.3 0-2.8-0.4 1.1 2.3 2.7 1.5 3.2 0.3 0.3-1.9 0.3-2 0.3-2.2-1.4 0.4-1.9 0.4-2.2 0.2 1.4 2 2 2.5 3 2.3 2-1.7 2.1-2.1 2.2-2.7-1.3 1-2.9 0.6-3.5-0.5 0.2 2.1 0.3 2.5 0.9 2.9 0.8 0.6 1.9 0.6 2.6-0.1q1.2-1.2 1.8-2.4c-2.2-0.8-2.2-0.9-2.3-1 2.1 2.1 3.2 2.3 4.3 1.6 0.7-0.5 1-1.2 1.2-2l-2.1 0.7c1.4 0.3 2.6-0.1 3.5-0.8l-0.7-2.1c-1.3 1.7-1.2 2.4-1.2 2.2 2 2 2 2 3.4 1.3 0.8-2 0.8-2.2 0.9-2.8 0.4-1.6 0.7-2.2 1-2.5-2-0.7-2.1-0.8-2.1-1 0.1 1.8 0.1 2 0.1 2.1 0.5 1.5 0.5 1.5 1.8 2.1 2.1-1.2 2.1-1.2 2.2-1.4 0.2-1.1 0.3-1.8 0.3-2-2-1.3-2-1.2-1.9-1.1 1.1 1.2 2.1 1.3 2.9 0.8 1.2 2 2.3 2.2 3.2 1.5 1.8 1 3.1 0.4 3.7-0.7 0.5-1.4 0.6-1.9 0.6-2-1.5 0-1.3 0.7-0.9 1.2 0.4 0.6 1.1 1.1 2.1 0.9 1.9-2.1 2-2.4 2.1-2.4-0.5 0.8 0.4 1.1 1.6 1.1-0.7 2.5-0.7 2.7-0.6 3 0.4 1.4 0.4 1.4 1.5 2 1.8-0.2 1.8-0.2 2.3-0.8 0.5-2.2 0.5-2.4 0.6-2.5l-3.5 0.5c0.9 1.2 2 1.5 3.2 1.2-1.4 1.5-1.3 1.8-0.9 2.2 1.4 0.7 1.4 0.7 2.7 0 0.8-1.5 0.8-1.7 0.9-2.1-0.6 0.6-0.6 0.6-2.4 0.7-0.5 1.5-0.2 2.1 0 2.8 0.1 0.2 0.7 2 0.8 2.3 0.7 1.4 2.6 1.6 3.5 0.3 0.4-0.6 0.7-1.3 0.9-2.4l-1.7-2.2c-1.1 1.9-0.5 2.4 0.6 2.3 1.5-0.9 1.3-0.7 0.8-0.5-0.9 0.3-1.7 0-2.1-0.6 0.1 0.1 0.7 1.5 0.9 2.3 0.1 1.2 0.2 2.3 0.2 2 1 3 3.4 2.9 4 1.3-0.7 0.4-1.7 0.4-2.3 0 1.2 0.5 2 0.4 2.6-0.2 0.8-1.6 1.1-2.3 1.5-3.2 1.4-3.1 2-4.9 1.8-4.6l-2.7 0.8c1.4 0.6 2.3 0.9 3.2 0.6 1.6-1.7 1.7-1.9 1.8-2.3 0.3-2.5 0.4-2.8 0.4-3-0.7 1-1.7 1.4-2.7 0.7 0.5 1.7 1.8 2 2.7 1.3 2.7-1.9 2.2-1.4 2.6-2.1 0.4-1.2 0.4-1.6 0.5-2.7l-3.4-0.8c0.8 1.4 1.5 2.7 1.6 2.9 1.1 1.2 1.6 1.6 2.2 1.8 1.2 0.4 2 0 2.6-0.8-0.5 1.6 1.3 1.8 2.2 0.8 0.9-1.8 1-2.3 1-2.3-0.9 1.2-2.1 1.4-2.9 0.7 0.5 1.9 0.6 2 0.7 2.2 2.3 1.1 2.9 0.8 3.3 0.3 0.7-1.6 0.7-1.9 0.7-2.4l-2.9 0.2c1.4 0.8 2.8 0.8 4 0.2v-2.7c2 0.9 2.1 0.8 3.2-0.3l-0.7-2.1c0.6 2.4 1.7 1.7 2.2 0.7 0.4-1.5 0.5-2.1 0.5-2l-3 0.9c1 0.8 1.8 1 2.8 1.1-0.9 0.8-0.7 2.5-0.7 2.6 1.9 2.3 3.1 2.2 3.8 1.3l-1-2.6c-1 2-0.6 2.5-0.4 2.8 2.1 1.9 3.1 1.8 4 1.1-2-1.2-2-1.3-2-1.3l2.6 0.7c-1.8 1.1-1.7 1.4-1.5 1.7 0.4 0.8 1 1.3 2.1 1.2 1.9-1.5 2-1.7 2-2 0.6-1.6 0.8-2.6 0.8-2.4l-2.7 0.9c2.7 1.3 4.1 1.5 4.9-0.7l-1.1-3c1 2.1 2 1.9 2.7 1.5-1.2 0.1-1.9-0.3-2.3-0.9 0.2 1.6 0.3 2.7 0.4 2.9 0.6 1.8 0.9 2 1.2 2.2 0.7 2.1 0.8 2.7 0.9 4.4 0.2 2.1 0.2 2.5 0.3 3.3 0.1 1.8 0.2 2.5 0.3 3.1 2.3 2.2 3.2 2.5 4.3 2.2 1.6-1.7 1.6-1.9 1.7-2.3 0.3-2.4 0.4-2.7 0.4-2.9l-2.3 1.5c0.6 0.4 1.9 1.7 2.3 2 0.9 0.5 2.1 0.2 2.7-0.7-1.2 0.8-2.1 0.7-2.7 0.2 0.4 1.1 1.2 1.8 2.5 1.3 1.4-1.4 1.6-1.7 1.7-2 0.9-1.9 1-2.3 1.1-2.8 0.3-2 0.3-2.1 0.3-2.2-1 1.1-1.6 1.1-2 0.9 1.8 1 2.5 1.1 3.3 0.6 1.3-2.1 1.4-2.4 1.4-2.9 0.2-1.7 0.3-1.9 0.3-2.1l-3.5 0.2c1.5 2.5 2.1 3.4 3.1 3.7 0.9 0.3 1.7 0 2.3-0.7-0.5 0.7-1.8 1-2.6 0.1-0.4-0.9-0.1 0.3 0 0.6 1.7 1.2 2 1.5 2.2 1.7 0.8 1.4 2.7 1.9 3.8 0.2 0.7-2.2 0.6-2 0.5-1.8-0.5 1-1.9 1.6-3.1 0.5 1.3 2.1 2.9 1.7 3.5 0.6 0.3-1.3 0.4-1.9 0.4-2.1 0.3-1.3 0.5-2 0.7-2.8 0.1-0.3 0.6-2 0.7-2.3 0.4-1.3 0.8-3 0.9-3 0.5-2.3 0.7-3.6 0.6-3.2 1.4-2.1 1.4-2.1 1.5-2.2-1.8 0.9-1.8 0.9-2.8 0.4-0.6-0.8-0.6 0.1-0.4 1.9 0.1 1.6 0.1 2.1 0.2 3.5 0.2 2.6 0.2 3.2 0.3 3.7 2 1.6 2 1.6 3 1.2 1-1.6 1.1-1.8 1.1-2.1-2.3 0-2.9-0.4-3.3-1 0.4 2.6 0.5 3 0.6 3.4 0.7 1.7 1 2 1.7 2.2 1.1 0.3 1.9-0.2 2.3-1 0.5-1.8 0.5-2.3 0.5-3.1l-1.8-2.2c-0.3 2.4 0.3 3.4 0.5 4.2 0.3 2.5 0.4 2.7 0.5 3.1 1.1 1.3 0.6 0.9 0.4 0.5 0.1 0.9 0.3 2.6 0.4 2.9 0.3 1.5 2.2 2 3.3 0.9 1.3 1 2.1 1 2.8 0.4 1-2.2 1-2.5 1-3.1 0.4-2.5 1.5-5 1.6-5.1-0.7 0.7-2 0.7-2.7-0.1 0.4 2.6 0.4 2.6 2.5 2.7 1.3-1.5 1.3-1.6 1.3-2.8 0.1-1.6 0.2-2.3 0.1-2.1l-2.4 1c2.2 0.8 3.9-0.2 4.5-2 0.1-0.3 0.3-1.5 0.2-0.8 1.7-2.3 1.9-2.7 2.1-3.2 0.1-0.6 0.2-1.4 0.3-2.7 0-1.7 0.1-2.1 0-2-2.5 1.3-2.5 1.3-3.2 0.8-0.2 1.4-0.2 1.7-0.1 2.2 0.4 2.1 0.5 2.3 0.9 2.7 1 0.9 1.9 0.7 3-0.3 0.5-2 0.6-2.1 0.6-2.1l-3.2 0.6c1.4 1.7 1.6 2.1 1.6 2.2 2.2 1.5 3.3 0.8 3.7-0.1 0.3-1.5 0.3-1.8 0.4-2.4 0.2-1.9 0.3-2 0.3-2.2-1.9 1.3-2.7 1-3.2 0.4 0.4 1.6 0.5 1.8 0.6 2.1 1.4 2.4 3.3 2.2 4 0.8 0.5-1.1 0.8-2.3 1.1-3.5 0.2-1.7 0.3-2.4 0.3-2.5 0.2-2 0.2-2.5 0.2-2.4 0.7-0.9 1.3-2 1.7-3.1-2.2 0.1-2.2 0.1-2.9-0.6 0.5 2.6 2.1 3.1 3.2 2.2-1.6-1.7-0.8-0.1 0.2 0.2 1.6-0.1 1.6-0.1 2.2-0.8 0.5-1.5 0.5-1.7 0.6-2.1-1.4 0.6-1.4 0.6-2.8 0.2 0.9 1.9 0.9 1.9 2.4 1.6 1.1-1.6 1.1-1.8 1.1-2l-2 0.2c1.8 0.3 3.2-0.2 3.9-1.5 0.8-1.4 1.2-2 1.5-2.3l-2.8-1.4c0.7 2.7 0.7 2.7 0.9 3.2 1.4 2.3 2.8 2.9 4.4 2.5 0 1.2 1.1 1.7 2.3 1 1.1-1.6 1.2-1.8 1.4-2.3l-1.3-2.2c1.8 2.6 3.7 1.7 4.7 0.2 0.5-1.9 0.5-2.1 0.6-2.4-1.8 1.5-1.8 1.5-3 1 2.5 1.6 2.5 1.6 3.1 0.8 0.4-1.1 0.5-1.5 0.6-3.3l-1.8-2.3c2.3 2 3.6 0.7 3.9-1.3 0.2-1.1 0.3-1.4 0.3-2.1l-1.7-2.1c2.1 0.1 2.2-0.4 2.4-1l-1.6-2.2c2.1 0.8 2.6 0.4 2.8 0.3-1.5 0.2-1.9-0.1-2.2-0.4 0.8 0.9 2.1 1.2 3.2 0.3l-0.8-2.3c-1.1 1.9-0.8 2.5-0.6 3 0.9 2.1 2 2.5 3 2.1 1 2.6 3.1 2.2 3.8 0.3l-3.4-0.2c1.4 1.5 2.5 1.6 3.3 0.9 0.9-1.7 1-2.1 1-2.2 2.4-2.5 3.9-4.3 3.6-3.9l-2.7-1.4c0.6 2.1 1.2 3.3 1.8 3.9 1.5 1.9 1.5 1.9 1.6 2 0.4 2 0.7 4.2 0.8 4.4 0.2 1 1 1.6 2 1.6 2.2-0.1 3.3-1.6 3.7-3.7 0.6-3.5 1.1-6.3 1-6.2l-2.8 1.2c0.8 1.7 0.9 1.9 1.2 2.1 0.9 0.9 2.4 0.7 3.1-0.3-1.5 0.2-2.1-0.4-2.3-1 0.4 1.1 1.4 1.6 2.4 1.3 2.4-1.3 2.8-1.7 3-2.1-2.7 0.3-2.7 0.3-3-0.1 0.7 3.4 2.7 3.6 3.6 2.3 2.9-2.7 3.7-3.7 4.4-4.8l1.2-2.1c0.6-1.4 1.3-3.8 1.1-3.3 0.7 0.1 1.3-1.5 1.7-3.8 0.2-1.9 0.2-2.7 0.2-2.8-2.9 1.3-2.9 1.3-3.4 0.7 3.3 1.4 3.3 1.4 3.7 0.6 0.5-2.5 0.5-2.9 0.5-2.9l-3.5 0.6c0.8 1 1.1 1.3 1.6 2.2 0.2 0.3 0.6 1.9 0.8 2.2 0.8 1.2 2.5 1.2 3.4 0.1 1-1.6 1.8-3.4 2.3-5.2 0.3-1.6 0.5-3 0.7-4.5 0-0.5 0.2-2.3 0.2-2.6l-1.6-2.2c0.8 2.6 2.2 2.7 3.3 1.7-1.7 0.4-1.7 0.4-2.3 0.1-0.1 0.8 0.7 1.8 2.4 1.3-0.7 0.2-1.5 0.1-2.1-0.8 0.9 2.4 3.5 3.8 5.1 1.1 0.3-0.5 0.4-1 0.5-2l-3.7-0.7c0.7 1.7 0.8 1.9 1 2.1 0.8 1.1 2.5 1.2 3.4-0.2 0.4-2.1 0.5-2.2 0.5-2.3-2.3 1.1-2.5 1-2.7 0.9 2.3 1.2 3.5 0.6 4-0.4 0.3-0.7 0.3-1.3 0.4-3 0.3-2.7 0.4-3.4 0.5-4.1-1 2.4 0.7 2.9 1.8 2-0.5 0.5-1.6 0.4-2.2-0.4 0.5 1.8 0.7 2.2 1.1 3 0.6 2.1 0.7 3 0.7 2.9 1.3 3 3.7 2.6 4 0.9 0.5-2.4 0.9-6 0.9-5.9 0.3 1.5 1.5 0.1 1.9-1.9 0.2-1.5 0.2-1.7 0.3-2.2l-1.7-2.1c-1.5 1.5-1.3 1.8-0.9 2.2 0.8 0.5 1.8 0.6 2.6-0.1 1.6-2 1.6-2 1.6-2-1.8-0.4-2-0.7-2.1-0.9 0.1 1.7 0.1 2.1 0.2 2.4 0.1 2.4 0.1 2.9 0.2 3.3 1.9 3.3 3.2 2.7 4 1.8 0.9-1.6 1.2-2.4 1.3-3 0.4-2.1 0.4-2.3 0.4-2.7 0.5-2.2 0.9-4.7 0.8-4.5l-2 1.3c2 1.3 2.8 1.7 4 2.1-0.3 0.9-0.3 0.9 1.5 1.2 1.7-2.2 1.8-2.9 1.9-5 0.1-1.5 0.1-2.1 0.2-2.6 0.2-2.2 0.2-2.4 0.3-2.5-0.6 0.9-0.4 0.8-2.6 1 1.1 1.9 1.8 1.8 2.3 1.4 1.9-0.9 2.5-1.3 2.8-2.1 0.4-2.3 0.4-2.5 0.5-2.7l-0.3-2.6c-1 2.1-0.5 2.6 0.1 2.9 1 0.6 2 0.4 2.7-0.2l-2.1 0.1c0.7 1.7 0.7 2.4 0.8 4.1 0.1 2.3 0.2 3.1 0.2 3.6 0.3 2 3.2 2.3 3.9 0.4 0.3-0.7 0.4-1.6 0.6-2.8 0.2-2 0.2-2.4 0.3-2.6-0.6 0-1.5 0-2.2-0.8-0.1 2.2-0.1 2.4 0 2.8 0.6 1.6 2.9 1.8 3.7 0.3-2.1 0.6-2.5 0.3-2.7 0 1.6 1.3 2.6 1.1 3.2 0.4 0.7-1.9 0.7-2 0.7-2.1l-2.5 0.6c2.1 0.9 3.6-0.3 4.1-2.1l-3.6-1c0.4 1.4 0.8 4.5 0.8 4.4 0.3 1 1.2 1.6 2.1 1.5 2.2-0.1 3.2-0.6 3.7-1.9 0.6-1.4 1.2-2.7 1.1-2.6 1.7-2.1 1.9-2.5 1.7-2.3l-3.5-0.4c0.7 1.8 0.8 2 1 2.2 0.7 1 2.3 1.3 3.2 0.1 0.7-1.1 1.7-3.7 2.1-5.1 0.2-0.7 0.3-1.2 0.4-2.3 0.5-1.9 0.6-2.1 0.6-2.4-1.7 0.8-1.7 0.8-2.8 0.4-0.6 2.7-0.6 3-0.1 3.7 0.9 1.4 2.4 1.1 3.3 0.3 1.1-1.8 1.4-2.4 1.4-2.4 0.6-2.1 0.6-2.1 0.7-2.5-0.3 0.7 0.5 1.1 1.5 0.8 1.6-1.9 1.6-2 1.6-2 0.9-2.1 1.6-4.1 2.1-5.8 0.2-0.7 0.6-2.1 0.6-2l-3.4-0.3c0.5 1.9 0.6 2.7 0.6 3 0 0.1 0.4 3.1 0.6 4.1 0.3 2.4 0.5 3.8 0.7 4.5 2.3 2.3 3.6 1.5 4.1 0.3 0.5-1.8 0.6-2.2 0.5-2.1-0.5 1.2-2.2 1.8-3.3 0.5 0.6 1.5 0.6 1.5 2.1 1.8 1.8-2 1.8-2.4 1.9-3.3 0.1-2.3 0.2-3 0.2-3.3l-0.7-2.5c-1.1 3.8-0.9 4.3 0.7 4.5 1.9-0.5 2.7-1.3 3.3-2.4 1-1.9 1.1-2.2 1.4-2.9-2.5 1-3 0.5-3.4-0.1 0.3 2.1 0.3 2.1 0.4 2.4 3.1 0.8 3.1 0.8 3.4 0.3 0.5-1.6 0.6-2.1 0.6-2.3-1.5 0.6-1 0.9-0.3 1.6 1.7 2.1 2.7 2.4 3.5 2 1.2-0.5 1.9-1.5 2.3-2.8-0.5-0.2-1.6-0.2-2.3-0.7 1.3 1.3 2.2 1.7 3.3 0.9 1-1.8 1-2.1 1.1-2.4-1.5 0.8-1.5 0.8-2.8 0.4 0.7 2.1 2.5 1.7 3.1 0.5 0.4-1.4 0.4-1.7 0.5-2.2-1 0.8 0.4 0.9 1.3 0 1.1-1.2 2.2-3.3 1.7-2.7l-3.2-0.1c0.8 1.3 1.7 3.7 1.7 3.7 0.6 0.8 0.6 0.8 2.4 0.7 1.4-2.1 1.4-2.3 1.5-2.7-2.1 0.7-2.1 0.7-3.2 0 0.5 2.3 2.4 3 3.5 1.3 0.4-2.1 0.4-2.3 0.4-2.4-1.8 0.5-2.3 0.4-2.7 0.1 0.4 1.6 0.5 1.9 0.9 2.2 0.6 2.1 0.9 3.3 1.1 3.5 2.5 1.5 3 1.2 3.4 0.8 1.2-2 1.5-2.6 1.6-2.7 0.6-2 0.7-2.9 1-4.5 0.3-2.4 0.3-2.9 0.3-3 1.9-2.3 2-2.7 2.1-3.4-2.5-0.6-2.5-0.6-3-1.1-0.4-0.5-0.3 0.4-0.2 2.4 0.1 1.6 0.1 2.3 0.1 2.9 0.2 2.8 0.3 3.5 0.5 4.2 0.3 1.2 1.1 2.6 1.8 3.3 1 1 2.7 0.6 3.2-0.7 0.6-2.2 0.7-2.5 0.7-2.8-1.9 0.4-1.9 0.4-3-0.2-0.3 2.2-0.3 2.5-0.2 2.9 1.5 1.6 1.5 1.6 3.2 1.1-1.7-0.7-1.7-0.7-2.3-1.2-0.3-0.4-0.1 0.3 0.2 1.2 0.2 1 0.3 1.4 0.6 2.4 0.3 1.9 0.4 2 0.4 2.1 0.2 1.2 0.3 3 0.5 5.2 0 1.1 0.1 2.2 0.1 3.7 0.1 2.2 0.2 2.7 0.2 3 0 2 0.1 2.4 0.1 3 0 1.4 0 2.1 0.1 2.7 0.2 1.8 0.3 2.1 0.8 2.6 0.8 0.8 2 0.7 2.8 0 0.9-1.9 1-2.5 1.2-3.2 0.5-2.7 0.5-2.7 0.5-2.9 0.3-0.3 0.5-1.2 0.7-2.6 0-0.5 0.2-2.1 0.2-2.2l-3.8 0.3c0.2 0.5 0.3 1.7 0.5 4.3 0.1 1.8 0.1 2.5 0.2 3.2 0.1 0.8 0.2 1.7 0.4 2.7 0.3 1.5 0.5 3.1 0.6 3.5 0.3 2.1 0.4 2.7 0.5 3.4 0.1 2.1 0.1 2.5 0.2 2.8 1.8 1.6 1.8 1.6 2.9 1.3 1.2-2.1 1.3-2.2 1.2-2.1-0.8 1-0.8 1-2.9 0.7-0.8 0.3-0.7 3.5-0.6 11.9 0.1 7.9 0.1 10.9 0.2 12.9 0 1 0.1 1.6 0.3 2.5 0.2 1.7 0.2 2.7 0.4 4.2 0 0.7 0.2 3.7 0.2 4.3 0.6 7.7 0.7 8.5 1 9.2 3 0.7 3 0.7 3.4 0.1 0.5-1.8 0.5-2.3 0.5-2.9 0.1-1.1 0.1-2.5 0.1-4.6 0-0.6 0.1-2.7 0.1-3.1 0-1.2 0-1.9 0-2.4-3.2 0.8-3.2 0.8-3.6 0-0.2 2.5-0.2 3.6-0.1 6.2 0.1 5.2 0.1 6.7 0.2 7.3 0.9 1.7 0.9 1.7 2.8 1.7 1.3-1.9 1.3-2.2 1.3-2.7 0.1-0.7 0.1-1.4 0.1-3.1 0.1-2.3 0.2-3.2 0.2-3.6-1 0-2 0.1-2.8-0.5 0.1 1.9 0.3 2.4 0.5 2.7 1.2 1.3 2.3 1.4 3.2 0.7 0.9-3.6 1-7.9 1-15.8 0.1-1.3 0.1-5.6 0.1-5.5 0-4.7 0.1-7 0.1-8.3-3.1 1.7-3.1 1.7-3.5 1.1 1.6 2.1 1.6 2.1 3.4 1.2 0.6-1.6 0.6-2.6 0.7-5.2 0.1-2.5 0.2-3.6 0.2-3.9-1.5 1.6-1.5 1.6-2.7 1.4-1.1-1.1-1.1-0.4-1.1-0.2 0.1 1.3 0.2 1.8 0.5 2.3 0.8 0.8 1.1 1.8 1.4 3.1 0.2 1.1 0.5 4 0.5 3.9 0.8 1.9 2.7 2.3 3.6 0.9 0.5-1.3 0.5-1.6 0.5-2.2-2.1 0.6-2.1 0.6-3.1-0.1-0.5 1.9-0.4 2.5-0.4 2.9 0.8 2.9 3.4 2.8 4 1 0.2-0.6 0.4-1.8 0.8-4.6 0.1-0.7 0.3-2.7 0.4-3.2l-1.8-2c2 0.1 2.1 0 2.1 0 0.8-2.3 0.9-2.4 0.9-2.5 1.5-1.7 1.7-1.9 2-2.4 0.8-2.8 0.9-3.6 1.2-6 0.2-2.5 0.2-3 0.3-3.2-1.6 0.1-2.4-0.7-2.6-1.5 0.1 0.3 0.1 1.7 0.2 3.7 0 0.5 0 2 0.1 2.3 0 2.4 0.1 2.4 0.3 2.8 2.3 1.2 2.3 1.2 3.2 0.6 0.6-1.6 0.7-1.9 0.7-2.3 0-0.6 0-1.1 0.1-2.5 0.1-1.9 0.1-2.8 0.2-3.1l-2.5 1.7c0.8 2.5 2.4 2 3 0.8 0.4-0.6 0.9-2.5 1.5-5.4 0.3-1.3 0.4-1.7 0.5-3 0-0.7 0.1-1.5 0.2-3.6 0-2.2 0.1-3.6 0.1-3.7-0.3 0.9-0.3 0.9-2.2 1.4-1.6-1.2-1.6-0.4-1.6-0.2 0.2 2 0.3 2.6 0.3 3.1 0.6 3.2 1.5 7 2 7.8 2.8 1 3.3 0.5 3.6-0.2 0.3-1.4 0.3-1.8 0.4-2.6 0.4-1.5 2-3.1 2.2-3.4-1.1 0.7-2 0.5-2.6-0.1 0.4 2.3 2.9 2.5 3.6 0.8 0.5-1.1 0.9-2.6 1.3-4.6 0.3-1.3 0.9-4.8 0.9-4.9-1.5 1.7-2.9 1.3-3.5 0.3 0 2.4 0 2.7 0.1 3 0.5 1.1 0.8 2.4 0.9 2.7 0.6 1.6 2.8 1.8 3.6 0.3 0.3-0.6 0.6-1.4 0.9-2.5 0.6-1.9 0.7-2.1 0.7-2.2-1.2 1.4-2.7 1.1-3.3 0.1 0.1 2 0.1 2.4 0.2 3.4 0.2 1.7 0.2 1.9 0.2 2.1 1.3 2.2 2.9 2.1 3.7 1.1 0.5-1.6 0.5-1.9 0.6-2.5 0.8-2.4 1.9-4 2-4.3-2.5 0.2-2.8-0.1-3-0.5 1.5 2.2 3.1 1.9 3.8 0.8 0.4-1.9 0.4-2.4 0.4-2.5-1.4 0.4-2.3 0.2-2.8-0.2l2.4 0.6c-1.5 1.8-1.3 2.7-1.1 3.7 0.6 2.4 1.1 3 1.8 3.1 1.6 1.6 3.2 1.6 3.9 0.2 0.4-0.7 0.4-1.2 0.5-3l-1.8-2.2c1.8 1.3 2.3 0.6 2.6-0.2-1.8 0-2-0.1-2.2-0.2 2.4 1.1 3.5 0.5 3.9-0.5 0.3-0.6 0.4-1.3 0.5-2.9l-1.9-2.1c1.5 1.1 0.8 1.5-0.2 1.1-0.2 2.6 0.2 3.1 1.2 3.3 1.9-0.8 2-1 2.2-1.1 0.7-1.4 1-2 1.2-2.5 0.4-1.9 0.4-2 0.4-2.1l-3.6 0.3c0.7 1.1 1.7 1.8 3 1.1 1.5-2.2 1.3-1.7 1.2-1.5 0.4-0.1 0.8-1 1.3-2.7 0.2-0.5 0.6-1.9 0.6-2-1.5 1.5-2.5 1-2.7 0.5 1.4 2.1 3.1 2 3.8 0.8 0.9-1.8 1-1.9 1.1-2.1-1.2 0.6-1.9 0.5-2.4 0-0.3 2.1-0.3 2.3-0.1 2.6 1 1.7 2.9 1.2 3.6-0.1l-1.4-2.6c-1.1 2.2 0 2.8 1.2 2.7 2-1.1 2.1-1.3 2.2-1.5 0.5-1.3 0.6-1.7 0.8-2.4-0.6 0.8-1.6 1.3-2.7 0.7-0.4 2.4-0.3 2.9-0.1 3.5 0.7 2.1 1 2.6 1 2.7 0.6 1.7 0.9 2.2 1.4 2.6 0.7 0.6 1.7 0.8 2.5 0.2-2.1-0.3-2.3-0.6-2.4-1 0.2 1.5 0.3 1.8 0.4 2.1 0.2 0.6 0.4 1.4 0.7 2 1.5 2 2.1 2.3 3 2.1 1.5-1.8 1.6-2 1.6-2.3 0.2-2 0.2-2.3 0.3-2.4 0.3-1.7 0.3-1.9 0.4-2.1 0.2-1.7 0.3-2.1 0.3-2.2-0.9 0.5 0.1 1.2 1.5 0.5 1.2-1.5 1.2-1.5 0.8-1.1 0.4 0.8 1.9-0.1 2.5-1.8l-2.2 0.4c3.1 0.6 4.1 0.3 4.7-0.7 0.4-0.6 0.5-1.1 0.6-2.2 0.3-1.7 0.5-2.5 0.7-3.4-0.5 1.1 1.2 1.1 2-0.1 0.4-0.5 0.6-1.2 0.8-2.1-1.6 0.1-1.6 0.1-2.7-0.3-0.8-0.9-0.7 0-0.7 0.3 0.4 2.3 0.7 3.1 1 3.7 1.4 1.9 2 2.2 2.8 2 1.7-1.6 1.7-1.8 1.8-2.1 0.2-2 0.2-2.1 0.2-2.2-1.2 1.5-1.2 1.5-2.9 1.2 0.2 1.8 0.7 2 1.1 2.1 2.1 0.9 2.7 0.9 3.2 0.7 1.5-3.1 1.6-3.4 1.9-4.2-1.2 0.7-2.1 0.6-2.8 0 1 2 1.1 2.5 1.2 3.1 0.7 3.5 3 3.8 3.9 2.2 0.9-2.1 0.9-2.1 0.9-2.2-0.5 0.9-1.1 1.3-2 1.2-1.3-0.2-0.8 0.6-0.4 1.2 1.1 1.4 3.1 1.9 4.1-0.2 0.3-0.6 0.4-1.3 0.5-2.9l-1.9-2.2c1.9 0.8 2 0.6 2.1 0.5-0.7 0.4-1.5 0.5-2.2 0.1 0.7 1.9 0.9 2.3 1.4 2.7 1.1 0.7 2.6 0.3 3.1-0.9 0.6-1.8 0.9-2.5 0.8-2.3 1.6-1.8 1.8-2 1.9-2.2 1.1-2.4 1.2-3.1 1.3-3.8l-3.5-0.4c0.9 2 2.7 2.4 4.2 1.5l-2.6-1.1c0.4 0.9 0.7 1.6 0.9 2.2 1.3 3 2.4 3.4 3.7 3.2-1.4 0.3-0.9 1.1 0 1.6-0.9-1.2-0.9-0.7-0.8 0.2 0.1 1.7 0.2 1.9 0.3 2.4 2.5 1.4 2.5 1.4 3.3 0.8 0.8-2 0.8-2.1 0.8-2.1q-1.1 1.6-2.5 1.1c1 2 1.6 2.3 2.5 2 1.5-1.5 1.6-1.8 1.6-2 0.3-2.1 0.3-2.1 0.3-2.2 0.2-1.3 0.4-2.6 0.6-4.1 0-0.2 0.2-2.3 0.2-2.5-1.9 1.5-1.9 1.5-1.8 1.5q2.1 0.9 3.1-0.5c0.5-0.6 0.5-1 0.6-2.7 0.2-1.2 0.6-2.2 0.6-2.4 0.8 0.3 1.8-1.2 2.2-3.2 0.3-2 0.3-2 0.3-2l-1.6-2.4c1.8 1 1.8 1 2 1 2.1-1.6 2.3-2.2 2.5-2.9l-1.6-2.4c1.9 0.9 2.8-0.2 2.9-0.2-0.8 0.4-1.8 0.3-2.4-0.6 0 2.2 0 2.5 0.1 2.9 0.4 1.2 1.8 1.7 2.9 1.1 0.9-0.4 1.4-1.2 1.8-2 0.9-1.8 1.4-2.9 1.7-4.1 0.3-1.5 0.4-2.3 0.4-2.1-2.3 0.7-2.7 0.3-3-0.2 0.6 2.2 1.4 4.2 1.9 5 0.8 1.2 2.6 1.1 3.4-0.1 0.9-1.5 1.1-2.1 1.4-3.6 1.8-2.4 2-3 2.2-3.6 0.4-1.7 0.4-1.9 0.5-2.4 2.1-2 2.3-2.4 2.2-2.2-0.7-0.1-0.4 0.5 0.7 0.7 0.9 0.2 1.7-0.1 2.1-0.7l-2.9-0.5c2.2 1.2 3.1 0.8 3.6 0.1 0.6-1.4 0.7-2.1 0.8-2.3 0.2-1.1 0.9-3.1 1.2-4-1.5 0.2-0.3 1.8 0.5 2.1 1 0.3 2.2-0.3 2.5-1.4-0.6 0.3-1.7 0.3-2.4-0.2 1.2 0.6 2 0.5 2.6-0.1l-2.2 0.3c0 0.7 0.2 1.4 0.3 2.2 0.2 0.8 0.6 3.2 0.7 3.4 0.4 1.7 2.6 2.1 3.6 0.7-2.1 0-2.3-0.2-2.4-0.5 0.7 1.5 0.9 1.8 1.1 2.3 0.7 1.5 0.8 1.8 1 2.1 1.1 1.2 3 0.8 3.5-0.8 0.4-1.4 1.1-5.1 0.8-3.9 0.7-1.9 0.8-2 0.9-2.1 0.7-1.1 1-1.6 1.2-2.2 0.3-2.1 0.4-2.3 0.4-2.6-0.7-0.3-1.7-0.2-2.5-0.8 0.3 0.6 1.4 1 2.4 0.5q1.5-0.8 2.3-1.9l-3.1-1.3c0.7 2.2 0.9 2.4 1 2.5 2.5 2.4 3.3 2.2 4 1.8-2.2-0.5-2.3-0.7-2.3-1 0.2 1.8 0.2 2 0.3 2.6 0.2 1.5 0.3 1.7 0.4 2.1 1.3 1.4 1.8 2.1 2 2.3 2.2 1.2 3.3 0.6 3.7-0.3 0.3-0.7 0.4-1.4 0.5-3.5 0.1-1.8 0.1-2.2 0.1-2.4l-3.8 0.5c0.4 1 1 2.7 1.1 3 4.1 1.4 5.1-0.1 5.4-2.3 0.3-2 0.5-2.4 0.6-2.6 1-1.3 1.6-1.6 1.9-2.2 0.6-1.3 0.7-1.7 0.8-2.3l-2 0.9c0.4 0.1 1.8 0.7 2.2 0.7 0.3 2.9 1.4 3.6 2.8 3.1 1.8-1.8 1.9-1.9 2-2.1 0.9-1.5 1.8-3.5 1.6-3.1 0.5 2.7 0.8 3.6 1.1 4.7 1.7 1.8 3.4 1.3 3.8-0.1 0.8-2 0.8-2 0.9-2.2 0.9-2.1 1-2.2 1.1-2.3l-3.4-0.8c0.3 0.8 0.4 1.4 0.6 2.3 0.4 1.7 0.4 1.7 0.9 2.3 1.4 0.5 1.4 0.5 2.6-0.2 0.8-2.1 0.8-2.3 0.9-3 0.2-1.5 0.2-1.6 0.3-2.2l0.4-2.9c-1.6 1.3-1.7 1.2-1.3 2.5 1.9 3 3 3.6 4.3 3.2-1.3 0-1.6-0.1-2-0.6 2.6 1.7 3.3 1.2 3.7 0.5-0.2 0.1-0.2 0.1-2 0.3-0.8 0-0.1 0.8 1.1 0.9 1 0.1 1.6-0.2 2.3-0.9l-3-1.2c0.4 1.5 0.5 2 0.9 2.7 3 1.2 3.9 0.6 4.7-0.3l-0.8-2.1c-1.6 1.3-1.4 1.7-1.3 2.1 1.6 2.5 3.3 2.6 4.2 1.2l-1.2-2.5c0.9 2 1.1 2.1 1.2 2.1 0.9 0.4 2 0 2.6-0.9 2.8-1.4 3.6-2.2 4.3-3.4l-1.1-2.4c1.3 1.7 2.7 1.3 2.8 1.2 2.2-2.2 2.3-2.8 2.4-3.8l-2.7 0.1c1.1 0.5 2.2 0.3 3-0.5 0.8-1.8 0.8-1.7 0.5-1.4 0.4 2.1 1.8 2.2 2.7 1.2l-1.2-2.1c2.7 0 3.6-1.4 3.2-0.9 2.3 0.4 3.2 0.1 4-0.3l-0.1-2.4c0.7 1.9 1 1.8 1.3 1.7 1 2.5 3.2 2.4 3.9 0.9 0.5-1.1 1.2-3.8 0.9-3-1.4 0.6-1.2 1.2-0.7 1.7 0.8 0.9 2.2 0.8 3 0 2.2-0.8 1.7-0.4 1.1-0.3 1.6 0.3 2 0.4 2.6 0.2 2-1.4 2.2-1.7 2.3-2-0.5 0.5-2 0.6-2.7-0.2 1.5 1.8 1.6 2.1 1.8 2.3 1 1.2 1.9 1.9 3 2 1.2 0.1 2-0.3 2.6-1.1 0.7-1.9 0.9-2.4 0.9-2.5l-2.5 0.6c1.9 0.9 3.1-0.1 4.1-1.7l-1.2-2c2.2 1.5 3.3 1.1 4 0.7 2.5 1.8 4 1.9 5.3 1.2l-2.4-1.3c0.6 1.5 1.1 2.2 2.4 2.2 2.1-1.5 2.2-1.7 2.3-2 0.3-2.5 0.4-2.7 0.4-3l-1.6-2.5c1.8 2.1 3.3 1.8 3.9 0.6-1.6-1.7-1.5-1.2-1.4-0.5 0.1 1.9 0.1 2 0.1 2.1 2.1 1.8 2.1 1.8 3.2 1.3 1-2.1 1-2.4 1-3 0.2-0.4 0.5-1.1 0.7-2.5 1.4-2 1.6-2.5 1.8-3.1l-3.4-0.1c0.8 1.1 2 1.6 3.3 0.7 1.2-2.2 1.5-2.6 1.7-2.9 1.7-2.7 1.9-3.5 2.1-4.3l-3.5-0.7c0.6 1.3 1.5 2.1 2.8 2.1 1.2-0.1 2-0.7 2.4-1.6 0.5-2.1 0.5-2.1 0.5-2.2l-3.2 0.5c3.2 2.9 2.8 2.5 3.8 2.5 1.6-0.8 1.2-0.5 0.6-0.5-1.2-0.1-0.8 0.2-0.3 0.4 1.4 0.4 2.3-0.4 2.8-1.4l-1.4-2.5c3.1-0.2 3.6-0.8 3.9-1.6 0.3-0.7 0.4-1.3 0.6-2 0.1-1.3 0.2-2 0.2-2.1 1-1.5 1.4-2.1 1.7-2.9l-2 1.1c0.6 2.5 2.1 2.6 3 1.6-0.8-0.5-0.4 0.4-0.1 1.7 0.2 0.8 0.7 3.3 0.8 3.6 1.4 1.6 2.5 1.7 3.2 1.1 1-1.8 0.9-1.6 0.8-1.4-1 1.4-3 1-3.5-0.5 0.2 2.7 0.2 2.9 0.4 3.3 1.1 1.4 1.1 1.4 2.6 1.3 1.5-2.1 1.5-2.1 1.5-2.1-2.6 1.2-2.6 1.2-3.4 0.6-0.2 1.6-0.1 2.2 0.1 2.7 2.2 1.9 3.6 2.1 4.7 0.9 0.6-0.6 0.7-1.1 0.8-2.4 0.1-0.6 0.2-1.3 0.3-3 0.1-1.8 0.1-2.5 0.2-2.9-2 1.4-2.6 1.1-3 0.6 1 1.4 1.4 2 1.7 2.6 0.7 2.1 1.9 2.6 3 2.2 1.5-1.9 1.6-2.3 1.7-2.7l-3.4-0.6c0.8 1.7 1 2.4 1.2 3.2 0.3 1.8 0.3 1.8 0.4 2 2.8 1.1 2.8 1.1 3.4 0.5 0.5-2 0.6-2.4 0.6-3.2 0.3-2 0.3-2.3 0.4-2.8 0.4-2 0.4-2.1 0.4-2.3-0.1 0.9 0.9 0 1.4-1.1l-2.9-0.5c0.9 0.9 2 1.3 3.2 0.5 1.2-1.7 1.1-1.6 0.8-1.4l-2.8-0.1c1.3 1.5 1.5 1.9 1.6 2.5 0.1 0.8 0.3 1.6 0.4 2.5 0.2 2.9 0.3 3.5 0.5 4.2 0.9 1.1 1.8 3.8 3.2 4 2.1-1 2.1-1 2.2-1.2 0.3-1.7 0.3-2 0.4-2.7l-1.8-2.1c-0.7 2.2-1.3 1.6-1.5 1.1 0.2 1.4 0.3 1.7 0.5 2.1 1.9 1.2 1.9 1.2 1.9 1.2 1 1.9 2.8 2 3.6 0.8 0.5-0.7 0.6-1.4 0.8-2.6-0.5-0.2-1.8 0.4-3-0.6-0.3-0.2 0.3 4.2 0.7 7.3 0.1 1.7 0.2 2.3 0.2 2.9 0.1 2.4 0.1 2.8 0.2 3.2 1.2 1.9 2.8 1.9 3.6 0.9 0.5-1.4 0.6-1.6 0.6-2.3-2.4-0.6-2.7-0.9-2.9-1.3 1.3 2 1.6 2.3 2.2 2.6 1.2 0.5 2.4-0.3 2.8-1.4 0.3-0.6 0.4-1.4 0.4-3.5 0.1-1.8 0.1-2.2 0.2-2.5l-3 1.5c0.4 2 0.5 2.2 0.6 2.4 0.8 1.1 1.3 1.7 1.8 2 0.6 0.5 1.4 0.7 2.2 0.3 1.7-3.3 2.2-6.8 2.1-6.3-0.6 1.2-1.4 1.5-2.1 1.2 0.8 1.3 1.7 1.5 2.5 1.3 0.8 2.9 1.3 3.8 2.8 3.9-1.1 1.1-1.1 1.1 0.5 1.9 2.1-1.5 2.1-1.6 2.1-1.8 0.1-0.4 0.1-0.9 0.2-2 0.1-3 0.2-4 0.2-4.3 1.1-1.3 1.4-1.8 1.5-2.5 0.4-1.4 0.6-2.2 0.7-3.3 0.3-2 0.3-2.2 0.3-2.2-1.4 1.5-1.4 1.5-3.1 1-0.4 1.9-0.3 2.3 0 2.7 0.8 1.1 2.3 1.1 3.1 0.1 0.6-0.7 1.1-1.6 1.4-2.7 0.3-0.7 0.4-1.5 0.5-2.3-2 0.8-2 0.8-3 0.3-0.7-1-0.6 0.3-0.5 2.4 0.1 2.6 0.1 3.4 0.2 3.9 3 1.7 3 1.7 3.5 1.2-2.7-0.9-2.7-0.9-3-1.6 0.2 2.4 0.2 2.9 0.6 3.5 0.7 1.1 2 1.3 3 0.7-1.9-1.4-1.8-0.8-1.8-0.1 0.1 1.5 0.2 1.9 0.2 2.2 0.4 1.8 2.9 2.2 3.8 0.5 0.4-0.9 0.6-2.1 0.8-4.1 0-0.7 0.2-2.8 0.2-3.1 0.4-1.8 1-4.5 1.1-5.1 0.2-1.2 0.4-1.9 0.5-2-0.8 1-0.8 1-2.2 1.1-0.6 1.1-0.6 1.1 0.9 1.4 1.8-1.9 1.9-2.3 2-4l-1.8-2.2c0.1 2 0.3 2 0.5 2.1 2.3 0.6 3 0.2 3.3-0.5 0.8-1.9 0.9-2 0.9-2-1.1 1.2-2.2 1.4-3.1 0.6-0.5-0.5-0.1 1.7 0 2 1.9 1.9 2.8 1.8 3.4 1.3 1-0.7 1.6-1.8 1.9-3.2 0.4-1.9 0.5-2.5 0.5-2.6-2.8 1.5-2.8 1.5-3.5 0.7 0.3 1.8 0.3 1.8 1.1 2.4 0.9 0.4 1.9 0.2 2.5-0.7l0.4-2.4c-1.5 1.6-1.1 2.1-0.6 2.5 0.7 0.5 1.6 0.5 2.3 0.1l-2.5-0.8c1.2 1.8 2.6 2.4 4 2.1-0.9 1.8-0.9 1.8-0.8 2l0.6 2c0.5 0.8 0.8 1.5 1 2.1 0.5 1.7 0.5 1.7 1.3 2.4 1.2 0.7 2.6 0 2.9-1.3 0.4-1.7 0.9-4.5 0.8-4.5l-0.2-3.1c0.8 2.4 1.7 1.5 2.2 0.4 0.4-1.5 0.5-2.2 0.5-2.2-2.1 1.4-2.1 1.4-3.1 0.9-0.4 1.6-0.4 1.9-0.4 2.3 0.2 2.4 0.3 2.9 0.6 3.6 1.3 2.4 1.3 2.9 1.5 4.5 0.2 2.4 0.2 2.7 0.3 3.1 1.4 2.7 1.4 2.7 3.4 2.2 0.9-1.8 0.9-2 1-2.6 0.3-1.3 0.6-2.2 0.9-3.4 0.2-0.7 0.7-3.1 0.8-3.3 0.2-0.1 0.4-0.9 0.6-2.2 0-0.4 0.2-1.8 0.2-1.6-2.5 1.3-2.5 1.3-3.4 0.5-0.4-0.7-0.3 0.6-0.2 2.3 0.1 2 0.1 2.7 0.2 3.2 0.7 2.6 1.2 4.5 1.2 4.5 1 2.6 1.7 3.2 3 2.9 1.5-1.5 1.6-1.7 1.6-2.1-0.6 0.9-0.6 0.9-2.5 1-1.2-1.3-1.1-0.6-1.1 0.6 0.2 1.9 0.2 2.1 0.2 2.2 2.7 2 2.7 2 3.6 1.3 0.5-1.4 0.6-1.7 0.6-2.1 0.1-0.5 0.1-1 0.2-2.2 0.1-1.5 0.1-2.1 0.2-3.3 0.1-2.7 0.2-3.8 0.3-4.4 0.4-1.4 0.7-1.9 0.8-2 0.5-1.4 0.6-1.8 0.6-2.1 1.3-0.2 1.7-0.3 2.1-0.6 0.8-1.7 0.9-2.1 1-2.5-2.3-1.1-2.5-1.3-2.6-1.6 1 1.7 1.1 2 1.2 2.3q0.1 0.6 0.2 2.3c0 0.4 0.1 1.8 0.1 1.4 0.3 3.1 1.8 3.9 3 3.2 1.5-1.9 1.6-2.3 1.6-2.2-3.3 0.4-3.3 0.4-3.5-0.1-0.1 1 0 2 0 2.2 0.1 1.9 0.1 2.8 0.3 3.4 0.4 1.3 1.9 1.8 3 1.1 2.2-2.3 2.3-2.8 2.5-4 0.4-0.3 0.7-1.2 1-2.2 0.4-2.4 0.6-3.1 0.9-4.5 0.4-1.7 0.5-2.2 0.7-2.8 0.2-1.7 0.3-2.4 0.3-2.5-2.8 1.2-2.8 1.2-3.3 0.8-0.1 1.8-0.1 2.1 0 2.9 0.1 1.2 0.2 1.6 0.3 2.1 1.4 2 2.8 2.1 3.9 1.2 1.3-1.7 1.4-1.9 1.5-2.3 0.6-2.1 0.7-2.9 1-5.5 0.3-2.7 0.4-3.2 0.4-3.7 0.2-1.8 0.2-1.7-0.3-1.3l-2.7-0.2c1.4 1.8 1.4 1.8 1.7 2.1 0.4 0.5 1.1 0.8 2 0.5 1.5-2.1 1.6-2.2 1.6-2.5-0.9 1.2-2.9 1-3.6-0.4 0.2 2.4 0.2 2.7 0.3 3.1 0.2 2.5 0.3 3 0.6 3.7 2.6 1.7 4 1.4 4.8 0.2-2.7 0.2-2.7 0.2-3-0.4 0.2 2.2 0.3 2.4 0.6 2.8 1 1.2 3 0.7 3.4-0.9 0.2-0.7 0.3-1.5 0.5-2.3-1.4-0.4-2-0.5-2.5-0.8l2.2 0.2c-1.8 1.1-1.6 1.5-1.4 1.9 0.5 0.9 1.3 1.5 2.6 1.1 1.5-1.8 1.5-2.1 1.6-2.4 0-0.5 0.1-1.1 0.2-2.7 0.1-1.3 0.1-1.8 0.2-2.3 0.1-1.6 0.2-1.9 0.2-2l-2.5 0.9c1.3 2.2 1.3 2.2 3 2.7 1.8-1.7 1.9-1.8 1.9-2l-1.7-2.2c1 1.8 0.2 1.9-0.3 1.6 1.8 1.8 3 1.5 3.7 0.6-2.2 0.5-2.5 0.3-2.7 0.1 0.7 0.8 1.4 1.2 2.5 0.9 1.4-1.7 1.4-2 1.5-3.5 0.2-0.9 0.6-1.4 1-2 0.9-1.5 1.1-2.5 1.3-4.5 0.3-2.8 0.3-3.5 0.3-3.6l-3.2 0.9c0.8 0.8 2.6 1.9 2.1 1.5 0.8 1.1 1.9 1.4 2.8 0.8 1.2-1.8 1.3-2.1 1.3-2.1 0.6-2 0.6-2 0.6-1.9l-3.2 0.4q0.6 0.6 1 2c0.5 2.4 0.6 3.4 0.6 3.5 0.2 0.8 0.3 1.5 0.4 2.4 0.1 0.5 0.2 2.5 0.2 2.1 0.1 1.1 0.2 1.5 0.4 2 0.6 1.3 2.1 1.7 3.2 0.9 1.5-1.9 1.5-2 1.5-2-1.4 0.7-2 0.6-2.5 0.2 2.3 2.5 4.6 2.5 5.6 0.5 0.4-2.1 0.5-2.8 0.5-2.9-2.3 1.5-2.3 1.5-3.3 0.9-0.3 2.6-0.2 3.1-0.2 3.5 0.3 1 1.3 1.7 2.4 1.5-0.4 1.5-0.3 2-0.2 2.1 1.1 2.4 2.5 3.5 4.2 2.1-1.5 0.7-2.5 0.1-2.9-0.7 0.2 1.7 0.2 2 0.3 2.3 0.3 1.1 1 3.1 1.4 3.9 0.5 1 1.7 1.5 2.8 0.9 1.7-1.8 1.8-2 1.9-2.5-2.6 1-2.6 1-3.2 0.3-0.2 1.5-0.1 2 0.4 2.6 0.8 1 2.5 1 3.2-0.2q0.8-1.2 1.4-2.7 0.5-1.6 0.8-3.5c0.1-0.6 0.2-2.1 0.2-2l-2 1.7c-0.1 1.4 0 1.8 0.2 2.6 0.3 1.8 0.4 2 0.4 2.2 1.2 1.5 2 1.9 3.1 1.6 0.6-0.2-1-0.5-1.6-1.5 0.5 2.4 0.6 2.8 0.7 3.2 1.7 2.3 2.7 2.4 3.5 1.8 0.9-2.1 1-2.4 1-3l-3.7-0.9c0.6 2.1 0.6 2.1 0.7 2.3 0.8 1.4 1.9 2 3.1 1.2 1-1.6 1-1.8 1-2l-3.3-0.6c1.1 2.1 1.1 2.3 1.2 2.6 2.2 1.7 2.2 1.7 3.4 1 0.7-1.4 0.8-1.7 0.9-3.7 0.2-2.1 0.2-2.1 0.2-2.3l-1.6-2.6c-1 2.3 0.2 3.1 1.6 2.6 2.2-2.5 2.4-3.1 2.6-3.8l-3.5-0.6c0.6 1.8 0.7 1.9 1 2.3 0.9 0.9 2.3 0.8 3.1 0 0.5-0.5 1.2-1.9 1.6-2.9 0.4-1.4 0.6-2.5 0.7-3.7-0.1-0.4-0.1-0.4-2.3-0.1-0.4 1.3-0.4 1.3 1.6 1.5 1.5-2.1 1.5-2.7 1.5-3.8 0.1-1.5 0.1-1.8 0.1-2.1q0.1-2.1 0.2-3c0.1-0.8 0.3-1.4 0.6-2.3 0.5-1.6 0.6-1.9 0.7-2.3 0.3-1.9 0.3-1.9 0.3-2.1 0.2-1.4 0.2-1.8 0.3-2.9-2.2-0.4-2.2-0.4-3.1-1-0.3 2-0.3 2.3-0.2 2.7 0.3 1.1 1.4 1.7 2.5 1.4 1.6 0.1 1.6 0.1 2.3-0.1 1.3-1.9 1.8-3.6 1.9-4 0.2-1 0.2-1.3 0.3-2l-1.7-2.4c-1 1.9-0.7 2.4-0.5 2.7 1 1.7 1 1.7 2.2 2 2.2-2.6 2.4-3.5 2.5-4.4 0.3-2.1 0.3-2.4 0.4-3l-1.7-2.1c0.5 2.4 1.6 2.5 2.5 2.2-1.1 0.2-2.1-0.5-2.3-1.4 0.1 2 0.2 2.3 0.2 2.6 0.2 1.5 0.2 1.5 2.3 2.3 1.9-2.1 1.9-2.3 1.9-2.6 0.1-1.7 0.2-2.2 0.2-2.2-1.1 1.1-1.9 1-2.2 0.5 0.4 0.7 0.4 0.7 2.1 1.3 1.9-1.5 1.9-1.8 2-2.4 0.2-1.8 0.2-2.3 0.2-2.3h-3.8q0.2 0.8 0.4 3c0 0.5 0.2 2.7 0.1 1.9 0.1 1.3 0.2 1.9 0.3 2.4 1.5 1.8 1.5 1.8 1.7 2.3 3 1.5 3.7 0.8 4.1-0.3 0.4-1.6 0.6-2.3 0.5-2.2l-2.4 1.2c1.9 0.6 2 0.7 2.3 0.7 1.4-0.2 0.3 0.1-0.6-0.6 0.5 1.3 1.6 2 2.9 1.1 0.9-1.7 0.9-1.9 1-2.1-2.7 0.1-3-0.2-3.2-0.6 0.9 2.1 1 2.4 1.3 2.7 1 1 2.8 0.6 3.3-0.8 0.6-2.5 0.7-3.1 0.8-3.8 0.2-1.9 0.2-2.3 0.3-3.1 0.1-1.4 0.2-2 0.2-2.5 0.1-0.3 0.8-3.5 1-4.3 0.4-1.6 0.6-2.7 0.7-3.5 0.2-2 0.2-2.4 0.3-2.8-2.2-0.1-2.2-0.1-3.2-0.7-0.2 2-0.2 2 0 2.4 2.7 0.9 2.7 0.9 3.3 0.2 0.6-2.1 0.7-2.5 0.7-3.3 0.2-1.8 0.2-2.1 0.3-2.5 0.1-1.4 0.1-1.9 0.2-2.3l-0.7-3.1c-1.5 1.7-1.4 2.1-1.3 2.8 1 2.1 1 2.1 2.1 2.4 2-1.4 2-1.4 2.1-1.6 0.2-1.7 0.2-1.9 0.3-2-2.8 1.2-2.8 1.2-3.4 0.7 0.3 2 0.7 2.5 1.5 2.7 0.9 0.1 1.7-0.2 2.1-1 0.7-1.2 1.2-2.2 1.5-3.2 0.4-1.5 0.5-2.3 0.4-2-0.4-0.1-1.2 0.4-2.3 0-1.1-1.2-1-0.5-1 0.2 0.1 1.4 0.2 1.8 0.3 2.2 1.4 1.4 1.6 1.6 1.7 2 0.4 2 0.5 2.3 0.6 2.5 1 1.4 2.8 1.9 3.9 0.2 0.7-2.3 0.7-2.8 0.7-3.7 0.1-1.8 0.2-2.6 0.2-2.6l-3.3 0.6c0.8 1.9 0.9 2.4 1 2.9 0.3 2 0.3 2 0.7 2.6 2.4 0.5 2.4 0.5 2.9 0.1 0.6-1.4 0.7-1.6 0.7-2.1l-2.7 0.7c1.6 0.8 2.7-0.2 3.1-1.4 0.4-1.9 0.4-1.9 0.4-1.9-1.5 1.5-2.6 1.3-3.2 0.6 0.6 3.4 0.7 3.6 0.8 4 0.6 1.4 1.2 2.8 1.2 2.7 0.2 2.6 0.3 3.2 0.4 3.7 0.4 1.2 1.1 2.7 1.6 3.4 0.3 1.1 0.4 2.2 0.4 2 2.3 2.4 2.3 2.4 3.4 1.8 0.8-2.1 0.8-2.4 0.9-3.1-0.9 0.4-2.5 0.5-3.4-0.6-0.1 1.2 0 1.6 0.4 2.2 0.7 1 2.1 1.1 3 0.2-1.1-0.8-0.7 1.7-0.7 1.8 1.9 2.1 2.9 1.9 3.6 1.2 0.8-1.4 1.2-3.5 1.8-6.8 0.2-1.2 0.4-3.5 0.4-2.8-0.7 1.1-0.7 1.1-2.7 1.2-0.8 1.7-0.8 2-0.7 2.3 2.5 1.4 2.5 1.4 3.4 0.7 0.7-1.9 0.7-2 0.7-2.1-0.8 1.5-2.6 1.8-3.5 0.5 0 1.4 0.1 1.9 0.4 2.4 3.5 1.4 4.8 0 5.4-1.9-0.6-0.3-0.6-0.3-2.2-0.3 2.5 0.8 2.5 0.8 2.8 0.3 0.3-1.9 0.3-1.9 0.4-2.1-1.1 0.5-1.8 0.6-2.5 0.3 0 1.8 0.1 2 0.1 2.2 1 1.6 2.5 2.1 3.7 1l-1-2.5c2 0.5 2.1 0.1 2.3-0.4-1.4 0.6-2.8 0-3.3-1.1 0 0.5 0 1.1 0.4 8.2 0.2 3.8 0.3 5.5 0.4 6.8 0.2 2.1 0.3 2.3 0.3 2.4 1.2 1.8 1.2 1.8 2.8 1.6 1.3-2 1.3-2.2 1.3-2.5q0-0.8 0.1-2.3c0-1.6 0-3.5 0.1-6.6 0-0.6 0-2.5 0-2.8 0.1-3.5 0.1-5.2 0.1-6.2 2.9-1.9 3.2-2 3.3-2 1-0.4 0.4-0.4-0.1-0.7 0.2 1.6 1.6 2 2.6 1.2 1.8-0.5 2.5-1 2.8-1.7 0.3-0.8 0.6-1.9 0.7-3.4 0.1-0.7 0.3-2.6 0.3-2.8l-1.6-2.3c2.2 0.6 2.8-0.2 3.2-1.1l-3.4-1.1c0.4 1.1 0.7 1.6 1.5 2 0.9 0.5 1.9 0.2 2.5-0.4 0.7-1 1.1-1.8 1.5-2.9l-1.1-2.7c-1 2.1-0.3 2.7 0.8 2.7 1.1 0 1.7-0.7 2.1-1.5l-2.8 0.4c1.2 0.9 2.4 0.5 3.3-0.4 1-1.7 1.3-2.4 1.3-2.5-0.3 0.7 1.4 0.1 1.6-0.1 1.7-2.2 1.8-2.7 1.9-3 0.7-1.8 0.8-1.9 1-3.4 1.4-2 1.5-2.2 1.5-2.2l-3.4-0.5c0.5 1.9 0.7 2.9 0.7 3.1 1.7 1.8 2.7 1.8 3.6 1.3 1.6-1.6 1.1-1.4 0.4-1.6 1.9 0.1 2.6-0.6 2.8-1.4 0.2-1.2 0.3-1.9 0.3-2.1 0.4-2.4 0.8-3.9 1.4-5.9 0.2-0.7 0.4-1.3 0.6-2.2l-3.5-0.5c1 1.4 1.7 1.8 2.6 1.6 1.8-2 1.8-2 1.8-2.1 1.4-2.1 1.7-2.6 1.9-3.8 0-0.4 0.1-0.9 0.2-2l-1.8-2.1c1.9 0.8 1.9 0.9 2 0.9l0.1-2c-1.2 2-1.1 2.1-0.9 2.4 0.3 1.9 0.4 2.2 0.4 2.5 1.6 2.4 2.7 2.4 3.4 1.8 1-0.8 1.7-1.6 2.1-2.3 1-3 1.5-5.5 1.3-4.8 0.3-1.1 0.3-1.1 0.8-2.7 0.4-1.1 0.5-1.7 0.7-2.2 0.1-0.8 0.2-1.2 0.3-2.4 0.3-1.5 0.4-1.9 0.7-3.2-0.6 0.7-1.9 1.2-3.1 0.2 0.4 3 1.8 3.7 3.1 2.6 1-2 1-2.2 1.2-3-1.9-0.4-2.5-0.8-2.9-1.4 0 2.3 0 2.7 0.1 3.1 0.3 1.4 2 2 3.1 1.2 1.3 1 2.8 0.6 3.5-0.6 0.5-1.5 0.6-1.9 0.6-2q0.3-1.1 0.5-2.3c0.2-2.2 0.3-2.5 0.3-2.7 1-1.8 1.1-2 1.2-2.3 0.3-0.9 0.8-2.2 0.8-2.4 0.4-2.4 0.5-2.8 0.5-2.8 0.3 0.1 0.6-1 1.1-3.3 0.2-0.7 0.6-2.7 0.6-2.9 0.5-1.4 0.5-1.4 0.7-2.5-1.4 1.5-2.9 1.1-3.5 0.1 0 1.6 0 1.9 0 2.2 0.5 1.6 0.5 1.6 1 2.1 1.1 0.5 1.1 0.5 2.3 0 0.9-1.9 1-2.3 1-2.4l-3.2 0.2c1.4 2.3 1.6 3.3 1.6 3.3 0.3 0.9 1.2 1.5 2.1 1.4 0.7 2.7 2.1 3 3 2.4 0.8-0.5 1.1-1.2 1.4-2.1l-3.6-1.2c0.1 0.8 0.3 1.5 0.4 2.4 0 0.5 0.3 2.8 0.2 2 0.4 2.5 0.7 3.2 1.1 3.8 0.9 1.5 1.4 1.9 2.1 2 1.1 0.1 1.8-0.4 2.2-1.2 0.6-1.6 0.7-2.3 0.7-3.1 0.2-1.8 0.2-2.2 0.3-3.1 0.1-1.6 0.2-2.3 0.2-2.6 0.9 0.9 1.8-0.1 2.1-1.9 0.3-2.4 0.4-3 0.3-2.9l-2.7 1.1c2.3 1.1 3.5-0.3 4.4-2.7 0.1-0.5 0.6-2 0.5-1.5 0.3-0.8 0.9-2.5 0.7-2.1 0.4-0.8 0.8-2 0.7-1.8-1.1 1.2-2.2 1.3-2.9 0.7 0.7 2.1 0.7 2.1 1.1 2.5 1.1 1 2.8 0.5 3.3-0.8 0.2-0.7 0.4-1.3 0.6-2.1h-3.2c1 1.1 2.7 1.2 3.6-0.2l-1.3-2.4c0.5 1.9 0.5 1.9 0.4 1.8-0.7-0.6 0.5 1.3 2.1 1 0.7 1.5 1.5 1.1 2.1 0.5 0.9-1.3 1.2-1.8 1.4-2.3 0.4-1.6 0.5-2.2 0.5-2.2-0.7 1.2-0.7 1.2-2.6 1.2 0.3 3 2.4 2.8 3 1.2 0.4-1.2 0.5-1.7 0.6-2.2l-1.6-2c-0.7 2.2-0.5 2.6-0.4 3.7 0.4 2 0.4 2.3 0.6 2.7 0.6 1.8 0.7 1.9 0.8 2.2 2.3 1.4 3 1.1 3.5 0.5 1.5-2 1.8-2.7 2-4.1 0.1-0.4 0.1-0.8 0.2-2l-1.7-2.3c-0.3 2-0.1 2.1 0 2.1 2.1 0.5 3 0.3 3.6-0.6 0.5-0.6 0.6-1 0.7-2.1l-3.7-0.6c0.1 0.3 0.3 1 0.4 2 0.1 0.6 0.3 2.8 0.3 3.1 0.5 1 0.8 1.8 1.1 2.9 0.1 0.6 0.6 2.5 0.6 2.8 0.3 1 1.4 1.7 2.5 1.4 1.2-0.4 1.8-1.2 2.2-2.3-3-0.3-3-0.3-3.2-0.9 0 1.3 0.1 1.8 0.4 2.3 2.2 1 2.4 1 2.5 1 1.3 0.6 2.1 0.5 2.6 0 0.9-2.2 1-3.5 1.2-5.2 0.1-1.7 0.1-2.6 0.1-2.8 0.1-1.2 0.2-1.9 0.2-2.3l-0.7-2.6c0.3 2 0.5 2.1 0.7 2.3 1.2 1.3 1.7 1.6 2.6 1.4 1.8-2.2 1.9-2.5 1.9-3 0.2-1.3 0.2-1.7 0.3-2.6-2.5-0.8-2.8-1.2-3.1-1.8 0.7 1.7 1.1 2 1.6 2.2 2.1 0.7 3.6-0.5 4-2.4 0.4-1.6 0.6-2.6 0.7-3.8 0.1-1 0.3-3.6 0.4-3.7l-2.5 1.6c2.2 2 3.8 2.3 4.9 0.8 0.7-1.9 0.7-1.9 0.7-2 0.3-1.2 0.9-2.6 1.3-3.3 0.4-0.8 0.8-1.7 1-2.8 0.2-0.5 0.4-2 0.4-1.7 0.2-0.5 0.5-1.2 0.8-2 1.1-2.6 1.5-4.2 1.5-4.2 0.3-0.6 0.5-1.3 0.6-2.3l-1.6-2.5c2.2 0.8 2.8-0.3 3.2-1.5 0.4-1.9 0.5-2.6 0.5-2.6-1.9 1-2.2 0.8-2.5 0.6 1.3 1.1 2.1 1.1 2.8 0.7 1.8-0.7 2.2-0.9 2.6-1.4 0.6-1.2 1-2.3 0.9-2.2 0.7-1 0.4-2.2-0.5-2.8-0.9-0.6-2.2-0.4-2.8 0.6-0.4 0.7-0.8 1.9-1 2.5 0.6-1.1 0-0.8-1.2-0.1h2c-2.3-0.9-3-0.5-3.7 0.2-0.6 1.4-0.7 2.1-0.7 2.3-0.4 1.6-0.6 1.9-0.8 2.1-0.8 1.2-0.9 1.6-1 2.4-0.2 1.7-0.3 2.1-0.4 2.3-0.2 0.4-0.8 2.4-0.9 3 0.5-1.3-1.1 2.4-1.7 3.9-0.5 2.4-0.7 3-1.1 3.6-0.5 1.1-1.1 2.7-1.4 3.7 0.6 0.1 1.7 0.4 2.1 0.8-2-1.7-2.4-1.8-3-2-1.1-0.3-2.3 0.4-2.5 1.6 0 0.3-0.3 3.1-0.4 3.9q-0.1 1.6-0.4 2.4l0.3 2.4c1.4-2 1.3-2.2 1.2-2.4-2.6-0.9-3.2-0.3-3.6 0.4-0.5 1.7-0.5 2.1-0.7 3.1-0.2 1.7-0.2 2-0.2 2.3 2-0.2 2-0.2 2.5 0-1.3-1.4-2.4-2-3.8-2-1.5 0.8-2 1.3-2.3 1.6-0.4 0.7-0.8 1.5-0.9 2.4-0.1 0.6-0.2 1.3-0.3 2.7-0.1 1.9-0.1 2.3-0.1 2.8-0.1 1.5-0.3 2.6-0.4 3.5 1.1-1.6 1.9-1.7 2.5-1.5-0.9-0.5-1.7-0.6-2.6-0.6 1.1-1.7 1.1-1.7-0.8-2.2-1.8 2.1-1.9 2.2-1.9 2.4l2.9 1.2c0-0.2-0.5-2-0.6-2.6-0.5-1.9-0.9-2.9-1.5-3.6 0.5 0.8 0.3-1.2 0.2-2-0.2-1.3-0.4-2.3-0.7-3-0.6-1.7-2.9-1.7-3.6-0.1-0.4 2-0.4 2.1-0.4 2.2-1-1.5-2.1-0.8-2.3 0.3-0.1 0.4-0.1 0.9-0.2 2.3-0.3 2.3-0.4 2.4-1.5 3.9 2.4-0.6 2.8-0.4 3-0.1-0.1-1.1-0.3-1.6-0.8-2.1 0-2.2-0.1-2.5-0.4-3.2-0.3-0.8-0.8-1.7-1.6-2.6-0.8-0.8-2.1-0.9-2.9-0.1-0.8 2-0.9 2.7-1 2.8l1.5 2.2c1.8-1.9 1.7-2.1 1.7-2.3-3.3-1.9-3.3-1.9-3.8-1.1-0.5 2.2-0.5 2.3-0.5 2.3 1.8 1 2.1 1.2 2.2 1.5-1.1-2.4-2.3-2.7-3.3-2.1l0.8 2c0.6-1.9 0.6-1.9 1.1-1.6-0.9-1-2-1.3-3.3-1.2-1.8 1.2-1.9 1.5-2 2.2 0.7-1 2.2-1 2.8-0.2-0.7-0.9-2-0.9-2.8-0.2-0.6 0.5-1.3 3.3-1.4 3.6l3.2-0.9c-0.8-2-0.9-2.3-1.3-2.6-0.8-0.7-2-0.7-2.8 0.1-0.6 1-0.9 2-1 2.2-0.6 1.7-0.7 2.1-0.9 2.5-0.7 1.9-0.9 2.2-0.9 2.3 0.4-0.7-0.9-0.3-1.3 0.8-0.2 0.5-0.2 0.7-0.4 2.3-0.2 1.7 0 1.4-0.8 1.7-1.5 2-1.5 2.6-1.7 4.6-0.1 1.7-0.2 2.7-0.2 3l1.2 2.7c1.7-1.2 1.2-1.9 1.1-2-0.4-1.2-0.5-1.5-0.5-2.2 0 0.8-0.2-1.5-0.3-2.1-0.1-0.9-0.2-1.8-0.4-2.7-0.2-1.1-1.4-1.8-2.5-1.5-1.6 2.1-1.6 2.2-1.7 2.4l3.2 0.6c-1.4-2.9-2.3-3.9-4-3.8l2 1.4c-0.7-2.5-1.3-3.5-2.1-4.4-1-1.1-1.8-1.2-2.6-1-1.4 2.1-1.4 2.3-1.5 2.7 1.9-1 1.9-1 3-0.4 0.4-2.5 0.4-2.7 0.1-3.1-0.6-1.1-2.1-1.5-3.2-0.4-0.8 2.5-0.8 2.5-0.9 2.9-0.4 1.3-0.8 3.2-1 3.9-0.5 1.9-0.6 2.1-0.6 2.2-0.5 1-0.5 1.2-0.7 2.4-0.2 1.3-0.7 2.6-0.9 3.4-0.9 1.5-1.1 2.1-1.3 2.7-0.3 1.7-0.4 2.2-0.4 2.3-0.2 1.5-0.3 2.2-0.5 2.8 0.4 0.1 1.6-0.2 2.4 0.4-1.4-1.3-3.1-1.5-4.9-0.2l3.1 1.3c-0.1-2.2-0.2-2.7-0.2-3-0.8-2.1-1.5-2.5-2.4-2.4-1.8 1.6-1.9 1.8-2 2-0.5 2.2-0.6 2.5-0.7 2.8 1.6-1.4 2.9-0.7 3.4 0.3-0.1-1.8-0.1-1.9-0.1-2.1-1.8-2.1-3.2-1.6-3.8-0.6-0.7 2.7-0.8 3.1-1 4-0.3 2.2-0.3 2.4-0.4 3-0.8 2.5-0.9 2.7-1 3-0.5 1.8-0.5 1.8-0.5 2-0.3 1.7-0.5 2.3-0.6 3l-0.1 3.3c1.6-2.5 1.6-2.8 1.5-3.1-0.3-1-1.5-3.1-1.5-3-3-1.1-4.1-0.6-5.3 0.8-0.5 1.4-0.6 1.9-0.7 3-0.3 2.2-0.3 2.3-1.5 4.1 1.6 0.1 2.2 0.4 2.6 0.8-0.6-1.1-2.1-1.5-3.1-0.6-0.6 0.5-1.3 3.5-1.4 3.8-0.7 2.3-1.1 3.9-1.3 5-0.3 2.1-0.4 2.8-0.4 2.8 2.2-1 2.5-0.9 2.4-0.9-1.2-0.4-2.4 0.1-3.3 1.3l-0.1 2.3c2.1 0.4 1.5-2.8 1-4-2-1.3-2-1.3-2.5-1.2-0.8 0.2-2.1 2.3-2.6 2.9-0.8 3-0.8 3-1 3.4-0.3 0.7-0.5 1.2-1 2.8 0.7-1-0.8-0.4-1.8 0-1.1 1.1-1.4 1.9-1.5 2.1 1.1-0.2 0.2-0.2-0.5 0.3-0.6 0.4-1.5 2.6-0.8 1.1 2.1-0.8 2.3-0.7 2.3-0.6-0.9-1.3-2.8-1.1-3.4 0.3-0.2 0.3-0.7 1.8-0.8 2.1-0.9 1.8-0.9 1.7-0.7 1.5 0.5-0.5 1.3-0.8 2.1-0.4 0.2-0.8-1-1.4-2.1-0.9-1.1 1.2-1.4 1.9-1.4 2.1-1.6 2.3-1.7 2.8-1.8 3.7-0.1 1-0.3 2.9-0.4 3.6-0.1 1.1-0.2 1.8-0.4 2.2 2.2-1.2 2.2-1.2 2.5-1.1-1-0.5-2-0.1-3.9 1.2l3 0.8c-0.3-1.2-0.6-1.8-1.3-2.2-1.4-0.8-2.6-0.2-3.4 1 0.4-0.9-0.8-0.4-2.6 1.1-1.4 1-2 1.8-2.8 2.8-0.4 2-0.4 3.8-0.5 7.4 0 0.2 0 2.2 0 2.8-0.1 3-0.1 5-0.1 6.5q-0.1 1.4-0.1 2.1c2.7-1 2.7-1 3.4-0.3 0.1-2.5 0-4.2-0.1-6.7-0.5-8.5-0.6-9-0.7-10.1-0.6-1.8-2.1-2.4-3.3-1.4-0.8 1.3-1 2.1-1 2.2 2 0.9 2.2 1.1 2.3 1.2-0.5-1.8-0.6-2.1-0.7-2.4-2.8-2.1-3.7-1.4-4.1-0.4-0.3 2.1-0.3 2.1-0.4 2.3 0.8-1.2 2.6-1.4 3.5-0.2-2.9-1.9-2.9-1.9-3.6-1.1-0.4 0.8-0.5 1.8-0.6 2.1l0.1 2.1c1.8-1.5 1.7-2 1.7-2.1-1.4-2.9-3.1-2.6-3.9-1.5 0.8 0.3 0.8 0.3 2.5 0.7 0.8 1.1 0.7 0.4 0.7-0.2-0.2-1.9-0.2-1.9-0.3-2.1-3.2-1.2-3.2-1.2-3.7-0.4-0.3 0.6-0.5 2.7-0.5 3.2-0.6 3-1.1 5.4-1.2 5.7 0.9-1.1 1.9-1.3 2.8-0.7 0.8 1 0.4-1.5 0.1-2.7-1.1-1.8-1.9-2.1-2.8-1.9-0.8 0.2-1.5 0.7-2.6 1.8l3 0.2c-0.1-1.6-0.2-1.9-0.4-2.2-0.9-1.2-2.5-1.1-3.2 0-0.5 1.8-0.6 2.1-0.6 2.7 1.5-0.3 1.5-0.3 2.9 0.2 0.8 1.2 0.6 0 0.6-0.3-0.6-2.6-1.1-3.3-2.4-3.5 1.2 0.6 0.7-0.6 0.5-1.2-0.2-1.4-0.2-1.7-0.2-2.1-0.4-2-1.1-3.6-1.5-4.7-0.5-2.1-0.5-2.1-0.6-2.2-0.6-2.4-0.7-2.7-1.1-3.1-0.7-0.7-1.8-0.9-2.7-0.2-0.9 1.9-1 2.3-1 2.3 0.8-0.5 1.7-0.7 2.3-0.3-0.8-0.4-1.8-0.2-2.4 0.5-0.7 2.2-0.7 2.4-0.7 2.4 2.9-1.1 2.9-1.1 3.3-0.7 0.2-1.1 0.1-1.8-0.1-2.5-0.3-1.2-0.8-2.2-1.6-3-1-1.1-2.8-0.8-3.3 0.6-0.3 0.6-0.3 1.4-0.4 3.2-0.1 1.5-0.1 1.9-0.2 2.2 0.5-0.4 1.2-0.8 2.1-0.5 1.1 1.4 1 0.5 0.9 0.3-0.8-2.8-1.7-3.9-3.1-4.5 1.1 1.3 1.1 0.8 1-0.1-0.1-1.8-0.2-2-0.3-2.4-2.4-1.7-3.2-1.2-3.7-0.4-0.5 1.9-0.6 2-0.6 2.1-0.3 1.8-0.5 2.4-1.4 4l2.1-0.9c0.1-2.1 0.1-2.1-1.2-2.2-1.6 1.7-1.7 1.9-1.7 2 2.9 0.6 2.9 0.6 3.2 1-0.3-2.1-0.4-2.4-0.5-2.6-0.5-1.4-2.2-1.7-3.3-0.7-0.6 0.6-1.4 2.2-1.7 3.4-0.2 0.8-0.3 1.4-0.4 2.8-0.1 1.5-0.2 1.9-0.3 2.7 0.8 0.6 0.8 0.6 2.2 0.5 1.1-1.6 1.1-1.6 0.5-2.3-0.9-0.6-0.9-0.6-2.3-0.3-1.1 1.4-1.1 1.6-1.2 2.6 0.1-0.8 0 1.6-0.1 2.2-0.3 2-0.5 3.1-0.8 4.5-0.2 0.9-0.9 4-1 4.4-0.1 0.8-0.2 1.4-0.3 2.9-0.1 1-0.2 2.7-0.3 3.1-0.3 2-0.4 2.5-0.6 2.9l3.3-0.8c-0.7-1.8-0.8-2-0.9-2.1-2.7-1.1-3.3-0.4-3.7 0.3-0.3 2-0.3 2-0.3 2.2 1.8-1.2 1.8-1.2 2.8-0.9-1.2-1.7-2.6-1.3-3.4-0.3 1.6-0.8 1.5-0.9 1.3-1-2.2-0.6-3.3-0.1-3.6 0.9-0.2 0.3-0.4 1.9-0.4 1.6l3.2 0.8c-0.4-1-0.8-1.7-2.2-2.8 0.6 0.9 0.6 0.4 0.5-0.6-0.3-3.7-0.4-4.9-0.7-5.8-0.5-1.9-3.2-1.9-3.8-0.1-0.1 0.4-0.2 0.7-0.3 2.1 3.3 0.4 3.3 0.4 3.4 0.8-1-1.8-2.6-2.2-4.2-1.3-1.1 1.6-1.2 2.2-1.3 3.3 3.6 0.9 3.6 0.9 3.6 1.3-0.1-2.6-0.2-2.9-0.3-3.3-0.3-1-1.3-1.7-2.5-1.5-1.7-0.4-2.9 0-3.3 1-0.3 0.7-0.4 1.1-0.5 2.6-0.4 3.1-0.5 3.6-0.9 5.3 3.1-1.3 3.1-1.3 3.5-0.8-0.5-1.2-1-2-1.7-2.8-0.9-0.9-2.4-0.9-3.1 0.1-0.6 2-0.6 2.4-0.7 2.9-0.2 2-0.7 3.6-0.9 4.3 2.1-1.7 3.8-0.8 2.5-1.4-0.8-0.3-1.8-0.3-3.2 0l2.5 1.4c-0.2-2.1-0.2-2.4-0.3-2.7-1.6-2.5-1.6-2.5-3.1-2.1-1 1.8-1.1 2-1.1 2.3-0.2 2.6-0.2 3-0.3 3.3-0.2 1.8-0.2 2.2-0.3 2.8-1 3-1.2 3.8-1.3 4.8-0.1 0.8-0.2 1.9-0.3 3.4 0 0.5-0.1 2.7 0 2.1 3.2 0.4 3.2 0.4 3.5 1-0.3-1.5-0.3-1.5-1.4-2.2-2.2 0.3-2.2 0.3-2.5 1.1-0.2 0.3-0.7 3.9-1 5.2 0 0.6 1.2 0.5 2 1.3-0.7-2.2-2.2-2.6-3.2-1.9-0.8 0.5-1.6 3.7-1.6 3.7 1.2-1.8-0.7-1.8-1.5-0.4-0.5 1.9-0.5 2.2-0.6 3-0.1 0.9-0.2 1.3-0.3 2.4-0.1 1.8 0.1 1.5 0.4 1.2 1.2-0.7 1.2-0.7 2.5-0.2 0-0.9-0.5-1.8-1.2-2.8-0.5-0.7-1.4-1-2.2-0.8-1.6 2.1-1.6 2.4-1.6 2.8 1.8-1.2 2.9-0.6 3.4 0.1-0.1-0.9-0.3-1.5-0.6-2.1-0.6-1.7-3-1.8-3.7-0.1-0.3 1.9-0.3 1.9-0.3 2.1 1.4-0.5 2.4-0.4 3 0.1-0.5-3.2-0.5-3.3-0.8-3.8-2.4-1.2-3-0.8-3.4-0.3l2.4 1c-0.6-2.8-0.8-3.3-1-4-0.7-2.2-1.5-3.5-3.4-3.6-1 0-1.9 0.7-2 1.7 0 0.1-0.2 1.5-0.3 2q-0.2 1.5-0.6 2.8l0.8 2.9c1.7-1.6 1.7-2 1.6-2.1-1.6-3.1-3.2-2.5-3.8-1.5l0.5 2.8c1.5-1.5 0.9-3.3 0.7-4.1-0.3-2.4-0.4-2.6-0.6-3-0.4-0.9-1.4-1.5-2.5-1.1 0-3.7-0.9-5-3-4.6l2.4 1.5c-0.3-2.7-0.3-3-0.3-3.4-0.4-1.7-0.4-1.7-0.8-2.1-1-0.7-1-0.7-2.5-0.2-0.9 2-1 2.6-1 2.8-0.5-2.2-1.9-1.8-2.7-0.8 0.3 0.5 1.7 0.8 2.1 1.8 0-0.2-0.2-2.3-0.2-2.8-0.1-1.2-0.3-2.1-0.5-2.8-0.2-2.2-0.4-3-0.6-3.8-0.4-1.5-1.1-2.7-1.9-3.6-0.6-0.7-1.6-0.9-2.4-0.5-1.3 1.8-1.4 2.3-1.4 2.4-0.5 1.2-0.7 2-0.6 1.7 1.5-1.2 2.4-1 2.9-0.4-1.8-1.6-2.1-1.8-2.4-2.1-1.1-1-2.8-0.6-3.3 0.8-0.1 0.5-0.2 0.9-0.3 2.8-0.3 3.1-0.5 3.6-0.9 4.4-1.4 2.2-1.4 2.6-1.5 3.7 2-0.3 2.7 0.1 3.1 0.7-2.5-1.4-3.3-0.8-3.9 0l2.8-0.6c-2.1-1.8-3.3-1.7-4.2-0.8-0.6 1.2-0.6 1.4-0.7 2.1 3.2 0 3.2 0 3.4 0.5-1.3-2.4-2-3-3-3.4-0.9-0.3-1.8-0.1-2.3 0.6-0.6 0.7-0.6 1.1-0.8 2.6-0.1 1.7-0.2 2.3-0.3 3.6-0.1 1.5-0.1 2.1-0.2 2.5 1.7-1.1 2.4-1 2.8-0.6-0.7-2-0.9-2.3-1.1-2.6-1.2-0.9-2-1-2.7-0.6-1.2 1.6-1.2 1.9-1.3 2.2-0.3 2.2-0.4 2.9-0.6 3.5l3.5-0.9c0-1.6 0-1.8-0.3-2.2-0.3-0.6-0.3-0.6-2-1-1.2 0.2-2.1 2-1.5 1.2l2 0.5c-0.2-2-0.2-2.3-0.2-2.6-0.2-2.2-0.3-2.5-0.3-2.9-0.5-1.8-0.5-1.8-1.9-2.5-2.2 1.2-2.2 1.5-2.3 1.7 1.9 0 2.5 0.2 3 0.7-0.4-0.7-0.9-1.3-1.6-2.1-0.7-0.7-1.9-0.8-2.7-0.2-0.9 2.1-1 2.4-1 3-0.2 1.5-0.3 2.1-0.4 3.3-0.4 3.9-0.5 4.5-0.9 6.1l0.2 2c2-0.7 1.9-1.1 1.8-2.2-0.2-1.7-0.2-1.9-0.3-2.4-0.3-2-0.4-2.2-0.5-2.3-3.3-0.6-3.3-0.6-3.6-0.1-0.3 1.3-0.4 1.9-0.4 2.1-0.3 1.7-0.4 2.3-0.8 3.8-0.3 1.6-0.5 2.3-0.6 2.9-0.5 2.3-0.6 2.7-1 3.2-0.7 1.9-0.8 2.1-1 2.2l2.9 1.1c0-0.1-0.1-1-0.1-2.3-0.1-2.3-0.2-2.8-0.2-3.2-3.4-1.3-3.4-1.3-3.7-0.9l0.9 2.6c1.9-0.5 1.9-0.9 1.9-1.7 0 0.4-0.1-1-0.1-1.4-0.1-1.3-0.1-2.2-0.3-2.9-0.1-0.8-0.4-1.5-0.9-2.2-0.9-1.6-1.1-1.9-1.7-2.2-1.1-0.5-2 0-2.6 0.7-0.7 1.6-0.9 2.2-1 2.5l1.4 2.3c-1.7-1.8-2.3-1.7-3.2-1.4-1.3 1.5-1.4 1.7-1.4 2.2-0.4 1.6-0.7 2.1-0.8 2.3-0.4 0.7-0.6 1.5-0.8 2.4-0.1 0.9-0.2 2-0.3 3.9-0.1 2.2-0.1 2.8-0.1 3.3-0.2 2.1-0.2 2.6-0.3 3 1.2-0.9 1.2-0.9 2.9-0.5 0.6-2.5 0.6-2.9 0.5-3.3-3.2-1.5-3.2-1.5-3.6-0.8 2 0.2 2 0.2 2.6 0.7 0.1-0.6-0.4-2.5-0.6-3.1l-2.4-1.1c1.9-0.6 1.9-1.4 1.8-3.2-0.2-3-0.2-3.4-0.3-3.9-1.4-1.5-1.4-1.5-3.1-1.1-1 1.7-1.1 3.1-1.2 3.4-0.5 2-1.1 4.5-1.3 5.1q-0.4 1.5-0.7 2.3c-0.4 2.1-0.4 2.3-0.4 2.4 2.5-1.4 2.5-1.4 3.5-0.4 0-2.1-0.1-2.3-0.1-2.6-0.2-2.3-0.3-3.1-0.8-4.4q-0.5-1.2-1.3-2.2c0.1-1.6 0-1.8 0-2-0.2-2.3-0.2-2.6-0.3-2.9-0.3-1.5-0.4-1.8-0.9-2.1-1-0.5-1-0.5-2.1-0.2-1.2 1.9-1.3 2.5-1.3 2.7 0.6-0.4 1.3-0.6 2.1-0.3-0.8-0.3-1.6-0.1-2.1 0.4-1.5 2.4-1.7 2.7-1.8 2.8-0.5 1-0.9 3.9-1.3 5.5l3-1.3c0.9 1.1 0.7 0.3 0.5-0.2-0.3-1-0.8-2-1.5-3.1-0.4-2.8-0.7-3.6-1.7-5-2.1-0.8-2.2-0.7-2.3-0.7-0.5-1.5-2-1.7-2.9-0.7 0.9-0.5 1.7-0.5 2.2-0.1-1.8-2.2-3.8-1.2-5.3 1l2.5-0.7c-0.4-2-0.4-2-2.4-1.7-0.9 1.7-1 2.4-1 2.6-0.4 1.8-0.6 2.1-0.8 2.3l2.2-0.2c0.7 0.7 0.4-1.1 0.2-1.9-1.6-1.9-2.7-1.7-3.4-1-0.9 1.8-1 2-1.1 2.3 2.2-0.9 2.8-0.6 1.9-1.1-0.7-0.3-1.4-0.5-2.3-0.5-2 1.9-2.1 2.3-2.2 3.9 0.1 0.9-0.2 1.4 1.5 0.3 2.1 1.2 2.1 1.2 2.1 1.3-0.7-2.1-0.7-2.1-1.8-2.6-2.2 1.1-2.2 1.2-2.3 1.4-0.2 0.4-0.3 1.2-0.6 2.6-0.2 0.6-0.7 3.3-0.9 3.9-0.3 1.9-0.5 4.1-0.5 4.7-0.1 1.5-0.3 2.5-0.4 2.7l3.7 0.4c-0.2-3.1-0.2-3.7-0.5-4.3-0.6-1.1-1.9-1.5-3-1 1.1-2.3 1.1-2.3-0.9-2.8-1.7 2.1-1.8 2.1-1.7 2 0.7-0.9 0.7-0.9 2.4-0.9 1.2 1.2 1.2 0.2 1.1-2-0.1-3.1-0.2-3.8-0.3-4.2-1.7-1.7-1.7-1.7-2.9-1.4-1 0.5-1.6 4.2-1.6 4.1l0.9 2.6c1.7-1.9 1.7-2.5 1.7-2.6-0.3-1.5-0.3-1.5-0.9-2.2-1.8-0.4-1.8-0.4-2.7 0.4-0.8 3.1-0.8 3.1-0.8 3.5-0.5 2.1-0.5 2.1-0.6 2.2-0.5 1.8-0.7 2-0.9 2.2-0.8 1.8-0.9 2.8-1 4.6-0.1 2.4-0.1 2.9-0.1 3 3.6-0.7 3.6-0.7 3.7-0.3-0.8-2.5-0.8-2.5-1.4-2.9 0-1.5-0.3-2.2-0.9-2.8-1.1-1.3-2.6-1.7-4.3-1.1l2.2 0.6c-2.8-2.3-4.1-1.9-4.8-0.8-0.4 1-0.6 2.5-0.6 2.5-0.1 1-0.3 1.9-0.5 2.9 1.7-1.6 2.3-1.4 2.8-1.1h-2.6c1.4-3.1 0.9-4.1-0.3-4.7-1.2-0.7-2.7 0.1-2.9 1.5-0.1 2.4-0.1 2.7-0.2 2.9 0 1.2-0.1 2.2-0.1 2.2 0.3-0.8 1.3-1.4 2.3-1-0.9-2.1-2.8-2.5-3.8-0.9-0.7 2-0.8 2.3-0.8 3 1-0.8 2.5-0.8 3.3 0.2 0.1-2.5 0.1-3.1 0.1-3.6-0.6-4.8-1.2-9.3-1.5-10.2-1.9-2.1-3.2-1.5-3.8-0.5-0.3 1.3-0.4 2.3-0.5 2.6l3.3 1c-1.1-2-2.2-2.6-3.7-2.7 0.9-1.8 0.1-2.7-1.4-2.3-1.6 2-1.6 2.4-1.7 3.7 0.7 0.4 0.7 0.4 2 0.3 0.3-1.5-0.2-2-0.7-2.4 0.6 0.8 0.5 0.2 0.5-0.6-0.3-2.8-0.4-3.7-0.6-4.6-0.3-1.4-0.8-2.3-2.5-4.3-0.8-0.9-2.1-1-2.9-0.2 0.7 0.1-0.8 0.2-1.5 1.2-0.8 1.4-1.3 1.6-1.6 2-0.5 0.7-0.6 1-0.8 2.4-0.3 1.8-0.4 2.2-0.5 2.8-0.2 2.6-0.2 2.9-0.3 3.2 0.9-1 0.9-1 2.4-1.1 1.4 1.4 1.3 0.5 1.2 0q-0.3-1.6-0.9-3.1c-1.4-2.5-2.7-2.7-3.6-2.1-1.1 2.1-1.1 2.4-1.2 2.5l3.4 0.9c-0.9-2.2-1.5-3.1-2.4-4.2-0.8-1.1-1.5-1.5-2.4-1.3-1.9 1.8-2 2-2 2.2-0.1 0.6-0.1 1.3-0.2 3.2-0.1 1.6-0.2 2.2-0.2 2.7l2.2 0.6c-0.3-2.6-0.3-2.9-0.4-3.3-1.2-1.4-1.2-1.4-2.7-1.2-1.4 2-1.4 2.1-1.4 2.1 2.6-1.2 2.6-1.2 3.3-0.6 0.1-2 0.1-2.3-0.1-2.7-0.5-1.5-2.6-1.9-3.5-0.5 0.8-0.1 1.9-0.1 2.6 0.6 0.5 0.7 0-1.6-0.2-2.6-0.5-1.8-1-3.1-1.7-4-1.1-2.1-3.2-1.5-5.1 0.7l3.1 0.1c-0.4-1.8-1.1-2.8-2.6-3-0.9-0.1-1.7 0.3-2.1 1.1-1.5 2-1.7 2.2-1.8 2.5-0.3 1.7-0.3 2.4-0.4 2.6-0.2 1.4-0.3 1.8-0.4 2.2-1.7 1.7-1.8 1.9-1.9 2-0.5 1.7-0.3 1.5-0.1 1.3l2.8 0.7c-0.8-1.2-1.4-1.5-2.2-1.5-1.1 0-1.7 0.6-2.2 1.6 2.2-1.1 2.4-1 2.5-0.9-3-2.7-4.8-2.1-5.2-0.6 1-0.1-1-0.2-1.8 1.2-0.2 0.3-0.7 2.7-1 3.4-1.3 1.6-1.7 2.3-2.1 3.2 1.4-0.8 2.3-0.4 2.6 0.1-0.9-1.1-2.7-1-3.3 0.3-0.7 1.9-0.8 2.1-1 2.2-1.1 2.1-1.1 2.1-1.2 2.3-0.6 1.4-0.6 1.7-0.7 2.9 1.7-0.4 1.7-0.4 2.8 0.1 0.7-1.6 0.6-2.2 0.4-2.7-0.6-1.4-2.1-2.1-3.6-1.3-0.8 0.4-1.5 1.3-2.2 2.6l3.2-0.6c-1-1.5-2.9-1.3-4.8 0.3-0.7 0.9-0.8 1.4-1 2.6-0.1 1.1-0.1 1.4-0.2 2.1 2.2 0.3 2.6 0.6 2.9 1-2.4-1.6-2.8-1.5-3.2-1.3-2.6-1-3.5-1.2-4.6-1.2-1.4 0.4-2 0.7-3.4 1-1.3 0.9-2 2.2-1.9 2-1.9 2-2.1 2.5-2.2 2.7 0.2-2.3-0.7-3.1-2.1-3.4-0.1-0.6-1.7-0.6-2.5 0.6l1.2 2.1c-0.7-2.2 0.4-2.1 1.1-1.6-0.5-0.6-1.5-1-2.6-0.2l0.7 2.5c-0.1-2.1 0.2-2 0.5-1.9-1.2-0.7-2.4-0.8-3.8-0.2-2.1 0.4-2.8 0.8-3.1 1.5 0.9-0.9 2.2-1 2.9-0.2-0.4-1.6-1.2-2.1-2.1-2.1-1.8 0.5-2.1 0.6-2.5 0.7-1.4 1.5-1.6 2.4-1.6 2.5l1.4 2.2c1.7-2.5 1.6-3 1.2-3.6-0.8-1-1.7-1.1-2.8-0.8-1.7 0.5-1.9 0.5-2.2 0.6-1.8 1.1-2.2 1.2-2.8 1.3-0.8 0-1.4 0.1-2.2 0.1-1.7 0.9-2 1.3-2 1.4-1.5 2-1.6 2.2-1.7 2.5 1.1-1.1 2.4-1.1 3.1-0.3-1.8-1.8-1.9-1.8-2.2-1.8-2.2-0.2-2.8 0-3.2 0.4-0.1 0.6-1.4 1.2-1.7 2.4-0.3 2.5-0.4 2.9-0.4 2.9 0.3-0.5-1-0.1-1.7 0.1-1.1 0.9-1.8 2.3-1.8 2.3l0.4 2.4c-0.1-2.3-1-2.2-2.6-1.8-1.3 0.1-1.7 0.9-2.3 3.3 0.7-1.4 1.7-1.7 2.5-1.3-1-0.4-1.8-0.5-2.9-0.3-1.7 1.2-1.7 1.4-1.9 2.1 0.7-0.9 2.2-0.9 2.9-0.1-1.1-2.9-2.5-3.3-3.6-2.5l-0.9 3.2c1.6-1.4 1.5-1.6 1.1-3-2.4-1.4-2.8-1.3-3.1-1.1 1.2 0.2 0.7-0.2 0.1-0.4-1.8 0.1-1.8 0.1-2.2 0.7 2.2 0 2.6 0.3 2.8 0.6-1-1.4-1.3-1.6-2.3-1.6 0-1.6-0.2-2.1-0.4-2.6-1.4-1.3-2.1-1.3-2.8-1-1.5 1-1.8 1.2-2.2 1.4-1 1.3-1.1 1.7-1.2 2.9-0.1 1.1-0.2 1.4-0.3 2.2 1.6-0.2 1.6-0.2 3 0.4 0.3-0.8 0.2-1.5-0.1-2.4-0.4-1.5-1.9-2-3-1.3-1.5 2-1.6 2.3-1.8 2.7-0.9 1.7-1.1 2.2-1.6 3.8l3.2-1c0.7 0.9 0.4 0.1 0.2-0.5-0.5-1.1-1.1-2.1-2.1-3.1 0.2-1.6 0.1-1.6-0.1-2.1-0.5-0.9-1.7-1.5-2.8-0.8-1.8 1-2.1 1.1-2.4 1.4-0.4 0.5-1.3 2.4-2 3.7l2 1.2c-0.3-1.1-0.6-1.8-1.5-3.2-2.5-1.4-3-1.5-3.5-1.6-2.2 1-2.7 3-2.7 2.9 1.7-0.6 1.6-0.6 1.9-0.6-0.8-0.2-1.6-0.1-2.4 0.5-0.7 0.5-1.2 1.3-1.5 2.5-0.5 1-0.6 1.5-0.9 2.2-0.3 2.3-0.3 2.5-0.4 2.6l2.2 0.3c0.1 0.2-0.4-1.3-0.9-2.5-0.8-1.9-3.5-1.6-3.8 0.4-0.2 2.3-0.2 2.6-0.2 2.8-0.1 1.9-0.2 2.1-0.1 2 0.4-0.8 1.3-1.3 2.3-1l-2.6-0.2c1.7-2.4 1.6-2.7 1.6-2.9-0.4-2.4-0.6-3-1.3-3.4-2.2-0.1-2.3 0-2.4 0 0.6-2.5 0.1-3-0.5-3.2-1.8 0.2-2.9 1.6-3.7 2l2.6 0.8c-1.4-1.5-2.6-1.4-3.3-0.7-0.5 0.4-0.8 1-1.1 2.1-0.2 1.7-0.2 1.9-0.3 2-0.6 1.9-0.8 2.2-0.9 2.3-0.7 1.4-1.1 2.6-1.3 3.2-0.5 2.5-0.6 3.2-0.9 3.9l3.5-0.7c-0.9-2.3-1.3-3-2-3.5-2.3-1.8-3.3-1.2-4.1-0.1l3.6 0.7c0-0.1-0.4-2.4-0.6-3.3-0.7-3-1.2-4.4-2.6-5-0.7-0.3-1.6-0.2-2.2 0.3 0.6-0.5 1.4-0.6 2.1-0.3-0.6-0.5-1.9-0.4-2.7 0.6l1.1 2.4c1-1.8 1.2-1.6 1.4-1.4-1.6-1.9-3.4-2.3-5.4-1.1-1.1 2-1.8 4.2-2.1 5.2 2.4 0.6 2.6 0.8 2.7 1-0.4-0.7-1.2-1-2-0.8-1 0.7-0.3 0.3 0.5 0.5-1-1.4-1.8-1-4.4 0.6-2.2 1.4-2.7 1.9-3 2.5-0.4 2.1-0.4 2.3-0.5 2.5l1.2 2.7c-2.4-0.6-2.9 0.1-3.6 2-0.3 1.3-0.4 1.6-1 2.6l3.3-0.1c-0.2-0.3-0.8-1.9-1.4-3.9-0.6-1.4-1.2-1.9-2.1-1.9-1.4 0-1.8 0.6-2.5 2-0.4 2.6-0.6 3.3-1.5 4.6l0.4 3.2c1.8-3.5 1.7-3.9 1.3-4.6-0.8-1-2-1.1-3-0.6-1 0.9-1.9 2-2.2 2.4-0.5 1-0.8 2.4-0.9 2.8 0.1-0.2-0.9 0.2-2 1.4-0.8 2.3-0.9 2.7-1 3.3-0.3 2.3-0.4 2.5-0.5 2.5-1.8 2-2.2 3.1-2.3 3.3-0.2 1.8-0.2 1.8-0.2 2 0.6-0.1 1.5-0.2 2.1 0-1.1-0.7-2.4-0.9-3.5 0.3-0.6 1.5-0.8 3.7-0.8 3.8-0.2 1.4-0.3 2.6-0.5 3.7-0.3 1.9-0.3 2.1-0.3 2.3 2-1.4 2.6-1.1 3-0.7-1-1.9-1.3-2.2-1.8-2.3-1-0.4-1.9 0-2.4 0.7-0.5 1.6-0.6 1.9-0.6 2 1.4-1.5 1.4-1.5 2.6-1.3 1.2 1.2 1.1 0.5 1.1-0.2-0.1-1.4-0.2-1.7-0.3-2.1-0.9-2.1-1.1-2.5-1.4-2.8-1.7-0.6-1.7-0.6-2-0.5 0.9 0.9 0.7 0 0.6-0.4-0.3-0.8-0.6-1.7-1-2.7-0.5-1-1.6-1.4-2.6-1.1 0.1-1-2-1-2.7 0.6-0.2 0.2-0.5 2.2-0.7 2.8l1.2 2c-1.7-1.2-1.9-1-2.1-0.8-0.6 0.6-1.2 1.4-1.7 2.5-0.5 1.3-0.7 1.8-1 2.4l3.1-0.9c-1.4-2.9-2.6-3.7-4-2.7-1.6 2-1.6 2.2-1.7 2.4-0.1 1.9-0.1 1.9-0.1 2.2 2.3 0.7 2.5 0.8 2.6 0.9-1-2.1-1.6-2.6-2.3-2.7-2.1 1.1-2.2 1.3-2.3 1.4l1.2 2.6c2-0.3 1.8-1.4 1.8-1.8q-0.2-1.2-0.7-2.3-0.4-1.3-1.2-2.3c-1.2-1.5-2.3-1.6-3.1-1-1.5 2.7-1.7 3.2-2.1 5 1.6-1.6 2-1.6 2.4-1.4-0.9-0.7-1.6-0.9-2.3-1-1.4-1.9-1.4-1.9-2.2-1.1-0.6 2.3-0.6 2.4-0.6 2.6 2.1-0.5 2.6-0.3 3 0.1-0.6-1.8-0.7-2.2-0.7-2.7-0.2-1.9-0.2-2-0.3-2.1-2.2-2-3.2-1.3-3.7-0.5-0.4 1.6-0.5 1.9-0.5 2.2l3.1 0.6c-0.9-1.6-2.5-1.9-4.4-1.3-1.3 1.7-1.5 2.7-1.6 3-0.1 0.7-0.3 1.4-0.5 2.1-0.2 2-0.3 2.3-0.2 2.1 1-0.7 1.1-0.7-0.3-1-1-0.3-2.1 0.3-2.4 1.3-1.9 1.2-2 1.4-2.1 1.9 1.2-0.8 2-0.7 2.5-0.3-0.5-0.6-1.3-0.9-2.1-0.6-1.6 0.8-1.9 1-2.3 1.2-1.1 1.6-1.2 1.9-1.3 2.9-0.5 2.3-0.5 2.6-0.6 3.1-0.2 2-0.2 2.3-0.2 2.5 2-1.3 2.6-1.1 3-0.7-0.6-1.8-0.6-2-0.7-2.4-0.6-2.3-0.9-2.7-1.6-3-1-0.5-1.9-0.1-2.5 0.5 1-0.6 1.9-0.5 2.5 0-0.7-2.1-0.7-2.1-0.7-2.2-0.6-1.6-0.6-1.9-0.7-2.5-0.3-2.3-0.4-2.5-0.4-2.7-2.4-2.6-3.4-2-3.9-1.2-0.5 1.7-0.6 2-0.7 2.3 1.1-1-0.3-1.3-1.2-0.6-0.9 1.7-1 1.8-1 2.2 3.1-0.6 3.1-0.6 3.5 0.1-0.2-2.8-0.3-3.1-0.9-3.7-1.1-0.9-2.2-0.5-2.9 0.2-1.1 1.7-1.4 2.3-1.4 2.4l2.9 0.3c-0.5-1.6-2.1-2.5-3.9-1.3-0.8 1.2-1.3 2.6-1.4 3.1-1 1.9-1 2.1-1.1 2.3 1.3-0.8 2-0.7 2.5-0.4-0.4-0.9-2.1-0.9-3 0.2-0.4 1.1-0.6 2-0.6 2.2-0.7 1.8-0.8 1.9-0.8 2 2.1-0.6 2.5-0.3 2.8 0.1 0-2 0-2.1-0.1-2.3-2.3-1.8-3.2-1.4-3.8-0.7-0.8 1.9-0.9 2.3-0.9 3.1-0.1 1.5-0.2 2.2-0.1 2.2 0.3-0.8 1.2-1.3 2.1-1-1.1-0.8-2.1-1-3-0.1-1.3 2.2-1.6 2.6-1.8 3.1-0.1 2.1-0.2 2.3-0.2 2.5 0.6 0.1 1.9 0.1 2.6 0.6l-2.5 0.5c2.3 0.7 1.4-3.5 0.6-5.6-0.8-1.9-1-2.2-1.2-2.4-1.2-1.2-2.1-1.4-3-0.8-1.1 2.3-1.1 2.7-1.2 3.2 0.8-0.3 2.4-0.6 3.3 0.4-2.4-1.7-3.2-1.2-3.7-0.5-0.3 0.8-1.4 2.3-1.8 3.1-0.9 2.2-0.9 2.5-1 3.4 1-0.5 2.5-0.6 3.3 0.5 0.1-2.2 0.1-2.6 0-3-0.1-1.7-0.2-2-0.2-2.3-1-2.1-2.5-2.4-3.6-1.4-0.9 1.9-1.3 3.1-1.4 3.4l1.2 2.7c1.9-0.6 1.7-1.3 1.7-1.6-0.7-2-1.1-2.6-2.1-2.8 1.5 1.5 1.4 1 1.4 0.5-0.1-1.2-0.1-1.6-0.1-2-1-2.1-2.4-2.6-3.5-1.6-0.7 1.4-1.4 5.4-1.6 6.3-0.3 1.7-0.7 3-1 3.7l3.7 0.3c-0.2-1.2-0.4-1.6-0.8-2.1-0.7-0.7-1.8-0.9-2.7-0.4l0.8 2.1c-1.6-1.2-2.9 0-4 1.2-0.5 1.2-0.6 1.5-0.6 2.6-0.1 1.8-0.1 1.8 0 1.7 0.6-1.4 2.6-1.5 3.4-0.2-0.1-0.2-1-4.3-1.4-6.6-0.2-1.6-0.2-2-0.3-2.5-0.1-1.9-0.1-1.9-0.2-2.2-3.5-0.7-3.5-0.7-3.7-0.2-0.3 0.9-0.3 1.5-0.4 4.9-0.1 2-0.2 2.9-0.2 3.4-0.1 1.2-0.2 1.5-0.4 2.6-0.4 1.9-1 4.1-1 4.3 0.5-1 2.1-1.6 3.1-0.3-0.4-1.7-0.9-2.3-1.7-2.5-1.2-0.3-2.4 0.5-2.5 1.7-0.1 0.5-0.1 1.3-0.2 3.4-0.1 1.4-0.1 1.9-0.1 2.5 1.4-1 1.4-1 2.8-0.7 0.9-0.6 0.9-2.1 0.9-2.6-0.1-2.5-0.2-3.8-0.3-4.5-0.3-1.2-1.3-2.2-2.8-1.7-1.8 1.6-2.1 2.3-2.3 2.8-0.2 0.7-0.3 1.3-0.4 2.8-0.4 3.5-0.5 4.2-0.9 6.2-2.1 2.2-2.3 2.7-2.4 3.3 0.3-0.2-0.4 0.7-0.9 2.5-0.1 0.6-0.2 1.2-0.3 2.1-0.1 0.5-0.3 2.5-0.3 2.6-0.4 2.7-0.6 4.2-0.6 4.3 3-0.9 3-0.9 3.4-0.4 0.2-1.6 0.2-1.6 0.2-2-0.1-1.7-0.1-1.8-0.3-2.2-1.5-1.4-1.5-1.4-2.9-1-1.1 2-1.1 2.2-1.1 2.8 0.5-0.2 0.5-0.2 2.2-0.5 1.6 1.9 1.3-1.1 1-2.4-0.4-2.3-1.1-3.9-2.3-4.9 0.4-1.6 0.4-1.8 0.3-2.1-2.3-1.4-2.3-1.4-3.2-0.9-0.8 1.9-0.9 2.8-1 5.7-0.1 2.5-0.1 3.5-0.2 3.8 2.3-1.9 2.3-1.9 3.4-1.2-0.7-1.5-0.7-1.5-2.7-1.4-1.1 3.1-1.2 5.5-1.2 10.1 0 0 0 4.3-0.1 5.6 0 7.7-0.1 12.1-0.2 13.8 0.1-1.2 2.2-2.9 3.5-0.6-0.4-1.5-0.7-2.3-0.7-2.3-1.7-2.3-2.8-2.2-3.5-1.6-0.9 2.1-0.9 2.6-1 3.2 0 0.6-0.1 1.5-0.2 3.9 0 1.7 0 2.4-0.1 3 3.1-0.8 3.1-0.8 3.6 0 0.2 0.4 0.2-1.6 0.1-6.2-0.1-2.6-0.1-3.7-0.1-4.9-0.1-1.9-0.1-2-0.1-2.2-0.8-1.8-0.8-1.8-2.8-1.9-1.3 2.2-1.3 2.4-1.3 2.7 0 0.6 0 1.4 0 2.5 0 0.5-0.1 2.6-0.1 3.1 0 2.1 0 3.5-0.1 4.5 0.7 0.3 0.7 0.3 2.2 0 1.3-1.5 1.2-3 1-5-0.1-2-0.3-5.1-0.4-5.8-0.1-1.5-0.1-2.5-0.2-3.2-0.3-2.1-0.4-2.6-0.4-3.3-0.1-2-0.1-5-0.2-12.9-0.1-8.4-0.2-11.5-0.2-13.4-3-2-3-2-3.6-1.3-0.7 1.8-0.7 1.8-0.6 1.6 1.9-1.2 1.9-1.2 3.1-0.5 0.4-2 0.3-2.6 0.2-3.3-0.3-2.2-0.6-3.7-0.6-3.7-0.4-2.4-0.5-3.2-0.6-3.9-0.1-0.7-0.1-1.3-0.2-2.8-0.2-3.4-0.4-4.6-0.8-5.7-0.7-1.9-3.4-1.7-3.8 0.3-0.1 0.3-0.2 2.1-0.3 2.5-0.6 2.2-0.6 2.6-0.8 3.1 0 0.4-0.3 2-0.3 1.6-0.4 2.1-0.4 2.2-0.4 2.2 1.1-1.3 2.3-1.3 3.1-0.5 0.3-0.6 0.3-1.3 0.3-2.6-0.1-2-0.1-2.6-0.1-3.1-0.1-2.1-0.1-2.6-0.2-3 0-1.4-0.1-2.6-0.1-3.7q-0.2-3.5-0.6-5.7c-0.2-1.5-0.3-1.7-0.4-2.4-0.3-1-0.4-1.4-0.6-2-0.4-1.6-0.6-2.4-0.8-2.8-0.4-0.8-1-1.4-2.2-1.2-1.7 1.5-1.8 1.7-1.8 2.1 2.2-1.3 2.2-1.3 3.3-0.4 0.4 0.7 0.3 0.1 0.3-0.8-0.3-2.1-0.3-2.1-0.3-2.3-1.8-1.6-1.8-1.6-3.1-1.1-1.2 3.3-1.2 3.1-1.2 3.5l2.9 0.4c-0.8-1.8-0.9-2.3-1-3.4-0.1-2.1-0.2-2.7-0.2-4.3-0.2-2.5-0.2-3.2-0.3-3.7-1.1-1.7-1.1-1.7-2.3-1.8-1.8 1.9-1.9 2.1-1.9 2.7-0.3 1.6-0.5 2-1.7 3.2-0.6 1.2-0.7 1.6-0.8 3-0.4 2.8-0.5 3.5-0.9 5 1.7 0.8 2.1 1.3 2.3 1.8 0.4 0.9-0.6-2.5-1.6-4.3-0.7-1.7-0.8-2-0.9-2.2-0.9-1.2-1.6-1.6-2.6-1.3-1.6 1.6-1.6 1.8-1.6 2.1-0.2 2-0.2 2.1-0.2 2.2 0.8-1.3 0.8-1.3 2.6-1.3-0.8-2-0.8-2-2.3-1.4-0.9 1.8-1 2-1 2.5 2.7-0.5 2.7-0.5 3.4 0.2-0.5-1.5-0.9-2.5-1.6-3.6-2.3-1-3-0.6-3.5 0-0.7 1.5-1 1.9-1.3 2.2l3 0.2c-2.7-1.8-4-1.3-4.9-0.1-0.4 1-0.4 1.3-0.5 2.2 0.6-0.3 2.3-0.7 3.3 0.6-2.3-2.2-2.3-2.2-3.3-1.6-0.8 2.1-0.8 2.2-0.8 2.3 1.1-0.8 1.8-0.8 2.3-0.6-1.3-1.3-2.7-1.3-3.5-0.1-0.6 1.9-0.6 2-0.7 2.2l0.7 2.2c1.7-1.1 0.7-2.4 0.2-2.9-1.3-1.4-2.7-2.3-4.3-2.3-2.1 1.6-2.2 2.1-2.3 3 3.4 0.1 3.4 0.1 3.6 0.6-0.2-1.9-0.3-2.1-0.4-2.5-0.4-0.6-1-1.2-2-1.1-2.1 2.1-2.2 2.3-2.3 2.6l-0.4 3.8c1.1-1.9 1.4-1.5 1.6-1.1-0.7-2.8-1.6-3.4-2.6-3.4-1.5 0.1-2.6 1.8-3 3.6-0.2 0.6-0.3 1.4-0.3 2.7-0.1 1.9-0.2 2.3-0.2 2.3 3.1-1.2 3.1-1.2 3.5-0.7-1.5-2.5-3.3-1.9-3.8-0.6-0.1 0.3-0.4 2.1-0.3 1.5 1.1-0.6 1.9-0.6 2.4-0.2 0.8 0.7 0.6-0.7 0.3-2.7-0.2-1.4-0.6-4.4-0.6-4.5-0.4-2.6-0.6-3.4-1.1-4.4-0.6-1.1-2.2-1.3-3.1-0.4-0.8 1.5-1.2 2.9-1.4 3.6-0.5 1.5-1.1 3.3-2 5.4 1.7-0.6 2.4-0.3 2.8 0.2-1.8-1.7-3-1.4-4.8-0.4-1.4 2.2-1.4 2.2-1.9 4 1.3 0.3 2 0.7 2.4 1.2 0.1-1.2 0-1.9 0-2-0.7-2.9-1.9-3.6-3.2-2.8-1 1.8-1.1 2.2-1.1 2.3-0.6 2-0.7 2.3-0.7 2.7-0.6 2.7-1.5 5.1-1.7 5.5 1-1.3 2.5-1.1 3.1-0.2-0.8-2.3-1.9-2.8-2.9-2.4-1.6 1.9-1.8 2.2-2.2 2.5-0.8 1.1-1.4 2.6-1.9 3.7 1.8 1.4 1.3-1.7 0.9-3.3-0.5-1.7-2.7-2-3.6-0.6-0.4 1.3 0.2 0.8 0.8 1-2.6 0.6-2.8 1.1-2.9 1.8 0.8 0.1 1.8-0.1 2.6 0.4-2.4-0.9-3-0.3-3.5 0.7l3.6 0.3c-0.1-1.7-0.1-2.1-0.1-2.4-1.5-2.6-2.6-2.6-3.5-2.2-1.3 1.5-1.7 2.2-1.9 2.9-0.3 2.5-0.3 2.8-0.4 3.2l1.5 2.5c2-0.6 1.9-1.5 1.8-3.5-0.1-1.8-0.1-2.5-0.2-3.1-0.2-2.1-0.8-3.2-2.7-4.3-1.8-0.1-2.1 0.1-2.4 0.3 1.9-0.1 1.7-0.3 1.4-0.8-3.2-0.8-4.4 0.4-5.2 2.8-0.3 2-0.4 2.4-0.4 2.3 0.4-0.9-0.2-0.6-1.4 0.3 2.4-0.1 2.7 0.2 2.9 0.6-0.2-1.5-0.2-1.5-1.3-2.4-2.3 0.2-2.1 0.1-2.6 0.9-0.3 0.6-0.3 1-0.6 3.9-0.1 0.5-0.1 1.1-0.2 2.6-0.1 1.9-0.2 2.7-0.2 2.9 3.3-1.1 3.3-1.1 3.6-0.6-1.2-1.9-1.4-2-1.7-2.1-1.8-1.7-2.6-2-4.3-2.2-1.3-0.1-2.2 0.4-2.5 1.3-0.1 0.2-0.6 3.1-0.9 4.3-0.2 1.7-0.2 1.9-0.2 2.1-0.3 1.5-0.5 2.1-0.7 2.5 1.2-0.6 2.1-0.4 2.6 0.2 0.2-2.3 0.2-2.7 0.1-3.1-0.1-1.8-0.1-2.1-0.1-2.5-0.2-0.9-0.4-1.5-1.2-2-0.8-0.6-1.6-0.5-2.4-0.1-1.5 1-2 1.5-2.3 1.9 0.6 0 1.6 0.1 2.3 0.6-0.4-1.3-2.5-1.4-3.3 0-0.5 1.7-0.5 2-0.6 2.7-0.3 2.2-0.2 2.1-0.2 2.1-2 1.7-2.4 5.4-2.7 6.9l3.6-0.1c0-1.5-0.1-2-0.2-2.4-1.1-2.3-1.2-2.6-1.3-2.8-0.3-1.4-0.4-1.8-0.7-2.3-0.9-1.4-2.5-1.4-3.7-0.5l3.2 1.1c-0.2-2.2-0.3-2.7-0.7-3.3-1-1.5-2.5-1.2-3.7-0.3q-0.7 0.6-1.7 2.1c-0.5 1.4-0.6 2.3-0.7 3.4-0.2 2.9-0.3 3.6-0.3 3.5 0.4-0.7 1.3-1.2 2.2-0.9-1.1-0.9-2.1-1-3-0.1-0.6 0.6-0.7 0.9-0.9 2.2 2.6-0.6 3-0.3 3.4 0.1-1.3-2.8-3.4-2.9-4.1-1.4-0.4 1.4-0.4 1.9-0.4 2 2.1 0 2.2 0 2.2 0.1-0.8-1.5-1.3-1.9-2-1.9-2.3-0.9-3 0-2.5-0.4-0.7-1.1-2-0.7-2.4 0.4-0.2 0.6-0.4 1.5-0.6 2.5 0 0.4-0.2 2.2-0.2 2.7-0.2 1.4-0.3 2.7-0.6 4-0.3 1.2-1 2.7-1.7 3.8l3.3 0.1c-0.7-2-0.7-2.1-0.8-2.2-1.5-2.2-1.7-2.4-1.8-2.6-1-1.2-2.9-0.9-3.5 0.5-0.3 2.3-0.4 2.5-0.4 2.7 0.5-0.9 0.5-0.9 2.4-1.2-2.6-0.3-2.6-0.3-2.8 0.2-0.2 1.1-0.2 1.9-0.2 2.1-0.3 2-0.4 2.5-0.5 2.9-1.2 1.7-1.5 2.7-1.5 2.7l1.2 2.8c-1.7-1.1-2.4 0.1-2.7 0.6q-0.9 1.3-2.1 2.6c0.4-1-0.9 0.1-2.3 2.1l3.5 0.4c-0.4-2.3-0.4-2.6-0.7-2.9-2.8-0.5-2.8-0.5-3.1-0.1l-0.6 2.9c1.7-1.3 1.5-1.6 1.2-1.8-0.5-0.6-1.3-0.8-2.1-0.6-0.8 0.2-1.3 0.8-2 1.8l3.1-0.3c-0.9-1.8-1.4-2.4-2.1-2.8-1.1-0.6-2.5-0.1-2.9 1.2-0.1 0.2-0.5 3.2-0.9 4.7-0.1 1.7-0.1 1.4-0.2 1.8l0.1 2.5c2-0.4 1.7-2.6 1.5-3.6-0.8-3-1.3-3.9-3.1-5.4-0.1-0.5-0.4-1.1-0.6-2-2.3-1.7-2.9-1.4-3.6-0.9-1.7 2-2 2.3-2.3 2.7-1.6 1.4-2.1 1.9-2.4 2.5-0.5 1.4-0.5 1.9-0.5 1.9 1.3-1.4 2.3-1.2 2.9-0.7-0.2-0.7-1.4-1-2.4-0.5-0.8 0.7 0.4 0.5 0.6 0.6-1.2-2-2.3-2.1-3.4-1.7l2.6 1c0.2 0.6-0.1-0.5-0.3-1-0.3-0.7-0.8-1.6-1.5-2.6-2.4-0.9-3.1-0.4-3.5 0.2 1-0.5 2-0.2 2.5 0.3-0.8-0.9-1.9-0.9-2.9-0.3-2.2 1.8-2.4 2-2.5 2.3-0.3 1.1-0.5 1.9-0.5 2.2-0.5 1.9-0.6 2.3-0.7 3.4-0.3 2.1-0.1 1.9-0.3 1.9-2 2.1-2.1 2.6-2.2 4-0.1 1.8-0.1 1.8 0.1 1.4 0.6-0.8 0.6-0.8 2.4-0.7-1.3-1.7-1.3-1.7-2.5-1.1-0.7 2.1-0.8 2.3-0.8 2.4-1.4-0.1-2.3 0.2-2.7 0.8-1.1 2.3-1.2 2.6-1.3 2.7 1.6-1.1 2.6-0.6 3.1 0.1-0.8-1.6-2-2.3-3.5-2.1 0-0.1 0-0.3-0.7-2.7-2.5-1.6-3-1.3-3.5-0.8-1.1 1.2-1.5 1.8-2.1 2.8-2.5 1.5-2.6 1.9-2.7 3 2.4-0.8 2.4-0.8 3.2-0.2-2.1-2.2-2.1-2.2-3.2-1.5-0.7 1.7-0.7 1.9-0.8 2.4 0.8-0.4 0.8-0.4 2.3-0.5-0.1-1.1-2-1-3.9 0.6l3.2 0.9c-0.5-2.2-0.5-2.2-0.8-2.6-0.7-0.7-0.7-0.7-2.4-0.5-0.6 0.3-1.9 3.5-2.8 4.7-0.5 0.9-0.6 1.4-0.7 2.9-0.4 3.9-0.5 4.5-1.2 6l3.5-0.4c-0.5-1.7-0.6-2-0.7-2.3-2-2.8-3.8-1.9-4.3-0.5-0.3 2.1-0.4 2.4-0.5 3.3 1.6-0.1 1.6-0.1 2.6 0.2 0-0.7-0.6-1.6-1.6-2.4-0.6-0.6-1.6-0.7-2.4-0.2-1.1 1.7-1.1 2-1.1 2.3 1.3-1 2.2-1.2 3.1-0.4 0.2-1.5 0.2-1.7 0.1-2.2-0.5-2.3-0.5-2.3-0.8-2.6-2.9 0-2.9 0-3.1 0.4-0.4 0.8-0.4 1.1-0.5 2.2-0.1 2.3-0.2 2.9-0.2 3.2 0.2-0.3-1.3 1.6-1.9 2.7-0.6 0.2-1.7 0.6-2.1 1.5-0.3 0.6-0.4 1.2-0.5 2.7 3.1 0.4 3.1 0.4 3.6 1.2-0.1-1.9-0.2-2.2-0.6-2.6-0.8-0.9-2.1-0.9-3-0.1-0.7 0.7-2 3.6-2.6 5.4-0.3 1.9-0.3 2.2-0.2 2.7 1.8-0.4 1.8-0.4 1.4-0.6-2-0.6-3.1-0.5-4 0.4l3.3 0.9c-0.2-2.1-0.3-2.6-0.4-3-0.4-1.3-0.8-2-2.2-2.1 0.9-3.1-0.1-4.6-1.7-6.1-1.2-1.1-3.1-0.4-3.3 1.2-0.2 2-0.2 2-0.2 2.3 0.4 0.7 1.2 0.2 2.3 0.4 0.5-1.8 0.5-2.1 0.4-2.5-1.6-2.9-3.5-2.5-4.1-1.2-0.3 1.1-0.3 1.5-0.4 2 1.9-0.7 1.9-0.7 2.9-0.3 0.9 1.1 0.8 0.1 0.7-1.7-0.1-1.4-0.1-2-0.2-2.6-0.2-3.3-0.3-4-0.4-4.6-1.9-2-2.9-1.6-3.5-0.9-0.8 1.1-1.1 1.5-1.6 2-0.7 1.7-0.9 3-0.9 3.3-0.4 1.5-0.9 3.3-1.2 4.5-0.1 0.3-0.6 1.9-0.6 2-0.4 1.1-0.6 1.8-0.7 2.3-0.3 1.6-0.3 2.3-0.3 2.3 0.7-1.3 2.2-1.7 3.2-0.6-1.6-2.3-3-1.7-3.6-0.6 2.3 0.8 2.6 1.1 2.7 1.4-0.6-1.1-1.8-2-3.2-2.5-0.7-1.7-2.2-1.4-3-0.3l2.2-0.7c0-0.5-0.5-1.1-1-2-0.8-1.3-2.7-1.3-3.5 0.1-0.5 2.3-0.6 2.4-0.6 2.6 1.9 0.6 1.9 0.6 1.6 0.4-1.8-0.8-2.6-0.8-3.4-0.2-0.8 0.7-0.9 1.1-1 2.5-0.3 1.7-0.4 1.9-0.4 2.1 2 1.6 2.1 1.8 2.2 2-1.4-2-2.4-2.1-3.2-1.7 1.9 0.4 1.3-0.2 1-0.5-0.9-0.9-1.8-1.4-2.8-1.6-1.1-0.2-2.1 0.5-2.3 1.5-0.4 2.4-0.4 2.7-0.4 2.9 1.4-0.7 1.2-0.8 0.9-1 0.9 1 0.8 0.3 0.7-1.4-0.2-2.1-0.2-2.5-0.3-3.4-0.2-1.7-0.2-2.3-0.3-3-0.2-2.3-0.8-3.5-2.7-4.5 0.9 1.4 0.5-1.7 0.2-3.1-0.7-1.3-1.4-1.7-2.3-1.6-2.1 0.4-2.7 0.6-3.1 1-0.9 1.3-0.8 0.9-1.4 3.3 1.8-1.2 1.4-1.4 0.7-1.7-2.3 0.2-2.6 0.6-2.9 1.2l-0.7 2.4c2.4-0.5 2.8-0.1 3.1 0.4-0.4-1-0.7-1.6-0.9-2-0.9-1.4-1.3-1.8-2.1-1.9-2.1 1.1-2.2 1.3-2.3 1.5l2 0.2c0.8 0.9-0.2-0.7-1.4-2.1-0.5-0.8-1.6-1-2.4-0.6-1.3 2-1.3 2-1.3 2 0.9-0.9 2-1.1 2.8-0.5 0.5 0.9 0.3-0.7 0.2-1.4-0.2-0.9-0.4-1.7-0.7-2.4-2.2-1.2-2.3-1.2-2.7-1.5-1.1-0.8-2.6-0.3-3 0.9 1.3 0.6 0.8 0.6 0.3 0.8-0.7 0.3-3.4 3.1-3.2 2.9-1.5-0.2-2.8 0.2-3.3 1.3-0.3 1.8-0.3 1.8-0.3 2.1 2.9-0.4 2.9-0.4 3.2 0.3-0.9-2.6-1.1-2.9-1.5-3.2-0.9-0.8-2.2-0.6-2.9 0.3l0.8 3.1c1.9-0.8 1.7-1.1 1.6-1.5-0.8-1.6-2.6-2.1-4.5-1.2-0.4-2.1-0.6-2.6-0.9-2.9-0.9-1.4-3.1-1.1-3.5 0.5-0.2 0.4-0.2 0.7-0.3 2.1l-0.3 3.6c1.4-2.2 1.2-2.6 0.7-3-1.1-0.7-2.2-0.3-2.9 0.5-0.7 1.7-0.7 2-0.8 2.9-0.4-0.2-1.5 0.2-2.1 1.1-0.1 0.1-0.7 2.2-1.3 3.5-1.1 2.5-1.4 3.3-1.7 4.2 1-1.3 1.8-1.4 2.4-1.2-0.4-0.4-1.5-0.4-2.3 0.4l0.9 2.4c1.9-0.6 1.8-1.8 1.8-2.1-0.6-2.8-1.4-4.7-1.9-5.3-0.5-0.6-1.4-1-2.3-0.7 0.7-0.5-1.5-0.2-2 1.3-0.1 0.4-0.3 2-0.4 2.2l1.5 2c1.7-0.9 1.2-2.4 1.1-2.8-0.4-1.2-0.8-1.9-1.2-2.5-0.4-2.2-0.4-2.2-1.5-2.8-1.7 0.1-1.7 0.1-2.2 0.7-0.5 2.2-0.6 2.3-0.6 2.4 1.9-1.5 1.9-1.5 3.3-0.8 0.3-1.4 0.2-1.8-0.2-2.4-2.2-0.9-2.2-0.9-2.6-0.8 0.1-0.8-1.6-0.8-2.4 0.4-0.5 2.2-0.6 2.4-0.6 2.5 0.6-1.1 0.6-1.1 2.4-1.2 0.9-2.1 0.9-2.4 0.8-2.7-0.8-1.9-1.3-2.2-1.8-2.3-1.2-0.2-1.4-0.3-2.1-0.8-0.7-0.4-1.5-0.5-2.2 0-1.1 0.2-1.9 1.1-2.6 3.3 2.4-1.5 3-1.1 3.3-0.6-0.9-2.5-2.2-2.9-3.4-2.3-0.5 0.2-1 0.6-2.1 1.4-0.9 2-0.9 2.1-0.9 2 0.4-0.6 1.4-1 2.3-0.5-1-0.7-2.4-1.1-4-0.7 0.5-1.9-1.7-2.5-3.9-0.9l2.4 0.1c-0.7-1.6-2.7-1.2-4.4 0.5-0.6 1.2-0.7 1.8-0.8 2.6 0.7 0 0.7 0 2.1-0.2 1.3-1.7 1.1-2.2 0.5-2.7-2.2-1.7-4.5 0.7-5.6 3.9-0.3 2.2-0.4 2.4-0.4 2.6 1.9-1.4 1.9-1.4 3.1-0.7 0.6 1 0.4 0.2 0.4-0.1-0.3-0.9-0.6-1.5-1.3-2-0.7-0.5-1.7-0.5-2.4 0-2 0.4-2.9 1.1-3.2 2.1 2 0.9 2 0.8 2 0.8-2.4-2.4-3.5-2-4.4-1.1-0.9 2.1-1.2 2.5-1.7 2.9l2.7-0.1c-0.5-2.8-2.1-3.3-3.2-2.1-0.5 1.5-0.6 2-0.6 2.1 0.4-0.7 2.3-0.9 3 0.2-1.6-1.9-1.8-2.1-2.1-2.4-0.8-0.5-1.5-0.8-2.5-0.4-1 0.4-1.2 1.1-1.4 2.1-0.1 2.1-0.1 2.3-0.1 2.4 2.6-1.5 2.6-1.5 3.3-0.9-2.2-2-2.2-2-3.3-1.2-0.5 1.2-0.6 1.4-0.6 2.4-0.2 2-0.2 2-0.2 2.1 0.9-1.2 1.6-1.4 2.3-1.2-0.1-2.3-0.2-2.6-0.2-2.9q-0.4-1.2-1-2.3c-0.8-1.5-3-1.4-3.6 0.2-0.2 1.9-0.3 2.1-0.3 2.1 1.9-1.1 2-1 2-1-1.8-1.3-2.4-1.6-3.8-2-1-0.3-2 0.1-2.4 1-0.3 0.8-0.5 1.9-0.6 2.2l1.1 2.6c1.6-2.3 1.5-2.6 1.2-3-0.7-0.8-2-0.9-2.8-0.2-1 1.7-1 1.7-1.2 2.5 0.5-0.1 2-0.2 2.8 0.9 0.1-2.1 0.1-2.1 0.1-2.4-0.1-1.1-0.1-1.6-0.2-2-0.2-1.8-0.3-2-0.3-2.3-0.5-1.9-0.8-2.7-1.5-3.3-0.9-0.9-2.3-0.8-3 0.3-0.2 0.1-1.5 2.7-2.2 3.8-0.2 0.4-0.7 2.6-1 3.3l2.8-0.9c-1.6-2.2-2.6-2.2-3.4-1.6-0.9 1.5-0.9 1.7-1 2-0.5 1.5-0.9 2.7-0.9 2.8l-0.2 2.5c1.9-0.5 1.9-0.9 1.8-1.7-0.1-1.6-0.2-1.8-0.3-2-0.6-1.1-0.6-1.1-2.2-1.4-1.8 1.9-1.8 2.3-1.9 4.9-0.1 1.1-0.1 1.6-0.1 2.1 1.2-0.9 1.2-0.9 2.3-0.9 1.5 0.9 1.4-0.8 1.3-1.3q0-1.5-0.2-2.3c-0.1-0.7-0.2-1.5-0.4-2.4-0.2-0.9-0.5-2-0.6-2.2-0.4-1.9-0.4-2.4-0.5-3.1-0.3-2.2-0.3-2.6-0.4-2.9-0.1-1-0.3-2-0.6-3.2-0.2-1.6-0.3-2.1-0.6-2.6-1-1.9-3.4-2.4-5.3-0.3l3.4 0.8c-0.3-2-0.3-2.2-0.4-2.4-2.8-1.4-2.8-1.4-3.4-0.9-0.7 1.7-0.7 2.2-0.7 2.3 1.8-0.4 1.4-0.8 0.8-1.6-0.6-0.9-1.9-1.1-2.8-0.4 1.2-0.3 0.9-0.5 0.3-0.9-0.2-1.4-0.5-1.8-0.8-2.1-2.7 0.1-3.8 2.3-4.4 3-0.5 1.1-0.6 1.7-0.7 2.7-0.3 1.9-0.3 2.2-0.4 2.7-0.1 0.1-0.4 1.5-0.6 2.2 2.2-1.6 2.5-1.5 2.8-1.4-1.6-1.7-1.8-1.9-1.9-2-2.5-0.8-2.4-0.8-2.6-0.9-2.1-0.3-2.6 0.1-2.6 0.1 0.7-0.5 1.7-0.4 2.2 0.1-1-2.1-2.8-2.3-3.7-1.1-1.3 1.5-1.7 1.8-2.1 1.9-0.4 0.2-2 0.7-2.8 0.9-1.3 1.2-1.3 1.3-1.8 2.4 0 0.1-0.8 0.6-2 1.8 2.2-0.6 2.1-0.6 2.2-0.5-1.5-0.9-2.1-1.1-2.7-1.3-1.1-0.2-2.1 0.4-2.4 1.4-0.4 1.9-0.5 2.2-1.4 3.4 1.3-0.9 1.9-0.8 2.3-0.6-0.6-0.3-1.3-0.4-2.1 0l0.2 2.5c1.7-2.2 1.6-2.7 1.2-3.2-2.8-1.3-3-1.3-3.7-1.7-0.8-0.3-1.8-0.1-2.3 0.6 0.4-0.6-0.6 0.5-0.9 1-0.5 0.7-0.9 1.7-1.2 3 2-1.3 0.7-1.8 0-2-2.5 0.9-2.6 1.4-2.8 2-0.2 1.8-0.3 2.3-0.3 2.3 0.4-0.6 1.9-0.8 2.7 0-0.6-0.6-1.5-0.8-2.2-0.5-1.2 0.5-2.4 2.2-3.2 4.4l2.8-1.1c-1.6-1.5-2.7-1.3-3.5-0.5 0 0-1.4 0.9-2.8 1.9l2.5 0.1c-0.6-0.6-1-0.7-3-1.1-2.4 0.8-3 1.2-3.7 1.8 0-0.3 1.8-0.3 2.5 0.9-1-2.3-2-2.9-3.3-2.3-0.9 0.5-1.1 1-1.6 2.6 0 0-1.1 2.1-1.5 3-0.2 0.5-0.7 2.9-1 4.3 2.2-1.5 2.4-1.4 2.2-1.5-0.9-0.2-1.9 0.1-3.3 0.9-1 1.4-1.1 1.6-1.2 2.6-0.3 1.2-0.4 1.4-0.9 2.7-0.6 1.4-1.2 2.6-2.4 4.4 0.8-0.7 0.4-0.6-0.4-0.6-1.9 1.5-2.1 2.1-2.1 2.3l1.3 2.1c-1.2-1.7-0.7-1.9-0.2-1.9-2.2-1-3.4-0.4-3.8 0.7-0.3 2-0.4 2.4-0.3 2.3 1.6-1.3 2-1.2 2.1-1.2-1.8-0.3-2.5 0.7-3.1 3 1.6-1.7 2.3-1.5 2.7-1.3l-2.4-0.1c1.2-2.1 0.7-2.5-0.1-2.6-1.4-0.1-2 0.6-2.5 1.8l0.1 2.9c1.7-2.3 1.6-2.6 1.6-2.9-0.3-1.1-0.5-1.9-1.1-2.9-0.7-1.2-2.4-1.3-3.3-0.2-2 1.2-2.1 1.5-2.3 2.4-0.3 1.8-0.4 2-0.5 2.2l2.2-1.2-2.4 0.5c1.5-2.2 1.4-2.7 1.1-3.2-0.6-0.9-1.6-1.5-2.8-1.3 0.3 1.3 0.2 1 0.2 0.4-0.4-1.9-0.5-2.1-0.9-2.5-1.3-0.7-1.3-0.7-2.6-0.1-0.9 1.6-0.9 1.7-1 2.1 1.1-0.8 1.1-0.8 2.7-0.6 0.2-1.3-1.5-2.2-3.5-1.1 1.3-0.4 1.8-0.1 2.2 0.2-1-0.8-2.3-0.9-3.2 0.2-0.9 2-0.9 2.3-1 2.9 3 0 3 0 3.2 0.4-1.2-1.4-2.6-1.7-4.2-1.1l2.6 1.4c-0.3-1.6-0.4-2-0.6-2.4l-2.2 0.3c0.6-3.1-1.4-2.7-3.4-0.9l3.2 0.8c-0.3-1.8-0.3-2.1-0.3-2.3-0.3-2-0.9-3.2-2.8-4.7-2.3-0.7-3.1-0.1-4.5 1.6 0.3 0.2-1 0.3-1.7 1.2 0.2 0.4 1.3 0.3 2 0.9-1.7-1.4-2.1-1.7-2.5-1.8-1-0.2-1.8 0.3-2.3 1-0.1 0.2-0.7 1.9-1.1 2.7 1.2-1 0.8-1 0-1l-1.6 2c-0.9-2.3-2.3-1.6-3.7 0.1-0.3 0.6-0.9 2.2-1.1 2.7 1.7-0.2 1.5-1.9 1.3-2.7-0.6-2.1-0.8-2.3-1.1-2.6-0.7-0.5-1.8-0.9-3.2-1-2.1 1.1-2.3 1.8-2.9 3.7-1.6-0.3-2.9 0-4.3 1.1-0.6 0.8-1.1 2.3-1.3 2.8l2.2-1c-1-0.7-2-0.9-3.1-0.9-0.9-1.1-2.6-1.4-4.3-0.3 0.2-0.2-1.1 0.6-0.5 0.3-1.5 0.2-2.7 1.1-3.7 1.8-1 1.4-1.4 2.6-1.6 3.2 0 0.1-0.5 3.3-0.9 5.1 1.9-1.8 2.4-1.6 2.8-1.4-2.6-0.9-3.5-0.5-4.1 0.3-0.4 0.9-0.8 3.2-1.2 4.6l3.3-0.9c0.4-1.3 0.3-1.7-0.2-2.3-1.9-0.9-2-0.9-2.3-0.9-2-0.4-2.3-0.4-3-0.5 1.5 1.5 0.7-0.7 0.1-1.9-0.4-0.7-1.3-1.2-2.1-1-2.1-0.6-2.9-0.2-3.4 0.5-0.6 0.9-1.4 2.6-1.4 2.7-0.1-1.9-1.4-1.7-2-0.7-0.3 0.5-0.5 1.1-1.1 3.5l0.3 2.5c1.8-1.1 2-0.3 1.7-1.3-2.6-2-3.6-1.6-4.4-0.8-1.2 0.7-2 1.4-2.9 2.4 0.6-0.8-0.2-0.7-1.3-0.4 1.5 0.3 0.4-1.6-0.1-2.4-0.6-1.4-2.5-1.5-3.4-0.3-0.6 2.5-0.7 2.7-0.7 2.8-0.1 0.5-0.2 0.7-0.8 2.4 2-1.4 2.2-1.3 2.5-1.2-1.2-0.7-1.9-1-2.8-1.3 0.2-0.2-0.6-0.7-1.7-0.5-1.2 0.2-2 1.1-2.5 2.5l2.5-1.1c1.1 0.4 1.7 2.4 1 0.5-0.6-1.6-1.9-2.7-3.8-1.7l2.5 0.5c-0.4-0.5-1-1.3-1.5-2.3-0.2-0.3-0.2-0.5-1.3-2.2-0.7-1.2-2.4-1.3-3.3-0.2-1 0.9-2.5 0.3-3 0-1.2-0.5-2.4 0.1-2.8 1.3-0.2 1.7-0.3 1.9-0.2 1.8-2 0.8-2.2 1-2.3 1.2-1.9 0.7-2.1 1.2-2.3 1.9-0.3 2.5-0.3 3.1-0.4 4.5-0.1 1.4-0.2 1.9-0.2 2.4-0.2 1.1-0.3 1.4-1.7 3.1l3-0.2c0.1-1.7 0.1-1.9 0-2.4-0.5-2.2-0.5-2.2-0.9-2.7-1.1-0.9-2.5-0.5-3.1 0.4-0.7 2.3-0.8 2.7-1 3.4 0.1-0.3-1.1 1.2-1.4 1.6-0.5 0.9-0.7 1.6-1.2 3.9l0.3 2.7c1-1.8 1.3-1.6 1.6-1.3-2.1-1.8-3.1-1.7-3.9-1.2l-1 2.3c1.9-0.6 1.9-0.9 1.8-1-0.2-1-0.5-1.6-1.5-2-1.5-0.6-2.4 0.1-3.2 1.4-0.8 2.1-0.8 2.1-0.9 2.1 0.7 0 2 0.1 2.7 1 0.4 0.8 0-1-0.2-1.6-0.7-1.9-0.9-2.4-1.2-3.3-0.5-1.7-0.9-2.6-1.1-3.1-0.2-0.4-1.1-1.6-1.8-2.6-0.7-1.1-2.2-1.2-3.1-0.4-0.8 0.8-1.5 2-2.1 3.9-0.5 1.6-0.7 2.2-0.9 3.1-0.2 1.8-0.3 2.1-0.2 1.9-0.6 0-1.3 0.7-1.9 2.4 1.7-1.6 2.7-1.4 3.3-0.7-1.4-2.2-1.7-2.4-2-2.5l-2.7 0.8c1.9-0.6 1.8-1 1.8-1.1-1.4-2.3-2.8-2.6-3.8-1.8 2-0.2 2-0.2 1.7-0.4-0.9-0.6-1.9-0.8-3-0.6-1.2-0.2-1.8 0.9-2.4 3.3l2.1-1.5c-0.4-2.1-1.4-2.7-2.7-2-2.1 2-2.1 2.2-2.2 2.3-0.6 1.4-0.8 1.8-1 2.2l-0.1 2.9c1.3-1.6 0.8-2.6 0.6-3-0.3-1.2-0.5-1.6-1.1-2.1-1.1-0.7-2.2-0.5-3.2 0.2 0.3-0.5-0.5 0-2.2 1.6 1.3-0.7 2.1-0.5 2.6 0-0.7-2.2-1.8-2.7-2.8-2.3-1.1 0.9-1.5 1.7-1.2 1.3l-0.2 2.6c0.9-2.8-0.8-3.4-2.4-2.1-2.4-2.1-2.9-2.2-3.4-2.1-0.6-0.5-1.4 0.3-1.9 1.3l1.5 2.1c-1.3-1.6-0.6-2 0.2-1.9-0.9-0.3-2 0-3.5 1.1-0.9 1.6-1 2-1 2l0.9 2.2c1.8-2.8 1.7-3.3 1.3-3.9-1.5-1.1-1.7-1.2-2-1.2-1.9-1.3-3.6-0.9-4.1 0.4-0.2 1.7-0.1 1.5 0.4 1.2 1.8-0.2 1.7-0.3 1.5-0.4-0.9-0.7-1.5-1.1-2.4-1.5-2.8-0.8-3.7-0.2-4.2 0.6-0.6 2.3-0.6 2.5-0.7 2.6-0.7 1.8-0.7 2.1-0.8 2.3q-0.3 1-1 2c-0.8 3-0.8 3.1-1 3.5 1.6-0.6 1.4-0.8 0.9-1.1-1-0.8-2.5-0.4-3 0.8-0.4 1.8-0.5 2.3-0.5 2.4-0.2 1.4-0.3 1.9-0.4 2.2-0.2 0.7-0.2 1.2-0.4 2.5-0.2 2.4-0.2 2.3-0.3 2.4l2.4 1.4c0-0.2-0.1-1.2-0.2-2.6-0.1-2.6-0.1-3.1-0.1-3.5-1.4-1.8-1.4-1.8-3-1.6-1.2 2-1.2 2.1-1.3 2.3-0.5 1.8-0.7 2.4-0.9 3.3-1.6 1.6-1.4 1.5-0.9 1.3 2.1 0.8 2 0.5 1.9 0-0.4-0.7-1.5-2.2-1.9-2.8-0.5-1.1-1.9-1.4-2.9-0.7-0.6 0.4-1.5 2.9-1.8 3.6 1.7-0.3 2-0.1 2.1 0-0.9-1.6-1.2-2.1-1.5-2.8-1.9-1.6-2.7-1.3-5.1-0.3-1.1 1.2-1.3 1.8-1.4 2-1.5 2.3-1.6 2.8-1.7 3.7 2.1-0.4 2.1-0.4 3.1 0.2-1.7-2.6-3.2-1.8-3.9-0.4 1.8-1.2 2-1.1 2.2-1-1.1-0.6-1.5-0.8-2.1-1-1.6-0.5-2.3-0.5-2.7-0.1-1 0.6-1.8 1.4-2.5 3.1-0.3 1.8-0.4 2-0.4 2.1 2.5-1.2 2.5-1.2 3.2-0.7-0.4-1.2-1.1-2.2-2-3.2 0.3-0.5 0.2-1.6 0.2-2-0.3-2.5-0.4-3.1-0.5-3.6-0.4-2.3-0.6-3.1-0.9-3.9-1.4-1.4-2-1.5-2.6-1.4-2.1 0.3-2.5 0.5-2.9 0.9l-0.6 3c1.4-1.5 1.5-1.4 1.7-1.1-1.5-1.5-2.6-1.5-3.4-0.8l-1.1 2.1c0-0.1-0.3 3.1-0.4 4.2l1.6 2c-1.6-1.1-1.5-1.2-1.9-1.3 0.4-2.3 0-2.5-0.5-2.8-0.7-2.2-0.9-2.6-1.6-3-1.1-0.6-2.2-0.1-2.8 0.7-0.5-0.6-2.4-0.4-3 1-0.1 0.4-0.5 2.4-0.5 2.9-0.1 0.5-1.5 2-2.1 2.7-1.2 0.3-1.8 0.7-2.2 1.4-0.7 2.2-0.7 2.3-0.8 2.3l3.1 1c-0.1-1.5-0.1-1.9-0.1-2.2-2.3-2.5-3.2-2.2-3.8-1.5-0.7 0.9-1.3 2-1.2 1.8l2.4 0.5c-2.9-1-3.4-0.4-3.9 0.7-2 2.5-2 3-2.2 4.3-0.2 1.9-0.3 2.1-0.3 2.1 0.8-0.8-0.1-0.5-0.6 0.1-0.7 1.5-0.8 1.8-1 2.3 0.3 0.4 1.4 0.1 2.4 0.8-1.7-1.5-2.8-1-3.5-0.1-0.4 0.8-0.7 2.7-0.9 3.3-0.2 0.7-0.7 2.1-0.9 2.6-0.5 1.7-0.6 2.1-0.7 2.5-0.1 0.5-0.1 1.2-0.2 2.2-0.1 2.1-0.1 2.3-0.1 2.3 2.7-1.4 2.7-1.4 3.2-1 0.4-3.4 0.3-3.9 0.2-4.3-0.7-1.5-0.7-1.5-2.9-1.5-1.1 1.7-1.2 1.9-1.2 2.3 1-0.9 1-0.9 2.8-0.6 0.3-1.3 0.2-1.6-0.2-2.7-0.7-2-0.7-2.1-0.8-2.5-0.2-1.2-0.3-1.8-0.8-2.6-0.1-2.2-0.1-2.6-0.2-3-0.5-1.7-0.9-2.3-1.8-2.5-1.2-0.4-2.1 0.2-3.3 1.4-0.6 1.3-0.6 1.8-0.7 2.7-0.2 1.6-0.2 1.5 0.5 1.2-1.9 1.4-2.4 1.6-2.7 2-0.8 1.9-0.8 2.1-0.8 2.6-0.2 1.2-0.2 1.4-0.3 2.2 0.6-0.2 1.8-0.7 2.9 0.2-0.3-2.3-1.3-3.4-2.9-3.7 1.5 1.2 1.4 0.7 1.4-0.1-0.3-2.4-0.3-2.6-0.3-2.8-2-2.7-3.4-2-4.1-0.9-0.7 2.4-0.7 2.3-0.7 2.5l2.3 1.1c-0.2-2.3-0.3-2.6-0.3-2.9-0.3-2-0.4-3-0.9-5.1-3.3-1.3-3.3-1.3-3.8-0.4 0.2 0.5 1.5-0.3 2.7 0.6-1.2-2.1-1.4-2.4-1.6-2.8-0.6-0.9-1.8-1.2-2.8-0.6-0.9 0.6-1.2 1.8-0.6 2.7z"/>
</svg>