<svg xmlns="http://www.w3.org/2000/svg" xmlns:xlink="http://www.w3.org/1999/xlink" width="500" zoomAndPan="magnify" viewBox="0 0 375 281.25" height="375" preserveAspectRatio="xMidYMid meet" version="1.0"><defs><clipPath id="dd9f4517e7"><path d="M 0.5 0 L 374.5 0 L 374.5 280.503906 L 0.5 280.503906 Z M 0.5 0 " clip-rule="nonzero"/></clipPath></defs><path fill="#000000" d="M 64.777344 163.621094 L 58.945312 163.621094 L 58.945312 157.789062 C 58.945312 154.574219 56.324219 151.953125 53.109375 151.953125 C 49.894531 151.953125 47.277344 154.574219 47.277344 157.789062 L 47.277344 163.621094 L 41.445312 163.621094 C 38.226562 163.621094 35.609375 166.238281 35.609375 169.453125 C 35.609375 172.671875 38.226562 175.289062 41.445312 175.289062 L 47.238281 175.289062 L 47.238281 181.121094 C 47.238281 184.335938 49.855469 186.953125 53.074219 186.953125 C 56.289062 186.953125 58.90625 184.335938 58.90625 181.121094 L 58.90625 175.289062 L 64.738281 175.289062 C 67.957031 175.289062 70.574219 172.671875 70.574219 169.453125 C 70.609375 166.238281 67.992188 163.621094 64.777344 163.621094 Z M 64.777344 163.621094 " fill-opacity="1" fill-rule="nonzero"/><path fill="#000000" d="M 181.628906 163.621094 L 175.796875 163.621094 L 175.796875 157.789062 C 175.796875 154.574219 173.179688 151.953125 169.960938 151.953125 C 166.746094 151.953125 164.128906 154.574219 164.128906 157.789062 L 164.128906 163.621094 L 158.296875 163.621094 C 155.082031 163.621094 152.464844 166.238281 152.464844 169.453125 C 152.464844 172.671875 155.082031 175.289062 158.296875 175.289062 L 164.128906 175.289062 L 164.128906 181.121094 C 164.128906 184.335938 166.746094 186.953125 169.960938 186.953125 C 173.179688 186.953125 175.796875 184.335938 175.796875 181.121094 L 175.796875 175.289062 L 181.628906 175.289062 C 184.84375 175.289062 187.460938 172.671875 187.460938 169.453125 C 187.460938 166.238281 184.84375 163.621094 181.628906 163.621094 Z M 181.628906 163.621094 " fill-opacity="1" fill-rule="nonzero"/><path fill="#000000" d="M 117.351562 175.289062 L 105.683594 175.289062 C 102.46875 175.289062 99.851562 177.90625 99.851562 181.121094 C 99.851562 184.335938 102.46875 186.953125 105.683594 186.953125 L 117.351562 186.953125 C 120.566406 186.953125 123.183594 184.335938 123.183594 181.121094 C 123.183594 177.90625 120.566406 175.289062 117.351562 175.289062 Z M 117.351562 175.289062 " fill-opacity="1" fill-rule="nonzero"/><g clip-path="url(#dd9f4517e7)"><path fill="#000000" d="M 269.242188 0.0273438 C 211.28125 0.0273438 164.09375 47.21875 164.09375 105.175781 C 164.09375 109.066406 164.316406 112.992188 164.726562 116.878906 C 164.503906 116.878906 164.277344 116.878906 164.09375 116.878906 C 148.984375 116.878906 140.125 121.515625 133.65625 124.882812 C 129.542969 127.015625 126.585938 128.585938 123.183594 128.585938 L 99.8125 128.585938 C 96.410156 128.585938 93.457031 127.050781 89.34375 124.882812 C 82.875 121.515625 74.050781 116.878906 58.90625 116.878906 C 19.605469 116.878906 0.5 137.894531 0.5 181.160156 C 0.5 213.691406 0.5 237.210938 3.527344 253.101562 C 5.769531 264.84375 10.929688 280.472656 29.703125 280.472656 C 45.296875 280.472656 55.167969 263.910156 63.84375 249.324219 C 63.992188 249.101562 64.140625 248.839844 64.289062 248.617188 C 67.992188 250.335938 72.105469 251.269531 76.480469 251.269531 C 90.578125 251.269531 102.394531 241.210938 105.125 227.898438 L 117.988281 227.898438 C 120.714844 241.210938 132.496094 251.269531 146.628906 251.269531 C 150.96875 251.269531 155.082031 250.296875 158.820312 248.617188 C 158.96875 248.839844 159.117188 249.101562 159.269531 249.324219 C 167.945312 263.945312 177.777344 280.472656 193.40625 280.472656 C 212.214844 280.472656 217.339844 264.84375 219.582031 253.101562 C 222.011719 240.351562 222.5 222.703125 222.574219 199.40625 C 237.046875 206.585938 253.011719 210.363281 269.351562 210.363281 C 327.347656 210.363281 374.5 163.171875 374.5 105.214844 C 374.5 47.253906 327.238281 0.0273438 269.242188 0.0273438 Z M 275.109375 111.046875 L 298.59375 111.046875 C 299.789062 144.699219 311.457031 164.292969 334.863281 171.734375 C 319.273438 187.105469 298.332031 197.050781 275.109375 198.507812 Z M 239.925781 99.34375 C 238.726562 65.691406 227.0625 46.097656 203.652344 38.65625 C 219.246094 23.285156 240.1875 13.339844 263.40625 11.917969 L 263.40625 99.378906 L 239.925781 99.378906 Z M 228.257812 99.34375 L 175.945312 99.34375 C 177.140625 80.273438 184.058594 62.734375 195.015625 48.453125 C 211.207031 51.742188 226.800781 61.5 228.257812 99.34375 Z M 275.109375 11.917969 C 298.332031 13.339844 319.273438 23.285156 334.863281 38.691406 C 311.417969 46.132812 299.789062 65.726562 298.59375 99.378906 L 275.109375 99.378906 Z M 310.261719 111.046875 L 362.535156 111.046875 C 361.339844 130.117188 354.421875 147.65625 343.464844 161.9375 C 327.273438 158.648438 311.679688 148.851562 310.261719 111.046875 Z M 310.261719 99.34375 C 311.679688 61.5 327.273438 51.742188 343.464844 48.453125 C 354.421875 62.734375 361.339844 80.273438 362.535156 99.34375 Z M 175.945312 111.046875 L 228.222656 111.046875 C 227.585938 127.984375 224.070312 140.476562 217.527344 148.890625 C 210.832031 130.828125 197.257812 120.546875 176.582031 117.703125 C 176.320312 115.496094 176.09375 113.253906 175.945312 111.046875 Z M 76.445312 239.566406 C 66.796875 239.566406 58.90625 231.714844 58.90625 222.027344 C 58.90625 212.34375 66.757812 204.492188 76.445312 204.492188 C 86.128906 204.492188 93.980469 212.34375 93.980469 222.027344 C 93.980469 231.714844 86.128906 239.566406 76.445312 239.566406 Z M 146.554688 239.566406 C 136.90625 239.566406 129.019531 231.714844 129.019531 222.027344 C 129.019531 212.34375 136.871094 204.492188 146.554688 204.492188 C 156.238281 204.492188 164.09375 212.34375 164.09375 222.027344 C 164.09375 231.714844 156.238281 239.566406 146.554688 239.566406 Z M 208.027344 250.894531 C 204.886719 267.425781 199.054688 268.808594 193.332031 268.808594 C 184.359375 268.808594 176.320312 255.269531 169.253906 243.34375 C 168.914062 242.78125 168.578125 242.222656 168.242188 241.660156 C 172.953125 236.460938 175.832031 229.582031 175.832031 222.066406 C 175.832031 205.949219 162.746094 192.863281 146.628906 192.863281 C 132.53125 192.863281 120.714844 202.921875 117.988281 216.234375 L 105.125 216.234375 C 102.394531 202.921875 90.617188 192.863281 76.480469 192.863281 C 60.363281 192.863281 47.277344 205.949219 47.277344 222.066406 C 47.277344 229.621094 50.15625 236.5 54.867188 241.660156 C 54.53125 242.222656 54.195312 242.78125 53.859375 243.34375 C 46.753906 255.269531 38.714844 268.808594 29.777344 268.808594 C 24.054688 268.808594 18.222656 267.425781 15.082031 250.894531 C 12.277344 236.089844 12.277344 213.054688 12.277344 181.160156 C 12.277344 144.289062 26.261719 128.585938 59.019531 128.585938 C 71.285156 128.585938 78.050781 132.136719 84.035156 135.242188 C 88.746094 137.707031 93.644531 140.25 99.925781 140.25 L 123.296875 140.25 C 129.578125 140.25 134.441406 137.707031 139.1875 135.242188 C 145.171875 132.097656 151.9375 128.585938 164.203125 128.585938 C 196.960938 128.585938 210.945312 144.289062 210.945312 181.160156 C 210.832031 213.054688 210.832031 236.089844 208.027344 250.894531 Z M 221.042969 162.164062 C 232.859375 151.769531 239.066406 134.980469 239.925781 111.011719 L 263.40625 111.011719 L 263.40625 198.472656 C 248.972656 197.574219 234.988281 193.386719 222.5 186.167969 C 222.5 184.523438 222.5 182.839844 222.5 181.160156 C 222.5 174.277344 222.011719 167.960938 221.042969 162.164062 Z M 221.042969 162.164062 " fill-opacity="1" fill-rule="nonzero"/></g></svg>