<?xml version="1.0" standalone="no"?>
<!DOCTYPE svg PUBLIC "-//W3C//DTD SVG 20010904//EN"
 "http://www.w3.org/TR/2001/REC-SVG-20010904/DTD/svg10.dtd">
<svg version="1.0" xmlns="http://www.w3.org/2000/svg"
 width="1280.000000pt" height="281.000000pt" viewBox="0 0 1280.000000 281.000000"
 preserveAspectRatio="xMidYMid meet">

<g transform="translate(0.000000,281.000000) scale(0.100000,-0.100000)"
fill="#000000" stroke="none">
<path d="M10075 2319 c-82 -24 -149 -118 -149 -209 0 -226 307 -301 408 -99
88 178 -68 364 -259 308z"/>
<path d="M11133 2316 c-144 -33 -275 -131 -334 -251 -35 -72 -59 -177 -59
-262 l0 -63 -100 0 -100 0 0 -150 0 -150 100 0 100 0 0 -485 0 -485 195 0 195
0 0 485 0 485 150 0 150 0 0 150 0 150 -150 0 -150 0 0 68 c0 78 27 143 73
176 24 17 44 21 115 21 76 0 93 -3 134 -26 l47 -27 80 121 c60 91 77 124 69
134 -20 24 -113 71 -183 93 -91 28 -247 35 -332 16z"/>
<path d="M4019 2278 c-3 -14 -85 -1795 -82 -1800 2 -5 89 -8 193 -8 l188 0 6
62 c3 35 13 268 21 518 9 250 19 485 23 522 l7 67 195 -344 195 -345 106 0
105 0 186 351 186 351 6 -84 c7 -95 46 -991 46 -1055 l0 -43 205 0 c189 0 205
1 205 18 0 9 -18 400 -40 867 -22 468 -40 867 -40 888 l0 37 -197 0 -198 -1
-224 -415 c-124 -228 -228 -417 -232 -420 -4 -2 -112 185 -241 416 l-233 420
-192 0 c-106 0 -193 -1 -194 -2z"/>
<path d="M8590 1375 l0 -905 593 2 592 3 0 165 0 165 -387 3 -388 2 0 735 0
735 -205 0 -205 0 0 -905z"/>
<path d="M7558 1913 l-3 -168 -97 -3 -98 -3 0 -149 0 -150 99 0 99 0 4 -327
c4 -303 6 -333 26 -393 64 -194 211 -290 445 -290 45 0 111 7 147 16 70 16
188 71 232 107 l28 23 -77 114 c-41 63 -77 116 -78 117 -1 2 -28 -11 -60 -29
-47 -25 -71 -32 -120 -32 -75 -1 -109 18 -136 77 -17 38 -19 69 -19 330 l0
287 160 0 160 0 0 150 0 150 -160 0 -160 0 0 170 0 170 -195 0 -195 0 -2 -167z"/>
<path d="M1474 1807 c-279 -392 -434 -893 -434 -1391 0 -121 12 -275 26 -353
l6 -33 453 0 c372 0 454 2 458 14 17 43 29 270 24 450 -10 370 -82 665 -247
1001 -53 109 -221 386 -233 385 -1 0 -25 -33 -53 -73z"/>
<path d="M6525 1779 c-96 -15 -181 -48 -260 -101 -175 -117 -270 -296 -282
-534 -17 -341 157 -596 467 -684 169 -48 389 -35 570 33 82 31 210 103 210
119 0 10 -149 238 -156 238 -3 0 -37 -18 -77 -40 -105 -57 -177 -73 -316 -68
-95 3 -124 7 -162 26 -84 41 -158 134 -159 200 l0 22 451 0 452 0 -6 123 c-10
224 -70 380 -192 502 -76 77 -157 125 -249 149 -75 20 -215 27 -291 15z m251
-334 c57 -35 103 -104 111 -164 l6 -41 -267 0 -266 0 0 25 c0 69 63 152 145
192 43 20 62 23 136 21 75 -3 92 -7 135 -33z"/>
<path d="M12050 1779 c-187 -32 -339 -131 -434 -282 -73 -116 -106 -240 -106
-395 0 -268 126 -486 340 -590 108 -53 179 -71 306 -79 123 -7 238 8 359 48
87 29 209 93 233 122 10 11 -2 36 -59 123 -38 60 -74 112 -78 117 -4 4 -47
-13 -95 -37 -105 -54 -157 -66 -285 -66 -113 0 -170 14 -235 59 -51 36 -106
119 -106 164 l0 27 450 0 450 0 0 78 c0 152 -40 321 -103 432 -42 74 -149 178
-222 217 -33 17 -88 38 -122 47 -78 20 -222 28 -293 15z m215 -313 c83 -35
155 -127 155 -198 l0 -28 -265 0 -265 0 0 25 c0 69 63 152 145 191 59 28 174
33 230 10z"/>
<path d="M9950 1105 l0 -635 195 0 195 0 0 635 0 635 -195 0 -195 0 0 -635z"/>
</g>
</svg>
