<svg xmlns="http://www.w3.org/2000/svg" xmlns:xlink="http://www.w3.org/1999/xlink" width="500" zoomAndPan="magnify" viewBox="0 0 375 374.999991" height="500" preserveAspectRatio="xMidYMid meet" version="1.0"><defs><clipPath id="edb8dc1d86"><path d="M 93.75 0 L 281.25 0 L 281.25 374 L 93.75 374 Z M 93.75 0 " clip-rule="nonzero"/></clipPath></defs><path fill="#100f0d" d="M 187.5 328.386719 C 180.28125 328.386719 174.410156 334.257812 174.410156 341.480469 C 174.410156 348.703125 180.28125 354.574219 187.5 354.574219 C 194.714844 354.574219 200.589844 348.703125 200.589844 341.480469 C 200.589844 334.257812 194.714844 328.386719 187.5 328.386719 " fill-opacity="1" fill-rule="nonzero"/><g clip-path="url(#edb8dc1d86)"><path fill="#100f0d" d="M 270.171875 305.503906 C 270.171875 307.238281 268.746094 308.667969 267.003906 308.667969 L 107.992188 308.667969 C 106.253906 308.667969 104.828125 307.238281 104.828125 305.503906 L 104.828125 68.839844 C 104.828125 67.097656 106.253906 65.671875 107.992188 65.671875 L 267.003906 65.671875 C 268.746094 65.671875 270.171875 67.097656 270.171875 68.839844 Z M 187.5 361.613281 C 176.40625 361.613281 167.375 352.578125 167.375 341.480469 C 167.375 330.378906 176.40625 321.347656 187.5 321.347656 C 198.597656 321.347656 207.625 330.378906 207.625 341.480469 C 207.625 352.578125 198.597656 361.613281 187.5 361.613281 M 165.347656 26.429688 C 165.347656 24.6875 166.773438 23.261719 168.511719 23.261719 L 206.484375 23.261719 C 208.226562 23.261719 209.652344 24.6875 209.652344 26.429688 L 209.652344 30.652344 C 209.652344 32.390625 208.226562 33.816406 206.484375 33.816406 L 168.511719 33.816406 C 166.773438 33.816406 165.347656 32.390625 165.347656 30.652344 Z M 252.765625 0.375 L 122.234375 0.375 C 106.570312 0.375 93.753906 13.199219 93.753906 28.871094 L 93.753906 345.464844 C 93.753906 361.144531 106.570312 373.960938 122.234375 373.960938 L 252.765625 373.960938 C 268.433594 373.960938 281.246094 361.144531 281.246094 345.464844 L 281.246094 28.871094 C 281.246094 13.199219 268.433594 0.375 252.765625 0.375 " fill-opacity="1" fill-rule="nonzero"/></g></svg>