<?xml version="1.0" standalone="no"?>
<!DOCTYPE svg PUBLIC "-//W3C//DTD SVG 20010904//EN"
 "http://www.w3.org/TR/2001/REC-SVG-20010904/DTD/svg10.dtd">
<svg version="1.0" xmlns="http://www.w3.org/2000/svg"
 width="900.000000pt" height="500.000000pt" viewBox="0 0 900.000000 500.000000"
 preserveAspectRatio="xMidYMid meet">

<g transform="translate(0.000000,500.000000) scale(0.100000,-0.100000)"
fill="#000000" stroke="none">
<path d="M1660 3857 c-94 -82 -199 -194 -235 -251 -18 -28 -18 -29 0 -42 20
-15 185 -20 185 -6 0 4 -4 23 -9 42 -5 19 -12 58 -15 87 l-6 51 90 101 c50 56
89 101 88 101 -2 0 -46 -38 -98 -83z"/>
<path d="M1393 2920 c-189 -151 -297 -435 -279 -733 38 -605 526 -1191 1169
-1401 212 -70 284 -80 552 -81 251 0 310 7 495 57 110 29 281 99 273 111 -3 6
-1 7 5 3 20 -12 185 81 319 180 85 63 202 172 276 258 43 49 47 56 22 41 -16
-11 -48 -34 -71 -52 -23 -18 -45 -33 -49 -33 -5 0 -16 -6 -24 -14 -27 -23
-157 -92 -286 -151 -122 -56 -305 -106 -520 -143 -147 -25 -452 -22 -603 6
-96 17 -121 26 -167 57 -160 111 -285 306 -285 446 l0 39 -154 0 c-135 0 -157
2 -177 19 l-23 18 47 229 c25 126 80 395 122 597 41 202 75 375 75 383 0 11
-20 14 -103 14 -128 0 -132 -3 -161 -135 l-21 -95 -180 215 c-99 118 -182 215
-185 215 -3 -1 -33 -23 -67 -50z"/>
<path d="M5430 2838 c0 -7 -3 -29 -6 -49 -6 -35 -4 -37 24 -44 16 -3 38 -15
48 -27 18 -19 19 -49 22 -494 l3 -474 124 0 125 0 2 351 3 350 237 -329 c279
-387 255 -367 438 -367 l115 0 0 545 0 545 -122 3 -123 3 -2 -352 -3 -351
-220 308 c-121 170 -233 322 -250 337 -47 44 -110 57 -272 57 -108 0 -143 -3
-143 -12z"/>
<path d="M6757 2843 c-2 -4 -8 -27 -12 -49 -6 -41 -6 -42 29 -48 22 -4 41 -16
48 -29 10 -16 14 -140 18 -492 l5 -470 120 0 120 0 3 349 2 349 224 -315 c124
-173 239 -327 256 -341 44 -37 95 -48 207 -45 l98 3 0 545 0 545 -122 3 -123
3 -2 -351 -3 -351 -221 313 c-122 172 -230 320 -240 329 -53 47 -84 54 -245
57 -86 2 -159 0 -162 -5z"/>
<path d="M2503 2350 l-20 -101 151 -234 151 -235 92 0 92 0 -216 328 c-119
180 -219 331 -223 335 -4 4 -16 -37 -27 -93z"/>
</g>
</svg>
