<?xml version="1.0" standalone="no"?>
<!DOCTYPE svg PUBLIC "-//W3C//DTD SVG 20010904//EN"
 "http://www.w3.org/TR/2001/REC-SVG-20010904/DTD/svg10.dtd">
<svg version="1.0" xmlns="http://www.w3.org/2000/svg"
 width="200.000000pt" height="200.000000pt" viewBox="0 0 200.000000 200.000000"
 preserveAspectRatio="xMidYMid meet">

<g transform="translate(0.000000,200.000000) scale(0.100000,-0.100000)"
fill="#000000" stroke="none">
<path d="M849 1677 c-83 -35 -123 -62 -175 -120 -208 -230 -160 -613 97 -778
28 -17 52 -30 54 -27 4 4 165 440 179 486 7 22 6 22 -92 22 l-99 0 -49 -137
c-28 -75 -55 -138 -61 -140 -5 -2 -20 20 -32 49 -70 173 -36 354 88 479 208
208 542 76 593 -234 28 -169 -53 -346 -197 -428 -42 -24 -85 -37 -85 -26 0 2
21 59 46 128 25 68 61 166 79 217 l34 92 -67 0 -67 0 -94 -258 c-52 -141 -96
-262 -98 -268 -6 -17 87 -24 159 -13 96 16 176 59 246 133 191 205 188 521 -7
717 -96 96 -157 122 -291 126 -92 3 -112 1 -161 -20z"/>
<path d="M150 437 c-19 -10 -25 -20 -25 -47 0 -32 3 -35 48 -48 36 -10 47 -18
45 -30 -4 -23 -56 -29 -64 -8 -9 24 -43 21 -37 -4 8 -29 65 -45 100 -28 23 11
28 20 28 48 0 33 -3 35 -48 48 -36 10 -47 18 -45 30 4 22 41 27 58 7 7 -8 19
-15 26 -15 26 0 12 30 -23 49 -27 14 -32 14 -63 -2z"/>
<path d="M404 440 c-70 -28 -71 -145 -2 -169 18 -7 38 -7 53 -1 14 5 32 7 40
4 12 -5 15 3 15 40 0 46 0 46 -35 46 -24 0 -35 -5 -35 -15 0 -8 9 -15 20 -15
11 0 20 -4 20 -10 0 -15 -39 -32 -61 -25 -42 14 -47 95 -7 116 20 11 58 4 58
-12 0 -5 9 -9 20 -9 25 0 26 12 3 33 -24 21 -63 28 -89 17z"/>
<path d="M290 355 c0 -69 3 -85 15 -85 12 0 15 16 15 85 0 69 -3 85 -15 85
-12 0 -15 -16 -15 -85z"/>
<path d="M550 355 c0 -69 3 -85 15 -85 12 0 15 13 15 55 0 30 3 55 8 55 4 0
20 -25 37 -55 19 -35 36 -55 47 -55 16 0 18 10 18 85 0 68 -3 85 -15 85 -10 0
-15 -15 -17 -57 l-3 -58 -33 58 c-23 38 -40 57 -53 57 -17 0 -19 -8 -19 -85z"/>
<path d="M769 413 c-14 -37 -49 -135 -49 -140 0 -1 9 -3 20 -3 11 0 20 7 20
15 0 11 11 15 35 15 22 0 38 -6 41 -15 4 -8 14 -15 24 -15 18 0 17 4 -5 68
-12 37 -26 75 -30 85 -11 27 -44 21 -56 -10z m44 -53 c3 -13 0 -23 -9 -27 -21
-8 -26 1 -18 31 7 29 19 27 27 -4z"/>
<path d="M910 355 l0 -85 60 0 c47 0 60 3 60 15 0 11 -12 15 -45 15 l-45 0 0
70 c0 56 -3 70 -15 70 -12 0 -15 -16 -15 -85z"/>
<path d="M1120 355 c0 -69 3 -85 15 -85 12 0 15 16 15 85 0 69 -3 85 -15 85
-12 0 -15 -16 -15 -85z"/>
<path d="M1195 355 l0 -85 50 0 c28 0 55 4 61 8 37 25 46 110 14 142 -15 15
-33 20 -72 20 l-53 0 0 -85z m103 21 c6 -53 -5 -76 -38 -76 -30 0 -30 1 -30
56 l0 55 33 -3 c27 -3 33 -7 35 -32z"/>
<path d="M1370 373 c0 -38 4 -73 8 -80 11 -18 57 -32 83 -26 38 9 49 32 49
105 0 54 -3 68 -15 68 -12 0 -15 -13 -15 -58 0 -64 -16 -96 -46 -90 -16 3 -19
13 -22 76 -3 64 -5 72 -22 72 -18 0 -20 -7 -20 -67z"/>
<path d="M1550 355 c0 -68 3 -85 15 -85 10 0 15 15 17 58 l3 57 35 -57 c21
-36 42 -58 52 -58 16 0 18 10 18 85 0 69 -3 85 -15 85 -11 0 -15 -12 -15 -50
0 -27 -4 -50 -9 -50 -6 0 -22 23 -37 50 -17 32 -34 50 -46 50 -16 0 -18 -9
-18 -85z"/>
<path d="M1748 362 c-16 -43 -28 -81 -28 -85 0 -14 31 -7 36 8 4 9 19 15 40
15 22 0 37 -6 40 -15 4 -8 14 -15 24 -15 15 0 14 9 -13 85 -25 71 -33 85 -51
85 -17 0 -26 -14 -48 -78z m62 -14 c0 -10 -7 -18 -15 -18 -16 0 -19 17 -9 45
5 13 8 14 15 3 5 -7 9 -21 9 -30z"/>
</g>
</svg>
