<svg xmlns="http://www.w3.org/2000/svg" xmlns:xlink="http://www.w3.org/1999/xlink" width="500" zoomAndPan="magnify" viewBox="0 0 375 374.999991" height="500" preserveAspectRatio="xMidYMid meet" version="1.0"><path fill="#000000" d="M 360 375 L 337.5 375 C 328.5 375 322.5 369 322.5 360 L 322.5 345 L 375 345 L 375 360 C 375 369 369 375 360 375 Z M 360 375 " fill-opacity="1" fill-rule="nonzero"/><path fill="#000000" d="M 217.5 375 L 195 375 C 186 375 180 369 180 360 L 180 345 L 232.5 345 L 232.5 360 C 232.5 369 226.5 375 217.5 375 Z M 217.5 375 " fill-opacity="1" fill-rule="nonzero"/><path fill="#000000" d="M 60 360 L 30 360 C 17.25 360 7.5 350.25 7.5 337.5 L 7.5 305.25 L 82.5 324 L 82.5 337.5 C 82.5 350.25 72.75 360 60 360 Z M 60 360 " fill-opacity="1" fill-rule="nonzero"/><path fill="#000000" d="M 165 283.5 C 165 276.75 166.5 269.25 168.75 263.25 L 180.75 236.25 L 188.25 219.75 C 189.75 216.75 191.25 213.75 193.5 211.5 L 52.5 211.5 C 44.25 211.5 37.5 204.75 37.5 196.5 L 37.5 97.5 C 37.5 89.25 44.25 82.5 52.5 82.5 L 232.5 82.5 C 240.75 82.5 247.5 89.25 247.5 97.5 L 247.5 187.5 L 285 187.5 L 285 82.5 C 285 36.75 248.25 0 202.5 0 L 82.5 0 C 36.75 0 0 36.75 0 82.5 L 0 292.5 C 0 313.5 16.5 330 37.5 330 L 165 330 Z M 82.5 37.5 C 82.5 33 85.5 30 90 30 L 202.5 30 C 207 30 210 33 210 37.5 L 210 52.5 C 210 57 207 60 202.5 60 L 90 60 C 85.5 60 82.5 57 82.5 52.5 Z M 63.75 292.5 C 49.5 292.5 37.5 280.5 37.5 266.25 C 37.5 252 49.5 240 63.75 240 C 78 240 90 252 90 266.25 C 90 280.5 78 292.5 63.75 292.5 Z M 63.75 292.5 " fill-opacity="1" fill-rule="nonzero"/><path fill="#000000" d="M 372 268.5 L 352.5 225 C 345.75 211.5 333 202.5 318 202.5 L 237 202.5 C 222 202.5 209.25 210.75 202.5 225 L 195 241.5 L 183 268.5 C 181.5 273 180 278.25 180 283.5 L 180 352.5 L 375 352.5 L 375 283.5 C 375 278.25 374.25 273.75 372 268.5 Z M 225 322.5 C 216.75 322.5 210 315.75 210 307.5 C 210 299.25 216.75 292.5 225 292.5 C 233.25 292.5 240 299.25 240 307.5 C 240 315.75 233.25 322.5 225 322.5 Z M 330 322.5 C 321.75 322.5 315 315.75 315 307.5 C 315 299.25 321.75 292.5 330 292.5 C 338.25 292.5 345 299.25 345 307.5 C 345 315.75 338.25 322.5 330 322.5 Z M 351 270 C 351 274.5 348 277.5 343.5 277.5 L 213 277.5 C 208.5 277.5 205.5 274.5 205.5 270 L 205.5 258 C 205.5 255.75 206.25 253.5 207 252 L 216.75 231 C 220.5 222.75 228.75 217.5 237.75 217.5 L 318.75 217.5 C 327.75 217.5 336 222.75 339.75 231 L 349.5 252 C 350.25 254.25 351 255.75 351 258 Z M 351 270 " fill-opacity="1" fill-rule="nonzero"/></svg>