<?xml version="1.0" standalone="no"?>
<!DOCTYPE svg PUBLIC "-//W3C//DTD SVG 20010904//EN"
 "http://www.w3.org/TR/2001/REC-SVG-20010904/DTD/svg10.dtd">
<svg version="1.0" xmlns="http://www.w3.org/2000/svg"
 width="2244.000000pt" height="1181.000000pt" viewBox="0 0 2244.000000 1181.000000"
 preserveAspectRatio="xMidYMid meet">

<g transform="translate(0.000000,1181.000000) scale(0.100000,-0.100000)"
fill="#000000" stroke="none">
<path d="M3860 8433 c0 -1272 1 -1258 -61 -1427 -58 -160 -142 -273 -266 -356
-75 -50 -76 -51 -38 -45 88 16 283 78 360 114 217 102 467 307 585 481 97 142
199 398 256 637 68 291 68 280 72 1051 l3 702 -456 0 -455 0 0 -1157z"/>
<path d="M1400 4480 l0 -150 9820 0 9820 0 0 150 0 150 -9820 0 -9820 0 0
-150z"/>
<path d="M9113 3589 c-127 -40 -202 -132 -211 -260 -7 -100 11 -153 72 -214
63 -62 113 -80 279 -104 77 -11 139 -26 159 -38 46 -26 70 -76 65 -136 -8 -97
-72 -140 -214 -145 -122 -5 -181 12 -274 80 -14 9 -26 3 -73 -38 l-57 -49 38
-33 c80 -70 196 -106 348 -106 175 -1 310 62 364 169 23 43 26 62 26 145 0 83
-3 101 -25 140 -31 55 -95 105 -160 124 -27 8 -100 22 -162 31 -62 9 -130 26
-151 36 -97 50 -104 175 -13 244 70 53 224 50 324 -6 l53 -30 47 42 c26 22 47
46 47 52 0 20 -94 76 -162 97 -88 27 -233 27 -320 -1z"/>
<path d="M14233 3588 c-118 -43 -197 -120 -229 -222 -12 -36 -18 -105 -21
-236 -8 -286 15 -388 108 -475 124 -116 320 -145 474 -70 51 24 124 80 115 87
-3 1 -29 25 -57 52 l-52 49 -33 -28 c-48 -41 -90 -55 -160 -55 -102 1 -168 40
-204 125 -14 32 -19 78 -22 225 -6 282 16 357 121 406 92 42 194 28 273 -39
l31 -26 54 55 54 54 -30 25 c-17 14 -59 39 -94 57 -58 29 -75 33 -165 36 -85
2 -111 -1 -163 -20z"/>
<path d="M16435 3590 c-72 -24 -144 -75 -185 -132 -51 -70 -62 -124 -67 -328
-8 -286 15 -388 108 -475 161 -151 428 -146 581 10 73 74 90 129 96 308 l4
147 -196 0 -196 0 0 -65 0 -64 113 -3 112 -3 -2 -70 c-4 -97 -32 -150 -103
-192 -47 -28 -63 -33 -120 -33 -80 0 -135 24 -178 76 -46 56 -55 114 -50 348
3 181 6 205 25 241 26 50 46 69 103 94 88 40 193 22 277 -48 l36 -30 54 46
c29 25 53 51 53 57 0 17 -88 82 -146 108 -71 32 -235 36 -319 8z"/>
<path d="M18449 3591 c-108 -35 -191 -110 -231 -211 -21 -51 -23 -71 -23 -295
0 -287 8 -324 87 -411 159 -173 447 -173 606 0 79 87 87 124 87 411 0 228 -2
243 -24 299 -40 100 -128 177 -240 210 -72 21 -191 20 -262 -3z m231 -142 c56
-25 77 -44 103 -94 20 -36 22 -59 25 -242 4 -234 -4 -292 -50 -347 -42 -51
-98 -76 -173 -76 -75 0 -131 25 -173 76 -46 55 -54 113 -50 347 3 183 5 206
25 242 11 22 29 48 40 57 34 31 107 58 158 58 29 0 69 -9 95 -21z"/>
<path d="M1400 3598 c1 -2 81 -237 179 -523 l179 -520 64 -3 64 -3 113 326
c62 180 143 416 181 526 l69 199 -87 0 -88 0 -123 -376 c-68 -207 -126 -372
-131 -368 -4 5 -62 173 -128 374 l-120 365 -86 3 c-47 1 -86 1 -86 0z"/>
<path d="M2410 3075 l0 -525 80 0 80 0 0 525 0 525 -80 0 -80 0 0 -525z"/>
<path d="M2870 3075 l0 -525 350 0 350 0 0 75 0 75 -270 0 -270 0 0 155 0 155
230 0 230 0 0 70 0 70 -227 2 -228 3 -3 153 -3 152 271 0 270 0 0 70 0 70
-350 0 -350 0 0 -525z"/>
<path d="M3800 3075 l0 -526 83 3 82 3 5 364 5 363 214 -313 c118 -173 232
-338 253 -366 l39 -53 74 0 75 0 0 525 0 525 -85 0 -85 0 0 -367 0 -366 -252
366 -251 367 -79 0 -78 0 0 -525z"/>
<path d="M4920 3075 l0 -526 83 3 82 3 5 363 5 363 250 -366 250 -366 75 3 75
3 3 523 2 522 -85 0 -85 0 0 -361 c0 -198 -4 -358 -8 -355 -5 3 -118 165 -252
360 l-245 356 -77 0 -78 0 0 -525z"/>
<path d="M6307 3593 c-7 -11 -397 -1033 -397 -1039 0 -3 39 -3 87 -2 l88 3 36
100 35 100 220 3 220 2 35 -102 36 -103 87 -3 c47 -1 86 1 86 5 0 4 -89 241
-197 525 l-198 518 -67 0 c-37 0 -69 -3 -71 -7z m233 -684 c0 -5 -73 -9 -166
-9 -129 0 -165 3 -161 13 2 6 39 106 81 221 42 115 79 213 83 219 5 8 163
-421 163 -444z"/>
<path d="M7380 3075 l0 -525 85 0 85 0 0 525 0 525 -85 0 -85 0 0 -525z"/>
<path d="M7840 3075 l0 -526 83 3 82 3 5 363 5 363 250 -366 250 -366 75 3 75
3 3 523 2 522 -85 0 -85 0 0 -361 c0 -198 -4 -358 -8 -355 -5 3 -118 165 -252
360 l-244 356 -78 0 -78 0 0 -525z"/>
<path d="M9862 3203 c3 -453 2 -445 92 -541 187 -199 573 -133 665 114 20 52
21 76 21 439 l0 385 -80 0 -79 0 -3 -377 c-3 -365 -4 -379 -25 -418 -43 -81
-105 -115 -205 -115 -114 1 -196 62 -218 162 -6 29 -10 193 -10 398 l0 350
-80 0 -81 0 3 -397z"/>
<path d="M10920 3075 l0 -526 83 3 82 3 3 223 2 223 102 -3 102 -3 111 -210
c60 -116 114 -216 118 -223 10 -15 187 -17 187 -2 0 6 -54 110 -120 231 -66
121 -120 222 -120 223 0 1 22 12 49 24 89 41 142 109 160 209 9 45 2 124 -15
168 -15 42 -64 102 -101 126 -81 54 -116 59 -390 59 l-253 0 0 -525z m510 363
c24 -13 52 -35 63 -49 48 -67 26 -180 -46 -227 -39 -26 -46 -27 -199 -30
l-158 -4 0 166 0 166 148 0 c134 0 152 -2 192 -22z"/>
<path d="M12011 3096 c-106 -278 -195 -514 -198 -525 -5 -20 -1 -21 80 -21
l85 0 30 83 c16 45 33 92 36 105 l7 22 221 -2 221 -3 36 -100 36 -100 89 -3
c80 -3 87 -1 82 15 -3 10 -93 245 -200 523 l-194 505 -69 3 -69 3 -193 -505z
m354 25 c41 -117 75 -214 75 -217 0 -2 -74 -4 -165 -4 -91 0 -165 3 -165 8 0
4 37 107 82 230 54 147 84 218 89 209 5 -8 42 -110 84 -226z"/>
<path d="M12900 3075 l0 -525 85 0 85 0 2 367 3 368 250 -365 250 -365 78 -3
77 -3 0 526 0 525 -85 0 -85 0 -2 -362 -3 -361 -248 361 -248 362 -80 0 -79 0
0 -525z"/>
<path d="M14910 3075 l0 -525 350 0 350 0 0 75 0 75 -265 0 -265 0 0 155 0
155 225 0 225 0 0 70 0 70 -225 0 -225 0 0 155 0 155 265 0 265 0 0 70 0 70
-350 0 -350 0 0 -525z"/>
<path d="M17212 3078 l3 -523 83 -3 82 -3 0 226 0 225 104 0 105 0 116 -225
116 -225 95 0 c52 0 94 3 94 6 0 4 -52 102 -115 218 -63 116 -117 219 -120
228 -5 13 5 22 45 39 169 73 214 313 85 457 -27 29 -65 59 -97 73 -51 23 -63
24 -326 27 l-272 3 2 -523z m514 361 c60 -29 84 -71 84 -149 0 -59 -2 -64 -38
-100 -50 -50 -91 -60 -254 -60 l-138 0 0 165 0 165 152 0 c133 0 157 -3 194
-21z"/>
<path d="M19210 3252 c0 -209 4 -372 11 -407 24 -133 108 -232 232 -274 189
-65 401 -5 492 140 51 80 55 114 55 516 l0 373 -79 0 -80 0 -3 -377 c-3 -365
-4 -379 -25 -418 -27 -50 -58 -80 -105 -100 -51 -21 -153 -19 -203 4 -51 23
-101 79 -114 128 -7 23 -11 178 -11 401 l0 362 -85 0 -85 0 0 -348z"/>
<path d="M20280 3075 l0 -525 80 0 80 0 2 208 3 207 180 5 c179 5 181 5 247
38 37 18 79 47 94 65 118 140 98 361 -42 460 -86 61 -112 65 -391 66 l-253 1
0 -525z m510 362 c104 -55 121 -204 31 -280 -46 -38 -90 -47 -243 -47 l-138 0
0 175 0 175 153 0 c141 0 157 -2 197 -23z"/>
</g>
</svg>
