<svg xmlns="http://www.w3.org/2000/svg" width="80" viewBox="0 0 354 281.25" height="80" preserveAspectRatio="xMidYMid meet" version="1.0"><defs><clipPath id="5e6a027244"><path d="M 0.472656 112 L 83 112 L 83 196 L 0.472656 196 Z M 0.472656 112 " clip-rule="nonzero"/></clipPath><clipPath id="3f324f86e2"><path d="M 249 116 L 353.527344 116 L 353.527344 196 L 249 196 Z M 249 116 " clip-rule="nonzero"/></clipPath><clipPath id="b5b20b0d62"><path d="M 118 207 L 240 207 L 240 280.503906 L 118 280.503906 Z M 118 207 " clip-rule="nonzero"/></clipPath></defs><path fill="var(--accent)" d="M 116.792969 113.324219 C 111.21875 111.097656 105.273438 114.066406 103.414062 119.636719 L 91.152344 157.890625 C 93.753906 157.890625 95.980469 158.261719 98.210938 159.378906 C 100.441406 160.121094 102.671875 161.605469 104.160156 163.089844 L 121.996094 126.695312 C 124.597656 121.867188 121.996094 115.554688 116.792969 113.324219 Z M 116.792969 113.324219 " fill-opacity="1" fill-rule="nonzero"/><g clip-path="url(#5e6a027244)"><path fill="var(--accent)" d="M 81.488281 159.007812 L 82.230469 156.777344 C 73.683594 154.921875 67.738281 151.207031 66.621094 146.007812 C 65.507812 140.066406 69.96875 133.75 78.144531 128.550781 C 82.601562 125.582031 82.230469 118.894531 77.027344 117.039062 C 69.96875 114.4375 62.535156 112.953125 54.359375 112.953125 C 24.628906 112.953125 0.472656 131.523438 0.472656 154.179688 C 0.472656 176.832031 24.628906 195.402344 54.359375 195.402344 C 59.5625 195.402344 64.019531 195.03125 68.851562 193.917969 C 69.222656 193.175781 69.597656 192.058594 69.96875 191.316406 C 71.453125 189.089844 71.082031 187.605469 70.710938 183.890625 C 70.339844 180.175781 69.597656 175.71875 71.453125 170.890625 C 73.3125 166.433594 76.65625 162.71875 80.746094 160.492188 Z M 16.078125 161.234375 C 12.363281 161.234375 9.761719 158.261719 9.761719 154.921875 C 9.761719 151.207031 12.734375 148.605469 16.078125 148.605469 C 19.796875 148.605469 22.398438 151.578125 22.398438 154.921875 C 22.398438 158.261719 19.425781 161.234375 16.078125 161.234375 Z M 30.203125 128.921875 C 33.917969 128.921875 36.890625 131.894531 36.890625 135.609375 C 36.890625 139.324219 33.917969 141.921875 30.203125 141.921875 C 26.484375 141.921875 23.882812 138.949219 23.882812 135.609375 C 23.511719 131.894531 26.484375 128.921875 30.203125 128.921875 Z M 31.316406 180.175781 C 27.601562 180.175781 25 177.203125 25 173.863281 C 25 170.148438 27.972656 167.546875 31.316406 167.546875 C 35.035156 167.546875 38.007812 170.519531 38.007812 173.863281 C 37.636719 177.203125 34.660156 180.175781 31.316406 180.175781 Z M 47.667969 127.4375 C 47.667969 123.722656 50.640625 121.125 53.988281 121.125 C 57.703125 121.125 60.304688 124.09375 60.304688 127.4375 C 60.304688 131.152344 57.332031 133.75 53.988281 133.75 C 50.640625 133.75 47.667969 131.152344 47.667969 127.4375 Z M 56.21875 184.261719 C 52.5 184.261719 49.898438 181.289062 49.898438 177.949219 C 49.898438 174.234375 52.871094 171.261719 56.21875 171.261719 C 59.933594 171.261719 62.535156 174.234375 62.535156 177.949219 C 62.535156 181.660156 59.933594 184.261719 56.21875 184.261719 Z M 56.21875 184.261719 " fill-opacity="1" fill-rule="nonzero"/></g><path fill="var(--accent)" d="M 94.867188 167.917969 C 88.921875 165.691406 82.230469 168.292969 80 174.234375 C 77.398438 180.546875 82.976562 187.230469 77.773438 195.773438 C 77.027344 197.261719 78.144531 199.117188 80 198.746094 C 92.265625 196.144531 98.957031 188.71875 101.183594 182.777344 C 103.414062 176.832031 100.441406 170.148438 94.867188 167.917969 Z M 94.867188 167.917969 " fill-opacity="1" fill-rule="nonzero"/><path fill="var(--accent)" d="M 301.871094 143.40625 C 292.207031 143.40625 284.402344 151.207031 284.402344 160.863281 C 284.402344 170.519531 292.207031 178.320312 301.871094 178.320312 C 311.535156 178.320312 319.339844 170.519531 319.339844 160.863281 C 319.339844 151.207031 311.535156 143.40625 301.871094 143.40625 Z M 302.242188 156.035156 C 299.269531 156.035156 297.039062 158.261719 297.039062 161.234375 C 297.039062 163.089844 295.554688 164.578125 293.695312 164.578125 C 291.835938 164.578125 290.351562 163.089844 290.351562 161.234375 C 290.351562 154.921875 295.554688 149.722656 301.871094 149.722656 C 303.730469 149.722656 305.214844 151.207031 305.214844 153.0625 C 305.214844 154.550781 304.101562 156.035156 302.242188 156.035156 Z M 302.242188 156.035156 " fill-opacity="1" fill-rule="nonzero"/><g clip-path="url(#3f324f86e2)"><path fill="var(--accent)" d="M 343.125 126.324219 L 316.363281 126.324219 L 316.363281 122.609375 C 316.363281 119.265625 313.390625 116.296875 310.046875 116.296875 L 293.324219 116.296875 C 289.980469 116.296875 287.003906 119.265625 287.003906 122.609375 L 287.003906 126.324219 L 260.246094 126.324219 C 254.671875 126.324219 249.839844 131.152344 249.839844 136.722656 L 249.839844 185.003906 C 249.839844 190.574219 254.671875 195.402344 260.246094 195.402344 L 342.75 195.402344 C 348.328125 195.402344 353.15625 190.574219 353.15625 185.003906 L 353.15625 136.722656 C 353.527344 130.78125 348.699219 126.324219 343.125 126.324219 Z M 265.820312 146.378906 C 263.21875 146.378906 260.992188 144.152344 260.992188 141.550781 C 260.992188 138.949219 263.21875 136.722656 265.820312 136.722656 C 268.421875 136.722656 270.652344 138.949219 270.652344 141.550781 C 270.652344 144.523438 268.421875 146.378906 265.820312 146.378906 Z M 301.871094 186.488281 C 287.75 186.488281 276.226562 174.976562 276.226562 160.863281 C 276.226562 146.75 287.75 135.238281 301.871094 135.238281 C 315.992188 135.238281 327.515625 146.75 327.515625 160.863281 C 327.886719 174.976562 315.992188 186.488281 301.871094 186.488281 Z M 301.871094 186.488281 " fill-opacity="1" fill-rule="nonzero"/></g><path fill="var(--accent)" d="M 275.113281 99.953125 C 276.601562 102.554688 279.945312 103.296875 282.546875 101.8125 C 285.148438 100.324219 286.632812 96.984375 284.777344 94.382812 C 275.484375 79.15625 263.21875 65.785156 248.355469 55.757812 C 245.753906 53.902344 242.035156 55.015625 240.550781 57.988281 C 240.550781 58.359375 240.179688 58.359375 240.179688 58.730469 C 239.0625 60.957031 239.808594 63.929688 242.035156 65.414062 C 255.789062 74.699219 266.9375 86.214844 275.113281 99.953125 Z M 275.113281 99.953125 " fill-opacity="1" fill-rule="nonzero"/><path fill="var(--accent)" d="M 78.144531 99.210938 C 78.515625 99.210938 78.515625 99.210938 78.886719 99.210938 C 81.117188 99.953125 83.347656 98.839844 84.832031 96.984375 C 93.007812 84.726562 103.414062 73.957031 115.308594 65.414062 C 117.539062 63.929688 118.28125 60.957031 117.164062 58.730469 C 117.164062 58.359375 116.792969 58.359375 116.792969 57.988281 C 115.308594 55.015625 111.589844 53.902344 108.988281 55.757812 C 95.609375 65.042969 84.089844 76.929688 75.171875 90.667969 C 72.941406 94.011719 74.425781 98.097656 78.144531 99.210938 Z M 78.144531 99.210938 " fill-opacity="1" fill-rule="nonzero"/><g clip-path="url(#b5b20b0d62)"><path fill="var(--accent)" d="M 210.449219 208.03125 L 208.21875 207.289062 L 206.359375 208.402344 C 198.183594 213.972656 188.519531 216.945312 178.859375 216.945312 C 168.824219 216.945312 159.160156 213.972656 151.355469 208.402344 L 149.5 207.289062 L 147.269531 208.03125 C 129.800781 213.972656 118.28125 230.6875 118.28125 248.882812 L 118.28125 272.652344 C 118.28125 277.109375 121.625 280.453125 126.085938 280.453125 L 231.257812 280.453125 C 235.71875 280.453125 239.0625 277.109375 239.0625 272.652344 L 239.0625 248.511719 C 239.0625 230.6875 227.542969 213.972656 210.449219 208.03125 Z M 210.449219 208.03125 " fill-opacity="1" fill-rule="nonzero"/></g><path fill="var(--accent)" d="M 143.179688 168.664062 C 143.179688 188.347656 159.160156 204.316406 178.859375 204.316406 C 198.554688 204.316406 214.535156 188.347656 214.535156 168.664062 C 214.535156 148.980469 198.554688 133.007812 178.859375 133.007812 C 159.160156 133.007812 143.179688 148.980469 143.179688 168.664062 Z M 143.179688 168.664062 " fill-opacity="1" fill-rule="nonzero"/><path fill="var(--accent)" d="M 175.140625 95.496094 C 177 97.355469 180.34375 97.355469 182.574219 95.496094 L 225.3125 53.160156 C 238.320312 40.160156 236.089844 17.132812 217.507812 7.847656 C 206.730469 1.90625 193.351562 5.25 184.433594 13.792969 L 178.859375 19.363281 L 172.539062 13.046875 C 159.53125 0.0507812 136.492188 2.277344 127.199219 20.847656 C 121.625 31.617188 124.96875 44.988281 133.519531 53.902344 Z M 175.140625 95.496094 " fill-opacity="1" fill-rule="nonzero"/></svg>